<svg width="877" height="864" viewBox="0 0 877 864" fill="none" xmlns="http://www.w3.org/2000/svg">
<path d="M56.4121 642.992L155.46 642.5L254.528 642.316L452.624 641.968L650.721 642.316L749.789 642.48L848.837 642.992L749.789 643.484L650.721 643.668L452.624 644.017L254.528 643.668L155.46 643.484L56.4121 642.992Z" fill="#263238"/>
<path d="M184.183 438.94C178.114 432.609 170.272 424.967 161.063 427.712C152.335 430.273 149.002 440.394 147.422 448.856C145.496 459.735 143.839 470.716 142.221 481.636C140.602 492.556 139.042 503.783 137.539 514.867C136.691 521.116 135.863 527.385 135.034 533.634C134.63 536.769 134.225 539.903 133.801 543.038C133.377 546.172 132.934 549.184 132.761 552.257C132.773 552.463 132.852 552.658 132.986 552.807C133.119 552.957 133.297 553.052 133.49 553.077C133.682 553.101 133.877 553.053 134.039 552.941C134.202 552.828 134.322 552.659 134.379 552.462C135.497 547.238 135.959 541.809 136.691 536.502C137.423 531.196 138.136 525.849 138.868 520.522C140.332 509.936 141.822 499.358 143.338 488.786C144.854 478.215 146.401 467.636 147.981 457.051C149.311 448.098 149.908 436.952 157.422 431.052C159.447 429.577 161.792 428.676 164.236 428.432C166.68 428.188 169.142 428.61 171.39 429.659C176.142 431.932 180.449 435.136 184.086 439.104C184.125 439.247 184.298 439.063 184.183 438.94Z" fill="#263238"/>
<path d="M175.897 432.479C175.897 432.479 163.49 427.726 157.363 437.355C151.236 446.984 158.558 471.467 215.162 485.297C213.5 466.514 208.903 448.157 201.56 430.983C189.345 402.812 167.767 413.528 175.897 432.479Z" fill="url(#paint0_linear_692_1770)"/>
<path d="M211.803 481.289C210.951 479.605 210.006 477.977 208.971 476.413C208.027 474.876 207.044 473.34 206.1 471.803C205.368 470.635 204.636 469.508 203.885 468.361C203.885 468.074 203.885 467.788 204 467.501C204.116 467.214 204.116 466.456 204.193 465.944C204.328 464.817 204.482 463.69 204.636 462.563C204.79 461.436 204.964 460.33 205.176 459.224C205.301 458.018 205.546 456.83 205.908 455.679C205.908 455.495 205.677 455.413 205.657 455.679C205.553 456.378 205.385 457.064 205.156 457.728L204.771 459.244C204.501 460.391 204.251 461.539 204 462.686C203.75 463.833 203.596 464.735 203.422 465.862L203.191 467.419C202.189 465.882 201.168 464.366 200.109 462.891C197.103 458.691 193.924 454.696 190.649 450.701C190.649 450.701 190.649 450.701 190.649 450.578C190.625 444.289 191.115 438.01 192.113 431.811C192.113 431.647 191.901 431.545 191.863 431.811C190.367 437.658 189.66 443.7 189.762 449.758C188.587 448.365 187.393 446.972 186.179 445.661C183.443 442.506 180.637 439.412 177.76 436.38C177.748 436.368 177.735 436.358 177.72 436.352C177.705 436.345 177.689 436.342 177.673 436.342C177.657 436.342 177.641 436.345 177.626 436.352C177.611 436.358 177.598 436.368 177.586 436.38C177.575 436.392 177.566 436.406 177.56 436.422C177.553 436.438 177.55 436.455 177.55 436.472C177.55 436.489 177.553 436.506 177.56 436.522C177.566 436.538 177.575 436.552 177.586 436.564C182.345 442.014 186.873 447.689 191.265 453.467C187.819 453.408 184.371 453.545 180.938 453.876C177.085 454.184 173.232 454.696 169.494 455.27C169.34 455.27 169.379 455.556 169.494 455.536C173.281 454.948 177.095 454.585 180.919 454.45C184.599 454.286 188.26 454.45 191.959 454.45C194.335 457.591 196.686 460.753 199.01 463.936H198.471C197.604 463.936 196.737 463.936 195.889 463.936C194.155 463.936 192.441 464.1 190.726 464.264C187.22 464.56 183.737 465.114 180.303 465.923C180.278 465.934 180.256 465.952 180.241 465.976C180.226 466 180.218 466.028 180.218 466.056C180.218 466.085 180.226 466.113 180.241 466.137C180.256 466.16 180.278 466.179 180.303 466.189C183.79 465.759 187.258 465.411 190.745 465.288C192.421 465.288 194.078 465.288 195.754 465.288H198.355C198.833 465.363 199.321 465.321 199.781 465.165C201.303 467.214 202.825 469.263 204.328 471.455C205.522 473.135 206.698 474.835 207.873 476.536C209.048 478.236 210.127 480.183 211.437 481.822C211.504 481.873 211.587 481.895 211.668 481.881C211.749 481.868 211.822 481.821 211.871 481.75C211.919 481.679 211.939 481.591 211.927 481.505C211.914 481.418 211.87 481.341 211.803 481.289V481.289Z" fill="#263238"/>
<path d="M181.29 446.131C179.265 445.857 177.223 445.761 175.183 445.845C173.16 445.845 171.137 445.845 169.133 445.968C169.113 445.959 169.091 445.956 169.069 445.958C169.047 445.961 169.026 445.969 169.007 445.982C168.989 445.995 168.974 446.013 168.964 446.033C168.954 446.054 168.948 446.077 168.948 446.101C168.948 446.124 168.954 446.147 168.964 446.168C168.974 446.189 168.989 446.206 169.007 446.219C169.026 446.232 169.047 446.241 169.069 446.243C169.091 446.246 169.113 446.242 169.133 446.234C171.175 446.09 173.218 446.049 175.26 446.07C177.302 446.09 179.229 446.316 181.194 446.254C181.348 446.234 181.367 446.131 181.29 446.131Z" fill="#263238"/>
<path d="M199.011 450.966C199.209 448.903 199.505 446.852 199.898 444.82C199.898 444.615 199.666 444.554 199.647 444.82C199.358 446.869 198.992 448.918 198.703 450.864C198.568 451.888 198.433 452.913 198.318 453.896C198.156 454.842 198.078 455.803 198.087 456.764C198.098 456.801 198.12 456.832 198.15 456.854C198.179 456.876 198.214 456.888 198.25 456.888C198.286 456.888 198.321 456.876 198.351 456.854C198.38 456.832 198.402 456.801 198.414 456.764C198.587 455.819 198.684 454.859 198.703 453.896C198.799 452.913 198.896 451.991 199.011 450.966Z" fill="#263238"/>
<path d="M195.336 428.223C194.836 430.272 194.354 432.321 194.007 434.37C193.834 435.394 193.68 436.418 193.545 437.463C193.375 438.47 193.311 439.494 193.352 440.516C193.352 440.516 193.487 440.516 193.506 440.516C193.732 439.568 193.88 438.602 193.949 437.627C194.084 436.623 194.219 435.578 194.392 434.636C194.72 432.587 195.086 430.538 195.568 428.49C195.625 428.162 195.375 428.059 195.336 428.223Z" fill="#263238"/>
<path d="M121.725 550.084C121.417 546.287 121.076 542.51 120.704 538.754C119.959 531.255 119.111 523.784 118.161 516.34C117.217 508.903 116.234 501.445 115.194 494.029C114.764 490.593 114.041 487.205 113.036 483.908C112.662 482.495 111.99 481.191 111.072 480.094C110.154 478.997 109.014 478.137 107.738 477.577C101.091 475.139 96.6018 482.474 93.9238 487.657C93.9238 487.821 94.0587 487.924 94.155 487.801C95.7541 485.342 100.205 478.438 105.233 478.766C108.643 478.97 111.341 481.531 112.94 490.525C117.005 512.939 120.646 558.443 121.089 561.413C121.301 562.991 122.361 562.929 122.361 561.229C122.438 557.521 122.033 553.792 121.725 550.084Z" fill="#263238"/>
<path d="M95.7336 484.873C95.7336 484.873 101.514 463.054 88.7014 473.974C67.3158 492.126 66.5645 531.626 66.5645 531.626C66.5645 531.626 104.577 508.147 109.297 492.7C116.329 469.61 95.7336 484.873 95.7336 484.873Z" fill="url(#paint1_linear_692_1770)"/>
<path d="M102.983 495.589C99.9965 496.224 96.9717 496.655 93.9469 497.105L89.6697 497.74L86.7798 498.109C89.5927 494.012 92.4634 489.914 95.1799 485.612C95.2762 485.448 95.045 485.263 94.9102 485.407C92.6655 487.877 90.5494 490.476 88.5716 493.192C88.0128 491.512 87.4348 489.832 86.8761 488.132C86.3174 486.431 85.5467 484.239 85.0651 482.231C85.0651 482.215 85.0621 482.199 85.0563 482.184C85.0505 482.169 85.042 482.156 85.0312 482.144C85.0205 482.133 85.0078 482.124 84.9937 482.118C84.9797 482.112 84.9647 482.108 84.9495 482.108C84.9343 482.108 84.9193 482.112 84.9053 482.118C84.8912 482.124 84.8785 482.133 84.8678 482.144C84.857 482.156 84.8485 482.169 84.8427 482.184C84.8369 482.199 84.8339 482.215 84.8339 482.231C85.3541 484.28 85.7201 486.329 86.2211 488.275C86.722 490.222 87.2615 492.127 87.8972 493.991C86.5101 495.917 85.1807 497.884 83.8706 499.871C83.2155 497.822 82.4063 495.999 81.8283 493.991C81.8283 493.827 81.5394 493.991 81.5972 493.991C82.2715 496.204 82.6375 498.519 83.2733 500.732C82.4063 502.104 81.5394 503.457 80.7109 504.829C79.1696 507.37 77.7246 509.931 76.2989 512.512C76.1932 512.569 76.1057 512.657 76.0474 512.767C75.9891 512.876 75.9626 513.001 75.9714 513.127C73.5631 517.532 71.2897 522.019 69.0355 526.546C69.0212 526.563 69.0106 526.582 69.0046 526.604C68.9986 526.625 68.9974 526.648 69.0011 526.67C69.0048 526.692 69.0133 526.712 69.0259 526.73C69.0385 526.748 69.0548 526.763 69.0736 526.773C69.0924 526.783 69.1131 526.788 69.1341 526.788C69.1551 526.788 69.1758 526.783 69.1946 526.772C69.2133 526.762 69.2296 526.748 69.2421 526.73C69.2547 526.712 69.2631 526.691 69.2667 526.669C71.5209 522.203 74.0255 517.859 76.6265 513.598C77.0305 513.481 77.4429 513.398 77.8595 513.352L79.1696 513.045C80.1522 512.819 81.0962 512.553 82.1173 512.287C84.044 511.795 85.9706 511.303 87.8972 510.935C88.0706 510.935 87.8972 510.648 87.8972 510.689C85.6045 511.139 83.2926 511.426 80.9806 511.713C79.8825 511.857 78.7843 512 77.6861 512.184H77.532C78.8999 509.972 80.287 507.779 81.6935 505.628C83.0999 503.477 84.4871 501.387 85.9128 499.298C87.2229 499.093 88.533 498.724 89.7661 498.458L94.2937 497.679C97.2414 497.064 100.17 496.368 103.118 495.856C103.151 495.837 103.176 495.804 103.186 495.766C103.197 495.728 103.193 495.686 103.175 495.651C103.158 495.615 103.127 495.589 103.091 495.578C103.055 495.566 103.016 495.57 102.983 495.589V495.589Z" fill="#263238"/>
<path d="M80.1113 497.732L79.5911 495.991C79.2443 494.782 78.9553 493.573 78.7241 492.344C78.7241 492.16 78.4544 492.242 78.4736 492.344C78.7241 493.573 78.9938 494.802 79.2636 496.032C79.5095 497.266 79.8445 498.478 80.2654 499.658C80.2665 499.696 80.2759 499.733 80.2929 499.767C80.3098 499.8 80.3338 499.829 80.363 499.851C80.3922 499.873 80.4258 499.887 80.4611 499.893C80.4964 499.899 80.5325 499.896 80.5666 499.884C80.6007 499.873 80.6318 499.853 80.6574 499.827C80.6831 499.8 80.7027 499.768 80.7146 499.732C80.7264 499.696 80.7303 499.658 80.726 499.62C80.7216 499.582 80.709 499.546 80.6893 499.514C80.5352 498.961 80.304 498.347 80.1113 497.732Z" fill="#263238"/>
<path d="M106.827 490.521C105.093 490.807 103.359 490.93 101.606 491.094C99.8527 491.258 98.1187 491.524 96.3848 491.791V491.955C98.138 491.832 99.872 491.688 101.606 491.443C103.34 491.197 105.093 490.93 106.846 490.807C107 490.787 107 490.5 106.827 490.521Z" fill="#263238"/>
<path d="M149.695 522.469C149.021 506.407 148.057 490.365 146.555 474.364C145.784 466.394 144.936 458.445 143.896 450.516C142.948 442.717 141.5 434.995 139.561 427.406C138.222 421.51 135.763 415.967 132.336 411.118C130.644 408.762 128.415 406.903 125.86 405.717C123.305 404.53 120.508 404.055 117.732 404.337C111.124 405.197 105.787 409.643 101.182 414.437C96.0188 419.846 91.2986 425.746 86.5012 431.524L82.8984 435.929C82.8984 436.052 82.8984 436.236 83.0911 436.113C87.7728 430.397 92.628 424.845 97.7143 419.539C102.415 414.622 107.347 409.295 113.763 407.246C116.785 406.214 120.022 406.128 123.088 407C125.53 407.819 127.728 409.302 129.465 411.303C132.93 415.586 135.387 420.684 136.632 426.177C140.678 440.948 142.143 456.417 143.645 471.659C145.148 486.902 146.208 502.698 146.959 518.248C147.71 533.799 148.269 549.554 149.676 565.145C149.849 567.05 150.08 568.976 150.311 570.902C150.466 572.193 152.354 572.193 152.238 570.902C151.082 554.737 150.369 538.613 149.695 522.469Z" fill="#263238"/>
<path d="M100.376 416.191C100.376 416.191 109.007 399.227 98.8152 393.778C88.6234 388.328 54.5027 428.832 44.542 488.021C44.542 488.021 99.6437 462.084 118.351 436.269C137.059 410.455 115.847 404.862 100.376 416.191Z" fill="url(#paint2_linear_692_1770)"/>
<path d="M108.51 430.004C102.307 430.004 96.1413 429.512 89.9375 429.553L93.4247 425.353C95.1601 423.47 96.7817 421.472 98.2798 419.371C98.2798 419.248 98.1642 419.043 98.0486 419.145C96.3743 420.687 94.8095 422.358 93.3669 424.144L88.7237 429.451C86.3732 432.176 84.042 434.941 81.73 437.646V436.847C81.73 435.699 81.73 434.552 81.73 433.405V426.705C81.73 422.178 81.73 417.609 82.0576 413.101C82.0576 412.917 81.8264 412.938 81.8071 413.101C81.5181 417.65 81.075 422.178 80.863 426.726C80.7474 428.959 80.7089 431.192 80.6704 433.425C80.6704 434.573 80.6704 435.72 80.6704 436.888C80.6704 437.502 80.6704 438.178 80.6704 438.814C80.3043 439.264 79.9383 439.674 79.5722 440.104C74.6207 446.107 69.939 452.397 65.3536 458.646C65.3727 458.298 65.3727 457.949 65.3536 457.601C65.3536 456.904 65.2188 456.208 65.1417 455.552C64.9683 454.036 64.7756 452.54 64.5637 451.024C64.3518 449.508 64.1591 448.217 63.9279 446.804C63.6967 445.39 63.3307 443.608 63.2151 442.01C63.2232 441.988 63.2263 441.964 63.2239 441.941C63.2216 441.918 63.2139 441.895 63.2015 441.876C63.1891 441.857 63.1725 441.841 63.153 441.83C63.1336 441.819 63.1119 441.813 63.0898 441.813C63.0678 441.813 63.0461 441.819 63.0266 441.83C63.0072 441.841 62.9905 441.857 62.9782 441.876C62.9658 441.895 62.9581 441.918 62.9557 441.941C62.9534 441.964 62.9564 441.988 62.9646 442.01C63.215 443.611 63.3886 445.225 63.4848 446.845C63.6004 448.279 63.7353 449.733 63.8509 451.188C63.9665 452.643 64.1013 454.077 64.2362 455.532C64.2362 456.228 64.371 456.925 64.4288 457.58C64.4288 457.929 64.4288 458.277 64.5637 458.625C64.5879 458.915 64.6735 459.195 64.8142 459.445C64.0435 460.551 63.2536 461.637 62.4637 462.723C59.3425 467.128 56.2792 471.573 53.2158 476.019C53.2158 476.142 53.2158 476.347 53.3892 476.204C56.2984 472.106 59.2847 468.213 62.3095 464.3C64.583 464.403 66.8949 464.3 69.1684 464.177C71.4418 464.054 73.9464 464.177 76.3355 464.177C76.4896 464.177 76.4896 463.911 76.3355 463.911C73.9464 463.911 71.5574 463.911 69.1684 463.911C66.7793 463.911 64.7756 463.809 62.5985 463.911C65.2573 460.469 67.9546 457.048 70.6519 453.667C71.6345 452.417 72.5785 451.168 73.6189 449.938C74.5347 450.041 75.4582 450.041 76.374 449.938H79.63C81.6722 449.938 83.7145 449.938 85.7374 449.938C89.9375 449.938 94.1568 449.713 98.3569 449.713C98.5303 449.713 98.511 449.426 98.3569 449.426C94.1376 449.426 89.9375 449.18 85.7182 449.078L79.6107 448.914H76.3547C75.7382 448.914 75.1024 448.914 74.4281 448.914L81.364 440.166C81.4227 440.126 81.4695 440.069 81.4988 440.002C83.753 437.175 86.0072 434.347 88.2999 431.54L89.2439 430.393C95.6596 430.598 102.075 430.147 108.51 430.393C108.664 430.291 108.664 430.004 108.51 430.004Z" fill="#263238"/>
<path d="M105.296 441.742H103.889C103.754 441.742 103.754 441.988 103.889 441.988H105.392C105.469 441.927 105.469 441.742 105.296 441.742Z" fill="#263238"/>
<path d="M102.005 441.744C100.014 441.744 98.0299 441.703 96.0519 441.621H93.0849C92.1644 441.487 91.2311 441.487 90.3105 441.621C90.3105 441.621 90.3105 441.785 90.3105 441.805C91.2211 442.016 92.1557 442.085 93.0849 442.01H96.0712H102.005C102.03 442 102.052 441.981 102.067 441.957C102.082 441.934 102.09 441.906 102.09 441.877C102.09 441.848 102.082 441.82 102.067 441.796C102.052 441.773 102.03 441.754 102.005 441.744V441.744Z" fill="#263238"/>
<path d="M84.6588 461.449C80.6328 460.737 76.5631 460.34 72.4824 460.261C72.4824 460.261 72.4824 460.261 72.4824 460.261C76.5284 460.671 80.5743 460.896 84.601 461.593C84.7744 461.736 84.8322 461.47 84.6588 461.449Z" fill="#263238"/>
<path d="M68.0458 442.604L67.9302 441.456C67.8339 440.616 67.699 439.776 67.5642 438.936C67.333 437.318 67.0632 435.72 66.7742 434.122C66.7742 433.958 66.5238 433.999 66.543 434.122C66.7164 435.761 66.8898 437.42 67.044 439.08C67.044 439.899 67.1596 440.719 67.2366 441.538C67.2118 442.323 67.3161 443.107 67.5449 443.853C67.5659 443.911 67.6029 443.961 67.651 443.996C67.6992 444.032 67.7562 444.051 67.8146 444.051C67.8731 444.051 67.9301 444.032 67.9783 443.996C68.0264 443.961 68.0634 443.911 68.0844 443.853C68.1545 443.439 68.1413 443.013 68.0458 442.604V442.604Z" fill="#263238"/>
<path d="M149.206 394.396C147.279 390.503 144.717 385.34 139.804 385.668C135.739 385.935 133.909 390.339 133.042 393.986C130.344 405.275 130.171 417.158 129.631 428.713C128.533 453.134 127.551 477.576 127.396 502.039C127.396 508.82 127.396 515.581 127.396 522.362C127.396 529.144 127.396 536.233 127.859 543.137C127.881 543.253 127.94 543.357 128.026 543.432C128.112 543.506 128.22 543.547 128.331 543.547C128.442 543.547 128.55 543.506 128.636 543.432C128.722 543.357 128.781 543.253 128.803 543.137C128.803 537.216 128.649 531.295 128.63 525.395C128.61 519.494 128.63 513.84 128.745 508.083C128.912 496.391 129.201 484.706 129.612 473.028C130.017 461.411 130.498 449.815 130.961 438.199C131.192 432.394 131.43 426.596 131.674 420.805C131.905 415.191 132.136 409.557 132.733 403.964C133.08 400.85 133.523 397.715 134.12 394.621C134.441 392.322 135.325 390.153 136.683 388.332C137.625 387.349 138.864 386.754 140.181 386.652C141.497 386.551 142.804 386.95 143.869 387.778C146.111 389.504 147.875 391.839 148.975 394.539C149.071 394.621 149.283 394.621 149.206 394.396Z" fill="#263238"/>
<path d="M147.823 392.573C147.823 392.573 143.777 377.392 152.716 384.972C167.609 397.633 168.129 425.148 168.129 425.148C168.129 425.148 141.638 408.758 138.363 398.002C133.469 381.899 147.823 392.573 147.823 392.573Z" fill="url(#paint3_linear_692_1770)"/>
<path d="M162.615 413.821C162.384 413.412 162.114 413.002 161.864 412.572C161.902 412.142 161.902 411.71 161.864 411.281C161.864 410.625 161.864 409.97 161.864 409.232C161.864 407.962 161.864 406.671 161.998 405.401C161.998 405.363 161.984 405.326 161.959 405.299C161.934 405.273 161.899 405.257 161.864 405.257C161.828 405.257 161.794 405.273 161.768 405.299C161.743 405.326 161.729 405.363 161.729 405.401C161.729 406.651 161.632 407.921 161.594 409.171V411.055V411.875C160.553 410.154 159.494 408.454 158.376 406.794C158.068 406.302 157.721 405.831 157.394 405.36C157.268 403.71 157.268 402.052 157.394 400.402C157.394 398.619 157.394 396.857 157.509 395.096C157.509 394.932 157.259 394.932 157.24 395.096C157.24 396.939 157.105 398.783 157.028 400.607C157.028 401.918 156.854 403.229 156.912 404.54C154.369 400.853 151.652 397.288 148.897 393.743C148.897 393.62 148.628 393.743 148.705 393.907C150.419 396.202 152.038 398.537 153.637 400.914C150.516 400.136 147.356 399.705 144.196 399.214C144.023 399.214 143.965 399.459 144.196 399.48C147.549 400.013 150.843 400.914 154.157 401.693L158.01 407.409L159.513 409.765H159.359L158.338 409.621C157.606 409.621 156.874 409.457 156.142 409.396C154.6 409.273 153.078 409.191 151.556 409.109C151.383 409.109 151.383 409.376 151.556 409.376C153.059 409.376 154.562 409.539 156.045 409.703L158.415 410.011L159.455 410.134H159.764L162.307 414.129C163.79 416.485 165.139 419.005 166.738 421.279C166.738 421.402 167.008 421.279 166.931 421.136C165.635 418.606 164.193 416.163 162.615 413.821Z" fill="#263238"/>
<path d="M155.934 396.674C155.934 396.1 155.934 395.506 155.934 394.912C155.901 393.667 155.946 392.421 156.069 391.183C156.077 391.161 156.08 391.138 156.078 391.114C156.075 391.091 156.068 391.069 156.055 391.049C156.043 391.03 156.026 391.014 156.007 391.003C155.987 390.992 155.966 390.986 155.943 390.986C155.921 390.986 155.9 390.992 155.88 391.003C155.861 391.014 155.844 391.03 155.832 391.049C155.819 391.069 155.812 391.091 155.809 391.114C155.807 391.138 155.81 391.161 155.818 391.183C155.818 392.412 155.683 393.641 155.645 394.871C155.645 395.485 155.645 396.1 155.645 396.715V397.555C155.596 397.846 155.596 398.144 155.645 398.436C155.645 398.468 155.657 398.5 155.679 398.523C155.7 398.546 155.73 398.559 155.76 398.559C155.791 398.559 155.821 398.546 155.842 398.523C155.864 398.5 155.876 398.468 155.876 398.436C155.916 398.164 155.916 397.888 155.876 397.616C155.934 397.268 155.934 396.961 155.934 396.674Z" fill="#263238"/>
<path d="M152.707 402.962C151.725 402.778 150.781 402.716 149.721 402.634C148.661 402.553 147.544 402.43 146.465 402.286C146.272 402.286 146.234 402.532 146.465 402.553C148.565 402.696 150.646 403.085 152.727 403.167C152.739 403.166 152.751 403.162 152.763 403.155C152.774 403.149 152.784 403.14 152.792 403.13C152.8 403.12 152.806 403.107 152.81 403.095C152.813 403.082 152.814 403.068 152.813 403.055C152.812 403.041 152.808 403.028 152.802 403.016C152.796 403.004 152.788 402.994 152.778 402.985C152.768 402.977 152.757 402.97 152.745 402.966C152.733 402.962 152.72 402.961 152.707 402.962V402.962Z" fill="#263238"/>
<path d="M149.786 475.489C144.218 471.043 139.208 464.651 131.733 464.344C125.548 464.098 121.214 469.035 118.728 474.588C117.489 477.52 116.477 480.556 115.703 483.664C114.586 487.761 113.533 491.941 112.544 496.202C110.617 504.397 108.941 512.797 107.592 521.177C106.841 525.848 106.128 530.54 105.666 535.252C104.963 540.001 104.526 544.79 104.355 549.593C104.371 549.767 104.442 549.929 104.557 550.053C104.672 550.178 104.824 550.256 104.986 550.275C105.149 550.294 105.313 550.253 105.451 550.159C105.589 550.065 105.692 549.923 105.743 549.757C106.494 545.803 106.802 541.747 107.361 537.772C107.92 533.797 108.478 529.761 109.114 525.787C110.399 517.81 111.876 509.874 113.546 501.98C115.145 494.522 116.705 486.962 118.979 479.71C120.597 474.506 123.198 468.441 128.477 466.577C136.511 463.729 143.89 470.961 149.67 475.653C149.728 475.796 149.92 475.592 149.786 475.489Z" fill="#263238"/>
<path d="M144.023 471.246C144.023 471.246 138.879 455.654 146.316 452.602C157.433 448.012 186.563 482.903 180.86 536.336C167.12 528.162 154.038 518.795 141.75 508.329C125.123 493.495 120.884 474.134 128.263 469.135C135.642 464.136 144.023 471.246 144.023 471.246Z" fill="url(#paint4_linear_692_1770)"/>
<path d="M177.528 524.879C176.756 523.015 175.854 521.214 174.831 519.491C173.867 517.647 172.904 515.824 171.921 514.021C169.995 510.517 168.068 506.994 166.141 503.511L165.159 501.81C165.159 501.605 165.159 501.4 165.294 501.196L165.621 499.639C165.872 498.491 166.064 497.303 166.257 496.135C166.662 493.861 167.047 491.546 167.625 489.292C167.625 489.128 167.394 489.067 167.374 489.292C166.912 491.566 166.238 493.82 165.602 496.053C165.274 497.16 164.947 498.266 164.677 499.372L164.388 500.52C161.999 496.422 159.572 492.202 156.951 488.227C157.116 487.67 157.2 487.09 157.202 486.506C157.202 485.727 157.375 484.949 157.452 484.17C157.664 482.408 157.838 480.646 158.088 478.905C158.515 475.461 159.107 472.042 159.861 468.661C159.861 468.497 159.649 468.456 159.591 468.661C158.801 472.021 157.934 475.381 157.317 478.803C157.028 480.483 156.759 482.163 156.547 483.843C156.431 484.682 156.354 485.523 156.277 486.383C156.277 486.629 156.277 486.895 156.277 487.141C155.468 485.932 154.659 484.723 153.811 483.535C151.249 479.95 148.59 476.426 145.892 472.943C145.892 472.8 145.584 472.943 145.681 473.086C150.284 479.354 154.512 485.923 158.339 492.755L160.535 496.524L159.803 496.422C158.859 496.299 157.876 496.238 156.971 496.135L151.191 495.623C147.337 495.295 143.6 495.049 139.824 494.619C139.65 494.619 139.612 494.865 139.824 494.885C143.677 495.357 147.53 496.012 151.383 496.586C153.31 496.873 155.237 497.139 157.028 497.385C158.454 497.7 159.907 497.858 161.363 497.856L165.583 505.457C165.249 505.437 164.915 505.437 164.581 505.457H159.206H151.884C151.711 505.457 151.73 505.723 151.884 505.723C154.35 505.723 156.817 505.887 159.283 506.031L162.808 506.256C163.386 506.256 163.964 506.358 164.562 506.379C165.069 506.502 165.596 506.502 166.103 506.379C167.374 508.571 168.646 510.763 169.956 512.956C171.266 515.148 172.307 517.053 173.501 518.979C174.639 521.128 175.927 523.182 177.354 525.125C177.393 525.125 177.586 525.043 177.528 524.879Z" fill="#263238"/>
<path d="M166.77 481.693C166.53 483.406 166.196 485.103 165.768 486.774C165.344 488.495 164.862 490.216 164.342 491.917C164.33 491.96 164.334 492.007 164.353 492.048C164.373 492.088 164.407 492.118 164.448 492.132C164.489 492.145 164.533 492.141 164.571 492.12C164.609 492.099 164.638 492.063 164.651 492.019C165.151 490.319 165.595 488.639 165.98 486.917C166.365 485.196 166.616 483.455 167.02 481.734C167.059 481.57 166.789 481.509 166.77 481.693Z" fill="#263238"/>
<path d="M150.258 492.125C149.914 491.813 149.477 491.639 149.025 491.634L146.906 491.327L143.052 490.814C140.297 490.487 137.561 490.2 134.826 489.831C134.652 489.831 134.614 490.077 134.826 490.097C137.426 490.425 139.989 490.855 142.532 491.204L146.385 491.736L148.312 491.941C149.021 491.945 149.725 492.077 150.393 492.33C150.258 492.392 150.335 492.228 150.258 492.125Z" fill="#263238"/>
<path d="M166.72 515.62C165.43 515.497 164.119 515.456 162.867 515.415H160.94H159.996C159.586 515.456 159.173 515.456 158.763 515.415C158.59 515.415 158.571 515.702 158.763 515.681C159.148 515.64 159.535 515.64 159.919 515.681H160.94L162.867 515.804C164.158 515.804 165.468 515.968 166.72 515.989C166.855 515.927 166.875 515.64 166.72 515.62Z" fill="#263238"/>
<path d="M174.626 509.642C174.78 508.863 174.915 508.085 175.05 507.306L175.859 502.676C175.849 502.649 175.832 502.627 175.809 502.611C175.787 502.594 175.761 502.586 175.734 502.586C175.707 502.586 175.68 502.594 175.658 502.611C175.636 502.627 175.618 502.649 175.608 502.676C175.281 504.172 174.973 505.667 174.645 507.163L174.183 509.416C174.183 509.765 174.048 510.113 173.99 510.461C173.876 510.816 173.836 511.194 173.874 511.567C173.874 511.69 174.067 511.793 174.144 511.67C174.426 511.033 174.59 510.344 174.626 509.642V509.642Z" fill="#263238"/>
<path d="M163.749 555.699L162.497 577.785L158.798 642.998H95.9124L92.2133 577.785L90.9609 555.699H163.749Z" fill="#37474F"/>
<path d="M163.749 555.699L162.497 577.785H92.2133L90.9609 555.699H163.749Z" fill="#263238"/>
<path d="M169.555 540.082H85.1875V562.188H169.555V540.082Z" fill="#37474F"/>
<path d="M452.63 772C644.297 772 799.674 757.571 799.674 739.772C799.674 721.974 644.297 707.545 452.63 707.545C260.962 707.545 105.585 721.974 105.585 739.772C105.585 757.571 260.962 772 452.63 772Z" fill="#EBEBEB"/>
<path d="M513.784 485.645L508.813 517.421L475.059 711.256H469.606L494.152 517.421L497.793 485.645H513.784Z" fill="#C7C7C7"/>
<path d="M497.762 485.645H513.754L508.783 517.421H494.121L497.762 485.645Z" fill="#A6A6A6"/>
<path d="M619.73 711.256H614.278L580.523 517.421L575.553 485.645H591.563L595.185 517.421L619.73 711.256Z" fill="#C7C7C7"/>
<path d="M591.563 485.645L595.185 517.421H580.523L575.553 485.645H591.563Z" fill="#A6A6A6"/>
<path d="M721.013 711.256H715.58L681.825 517.421L676.854 485.645H692.846L696.468 517.421L721.013 711.256Z" fill="#C7C7C7"/>
<path d="M696.468 517.421H681.825L676.854 485.645H692.846L696.468 517.421Z" fill="#A6A6A6"/>
<path d="M712.382 500.579H465.041V472.86H557.635L588.75 239.36H702.942L712.382 500.579Z" fill="#C7C7C7"/>
<path d="M697.971 472.863H465.041V500.583H698.896L697.971 472.863Z" fill="#DBDBDB"/>
<path d="M712.38 500.579H698.894L690.108 239.36H702.94L712.38 500.579Z" fill="#DBDBDB"/>
<path d="M460.762 747.501C465.54 747.993 595.915 714.823 600.019 710.316C600.52 709.804 597.938 697.204 594.239 680.035V679.687C591.889 668.808 553.78 580.71 553.78 580.71L469.278 605.869L507.81 687.595C507.81 687.595 491.916 699.888 478.294 711.422C469.875 718.552 462.631 724.944 461.089 727.013C456.889 732.504 455.984 747.01 460.762 747.501Z" fill="#D3766A"/>
<path d="M460.786 747.5C465.564 747.992 595.94 714.72 600.043 710.315C600.544 709.803 597.963 697.223 594.263 680.034V679.706C593.396 675.609 587.539 660.837 580.546 643.873C566.655 647.868 516.793 662.312 498.702 668.213L507.815 687.594C507.815 687.594 491.92 699.887 478.28 711.421C469.88 718.551 462.616 724.964 461.075 727.033C456.914 732.503 455.989 747.009 460.786 747.5Z" fill="white"/>
<path d="M460.357 748.157C465.269 748.607 595.741 715.069 599.941 710.439C601.56 708.697 598.65 686.796 591.483 663.604L507.405 685.341C507.405 685.341 464.48 721.543 460.357 727.157C456.234 732.77 455.424 747.706 460.357 748.157Z" fill="url(#paint5_linear_692_1770)"/>
<path d="M460.937 742.133C482.689 735.987 570.909 713.143 592.835 708.759C593.027 708.759 593.046 708.861 592.835 708.902C571.41 715.561 483.016 737.585 460.995 742.523C460.571 742.625 460.474 742.256 460.937 742.133Z" fill="#263238"/>
<path d="M467.582 720C469.998 719.306 472.523 719.153 474.997 719.551C477.471 719.95 479.841 720.891 481.955 722.315C485.777 724.837 488.537 728.829 489.661 733.461C489.661 733.604 489.449 733.666 489.391 733.461C487.579 729.08 484.485 725.438 480.568 723.079C476.652 720.72 472.124 719.77 467.659 720.369C467.466 720.369 467.408 720.041 467.582 720Z" fill="#263238"/>
<path d="M501.078 689.438C509.806 687.061 520.692 687.737 527.878 693.945C528.148 694.191 527.878 694.601 527.531 694.54C518.909 692.235 510.079 690.923 501.194 690.626C501.065 690.608 500.946 690.544 500.856 690.445C500.766 690.346 500.71 690.218 500.696 690.08C500.683 689.943 500.713 689.806 500.783 689.689C500.852 689.572 500.956 689.484 501.078 689.438V689.438Z" fill="#263238"/>
<path d="M495.027 693.991C503.754 691.614 514.659 692.29 521.826 698.498C522.096 698.743 521.826 699.153 521.479 699.071C512.82 696.763 503.95 695.458 495.027 695.179C494.903 695.144 494.794 695.067 494.717 694.959C494.639 694.852 494.597 694.72 494.597 694.585C494.597 694.449 494.639 694.317 494.717 694.21C494.794 694.102 494.903 694.025 495.027 693.991V693.991Z" fill="#263238"/>
<path d="M488.797 698.509C497.524 696.133 508.41 696.809 515.577 703.017C515.866 703.262 515.577 703.672 515.249 703.611C506.621 701.304 497.785 699.992 488.893 699.698C488.745 699.711 488.598 699.662 488.484 699.56C488.37 699.458 488.299 699.312 488.286 699.155C488.273 698.997 488.32 698.841 488.416 698.72C488.512 698.599 488.649 698.523 488.797 698.509V698.509Z" fill="#263238"/>
<path d="M482.679 703.063C491.406 700.686 502.292 701.363 509.478 707.57C509.748 707.816 509.478 708.225 509.131 708.143C500.507 705.854 491.678 704.549 482.794 704.251C482.666 704.233 482.547 704.169 482.457 704.07C482.367 703.971 482.31 703.842 482.297 703.705C482.284 703.568 482.314 703.43 482.383 703.314C482.452 703.197 482.557 703.109 482.679 703.063Z" fill="#263238"/>
<path d="M582.262 688.103C592.088 685.604 595.748 701.85 585.904 704.35C576.059 706.849 572.417 690.603 582.262 688.103Z" fill="#263238"/>
<path d="M489.751 680.506C495.955 685.772 504.085 688.005 511.349 690.976C511.514 691.027 511.689 691.037 511.859 691.003C512.029 690.969 512.189 690.893 512.326 690.782C512.463 690.67 512.573 690.525 512.647 690.36C512.722 690.194 512.759 690.012 512.755 689.828C512.909 689.828 513.025 689.685 512.967 689.48C510.379 681.107 505.768 673.604 499.596 667.722C495.955 664.382 489.501 661.985 485.956 667.046C482.411 672.106 486.129 677.351 489.751 680.506ZM487.593 672.905C486.168 662.538 496.533 668.111 499.153 670.693C500.804 672.408 502.349 674.235 503.777 676.163C506.783 680.117 509.229 684.358 511.85 688.681C508.343 686.981 504.76 685.608 501.215 684.051C496.957 682.207 488.383 678.601 487.593 672.905V672.905Z" fill="#263238"/>
<path d="M542.719 675.549C540.658 669.649 533.837 670.018 529.445 672.148C521.971 675.95 515.567 681.772 510.872 689.03C510.848 689.062 510.832 689.099 510.825 689.139C510.818 689.178 510.821 689.219 510.832 689.258C510.843 689.296 510.864 689.331 510.891 689.359C510.918 689.387 510.951 689.408 510.987 689.42C510.932 689.595 510.918 689.782 510.944 689.964C510.97 690.147 511.037 690.321 511.138 690.471C511.24 690.621 511.373 690.743 511.528 690.827C511.683 690.912 511.854 690.956 512.028 690.956C519.734 690.26 528.192 690.546 535.533 687.35C539.81 685.547 544.684 681.142 542.719 675.549ZM523.607 687.35C519.754 687.781 515.9 688.026 512.182 688.6C515.715 685.202 519.405 681.995 523.241 678.991C525.113 677.564 527.077 676.277 529.117 675.14C532.296 673.439 543.702 671.185 539.598 680.692C537.44 685.937 528.154 686.818 523.607 687.35Z" fill="#263238"/>
<path d="M498.053 680.113L588.605 651.246C588.605 651.246 513.986 485.889 516.337 477.469C517.916 471.855 629.796 471.466 662.587 440.16C696.515 407.749 670.082 344.093 670.082 344.093L575.908 343.581C575.908 343.581 577.527 364.458 573.982 367.716C571.612 369.764 442.971 381.914 418.387 432.191C396.076 477.817 498.053 680.113 498.053 680.113Z" fill="#263238"/>
<path d="M516.297 477.469C515.892 478.882 517.703 484.824 521.017 493.715L453.411 582.038C429.309 523.587 406.652 456.202 418.424 432.191C442.969 381.914 571.629 369.867 573.98 367.716C577.563 364.479 575.907 343.581 575.907 343.581L635.632 343.909L536.411 473.515C524.523 474.908 516.701 475.994 516.297 477.469Z" fill="#263238"/>
<path d="M495.801 659.749C498.192 658.588 500.658 657.609 503.18 656.819C505.781 655.877 508.401 654.934 511.021 654.033C516.185 652.271 521.387 650.57 526.608 649.013C537.108 645.838 547.647 642.744 558.224 639.876C563.753 638.401 575.564 635.143 576.315 635.266C576.662 635.266 576.739 635.942 576.431 636.065C566.2 639.958 555.796 643.297 545.412 646.657C535.027 650.017 524.662 653.357 514.142 656.164C511.233 656.963 508.363 657.639 505.376 658.397C502.324 659.314 499.214 659.999 496.071 660.446C495.762 660.548 495.473 659.933 495.801 659.749Z" fill="#455A64"/>
<path d="M665.057 363.147C664.768 359.808 664.422 356.489 664.056 353.149C664.056 352.76 663.458 352.76 663.497 353.149C664.749 366.671 666.04 380.521 663.69 394.002C661.549 406.448 655.651 417.813 646.889 426.373C628.239 444.812 602.133 450.323 577.819 454.728C563.909 457.248 549.902 459.174 535.838 460.649C528.941 461.366 522.043 461.939 515.146 462.411C508.248 462.882 501.447 462.923 494.608 463.333C492.45 463.456 490.523 464.521 490.851 467.143C491.207 468.742 491.758 470.285 492.489 471.733L494.704 477.039C497.44 483.636 500.202 490.233 502.989 496.83C508.704 510.407 514.484 523.949 520.328 537.457C532.017 564.269 544.142 590.862 556.703 617.237L561.385 627.05C561.501 627.255 561.79 627.05 561.693 626.845C549.684 600.143 537.829 573.366 526.128 546.513C520.348 533.175 514.568 519.879 508.788 506.5L500.234 486.443C498.827 483.083 497.401 479.743 495.995 476.383C495.301 474.724 494.589 473.044 493.895 471.364C493.201 469.684 491.178 466.631 492.643 465.217C493.625 464.357 495.668 464.644 496.843 464.623L502.295 464.418C505.763 464.296 509.212 464.152 512.661 463.968C519.648 463.599 526.641 463.094 533.642 462.452C547.301 461.181 560.942 459.337 574.486 457.022C598.646 452.925 624.926 448.233 644.25 430.982C652.896 423.514 659.337 413.556 662.803 402.3C666.522 389.7 666.194 376.178 665.057 363.147Z" fill="#455A64"/>
<path d="M261.931 620.767C265.341 624.373 385.64 687.25 391.497 686.553C392.191 686.553 397.759 675.06 405.157 659.264L405.292 658.956C410.012 648.958 452.822 564.897 452.822 564.897L377.972 524.598L333.968 606.405C333.968 606.405 314.393 605.053 296.938 604.746C286.187 604.52 276.766 604.541 274.339 605.094C267.923 606.59 258.482 617.182 261.931 620.767Z" fill="#D3766A"/>
<path d="M261.873 620.763C265.283 624.369 385.582 687.246 391.458 686.549C392.133 686.549 397.701 675.056 405.099 659.26L405.234 658.952L406.255 656.903C406.486 656.391 406.737 655.9 407.006 655.387L408.124 653.134C411.399 646.557 416.755 635.924 422.631 624.287L346.317 583.312L333.91 606.381C333.91 606.381 314.335 605.028 296.88 604.721C286.129 604.516 276.689 604.516 274.28 605.069C267.865 606.586 258.405 617.178 261.873 620.763Z" fill="white"/>
<path d="M261.131 620.987C264.657 624.675 385.264 687.286 391.295 686.549C393.568 686.303 404.473 667.454 412.854 644.733L335.114 604.495C335.114 604.495 280.34 603.286 273.808 604.802C267.277 606.318 257.605 617.3 261.131 620.987Z" fill="url(#paint6_linear_692_1770)"/>
<path d="M265.198 616.746C285.659 626.724 367.31 668.99 386.827 680.504C386.981 680.504 386.923 680.709 386.827 680.627C366.27 671.203 285.004 628.178 265.044 617.095C264.62 616.869 264.774 616.541 265.198 616.746Z" fill="#263238"/>
<path d="M283.621 604.226C285.886 605.336 287.911 606.931 289.569 608.913C291.227 610.894 292.481 613.219 293.254 615.74C294.669 620.284 294.4 625.23 292.503 629.569C292.487 629.605 292.459 629.632 292.425 629.646C292.391 629.659 292.353 629.657 292.32 629.641C292.286 629.625 292.261 629.595 292.248 629.559C292.235 629.522 292.237 629.482 292.252 629.447C293.521 624.834 293.349 619.908 291.761 615.409C290.174 610.91 287.256 607.079 283.447 604.493C283.351 604.39 283.447 604.144 283.621 604.226Z" fill="#263238"/>
<path d="M327.737 603.366C335.887 607.464 343.882 615.352 345.674 625.001C345.674 625.37 345.25 625.472 345.057 625.227C339.8 617.603 333.787 610.604 327.12 604.35C327.014 604.256 326.944 604.124 326.924 603.978C326.904 603.833 326.935 603.685 327.012 603.562C327.088 603.44 327.205 603.352 327.339 603.316C327.473 603.28 327.615 603.298 327.737 603.366V603.366Z" fill="#263238"/>
<path d="M320.286 602.712C328.436 606.81 336.432 614.698 338.223 624.348C338.223 624.716 337.799 624.819 337.607 624.573C332.357 616.956 326.357 609.957 319.708 603.696C319.618 603.601 319.561 603.476 319.546 603.342C319.531 603.208 319.56 603.072 319.627 602.958C319.694 602.843 319.796 602.757 319.916 602.712C320.036 602.667 320.167 602.668 320.286 602.712V602.712Z" fill="#263238"/>
<path d="M312.842 602.057C320.992 606.154 328.987 614.042 330.779 623.692C330.779 624.06 330.355 624.163 330.163 623.917C324.906 616.293 318.893 609.294 312.226 603.04C312.119 602.946 312.049 602.814 312.029 602.669C312.009 602.523 312.041 602.375 312.117 602.253C312.194 602.131 312.31 602.043 312.444 602.007C312.578 601.97 312.72 601.988 312.842 602.057Z" fill="#263238"/>
<path d="M305.391 601.398C313.541 605.496 321.536 613.384 323.328 623.033C323.328 623.402 322.904 623.505 322.712 623.259C317.45 615.639 311.437 608.64 304.775 602.382C304.668 602.288 304.598 602.156 304.578 602.01C304.558 601.865 304.589 601.717 304.666 601.595C304.743 601.472 304.859 601.385 304.993 601.348C305.127 601.312 305.269 601.33 305.391 601.398Z" fill="#263238"/>
<path d="M390.981 657.397C400.036 662.15 393.139 677.126 384.045 672.394C374.951 667.661 381.984 652.643 390.981 657.397Z" fill="#263238"/>
<path d="M324.403 588.801C326.002 596.996 330.934 604.29 334.749 611.522C334.851 611.67 334.984 611.791 335.138 611.874C335.292 611.957 335.463 612 335.635 612C335.808 612 335.978 611.957 336.132 611.874C336.286 611.791 336.42 611.67 336.522 611.522C336.551 611.547 336.586 611.564 336.623 611.572C336.661 611.579 336.699 611.576 336.735 611.564C336.772 611.552 336.804 611.531 336.831 611.502C336.857 611.473 336.877 611.438 336.888 611.399C339.912 603.198 340.861 594.297 339.643 585.584C338.833 580.524 335.288 574.316 329.547 575.791C324.095 577.266 323.459 583.986 324.403 588.801ZM327.293 581.487C332.398 572.534 337.042 583.863 337.485 587.633C337.735 590.068 337.831 592.519 337.774 594.968C337.585 600.028 337.154 605.074 336.483 610.088C334.807 606.421 332.861 602.938 331.069 599.332C328.931 595.009 324.48 586.424 327.293 581.487Z" fill="#263238"/>
<path d="M368.086 620.905C370.013 614.963 364.561 610.661 359.917 609.268C351.874 607.128 343.444 607.269 335.469 609.677C335.433 609.69 335.401 609.711 335.374 609.739C335.347 609.767 335.326 609.8 335.314 609.838C335.301 609.875 335.296 609.915 335.299 609.955C335.303 609.994 335.314 610.033 335.334 610.067C335.187 610.165 335.065 610.299 334.976 610.457C334.888 610.616 334.836 610.794 334.825 610.978C334.813 611.162 334.843 611.346 334.911 611.515C334.98 611.684 335.085 611.834 335.218 611.951C341.615 616.684 347.895 622.585 355.467 625.105C359.898 626.559 366.256 626.518 368.086 620.905ZM346.296 617.012C343.098 614.758 340.015 612.361 336.663 610.251C341.419 609.985 346.184 609.985 350.939 610.251C353.239 610.419 355.525 610.761 357.779 611.275C361.247 612.115 371.4 618.118 362.538 622.646C357.721 625.248 350.111 619.696 346.296 617.012Z" fill="#263238"/>
<path d="M334.289 593.165L424.552 641.127C424.552 641.127 495.028 488.861 502.735 479.007C513.042 465.915 647.232 484.395 678.906 442.129C711.659 398.428 683.588 344.156 683.588 344.156H581.476C581.476 344.156 581.168 356.203 587.063 373.823C587.063 373.823 470.252 366.426 437.19 400.58C411.759 426.783 334.289 593.165 334.289 593.165Z" fill="#263238"/>
<path d="M605.638 384.742C600.43 380.891 595.028 377.349 589.454 374.129C585.534 371.928 581.416 370.15 577.162 368.823C574.176 368.065 572.866 367.84 575.659 369.233L583.173 373.023C582.634 373.023 582.114 373.023 581.593 373.023C579.667 373.023 577.586 372.839 575.563 372.798C571.71 372.675 567.702 372.798 563.791 372.675C555.815 372.675 547.916 373.433 539.959 373.863C539.766 373.863 539.766 374.211 539.959 374.211C547.897 373.925 555.854 374.375 563.811 374.355C567.664 374.355 571.652 374.457 575.582 374.519L581.362 374.642C582.992 374.734 584.626 374.734 586.256 374.642L588.433 375.748C594.213 378.637 599.993 381.669 605.541 385.009C605.618 385.091 605.792 384.865 605.638 384.742Z" fill="#455A64"/>
<path d="M578.964 340.036C580.004 345.178 580.891 350.28 582.104 355.422C582.663 357.758 583.203 360.114 584.031 362.388C584.667 364.314 585.649 366.486 587.692 366.998C590.062 367.571 590.794 365.441 590.678 363.351C590.562 361.261 590.042 358.659 589.676 356.365C589.272 353.701 588.848 351.038 588.482 348.374C588.308 347.043 588.096 345.711 587.942 344.277C587.942 343.949 587.75 341.388 587.595 340.671C587.587 340.702 587.569 340.728 587.545 340.747C587.52 340.765 587.491 340.775 587.461 340.773C587.423 340.774 587.386 340.759 587.358 340.733C587.329 340.706 587.311 340.67 587.306 340.63C587.306 340.446 587.306 340.405 587.441 340.261C587.47 340.232 587.508 340.216 587.547 340.216C587.587 340.216 587.625 340.232 587.653 340.261C588.116 340.528 588.116 341.204 588.25 341.695C588.597 342.986 588.944 344.277 589.252 345.588C589.85 348.047 590.408 350.505 590.909 352.964C591.41 355.422 591.911 357.901 592.393 360.38C592.93 362.21 593.03 364.154 592.682 366.035C592.439 366.927 591.934 367.712 591.24 368.276C590.547 368.841 589.702 369.154 588.829 369.17L589.06 369.661C589.252 370.173 589.387 370.706 589.541 371.239C589.716 371.763 589.863 372.296 589.984 372.837C590.042 373.1 590.08 373.367 590.1 373.636C590.1 373.923 590.1 374.21 590.1 374.517C590.105 374.613 590.08 374.708 590.029 374.788C589.977 374.867 589.902 374.925 589.815 374.954C589.729 374.982 589.635 374.979 589.551 374.944C589.466 374.909 589.395 374.845 589.349 374.763C589.233 374.496 589.06 374.291 588.925 374.046C588.791 373.765 588.687 373.47 588.617 373.165C588.462 372.652 588.347 372.14 588.231 371.628C588.116 371.116 588 370.583 587.923 370.05C587.846 369.518 587.923 369.436 587.923 369.129C586.928 368.994 585.987 368.569 585.206 367.899C583.891 366.633 582.948 364.989 582.49 363.167C581.835 361.015 581.353 358.803 580.871 356.61C579.567 351.238 578.716 345.753 578.328 340.22C578.078 339.626 578.848 339.442 578.964 340.036Z" fill="#455A64"/>
<path d="M628.273 354.648C628.619 357.188 628.812 359.729 629.274 362.249C629.737 364.769 630.296 367.186 630.97 369.604C631.605 371.925 632.545 374.139 633.764 376.18C635.014 378.125 636.519 379.871 638.233 381.364C641.494 384.35 645.19 386.751 649.177 388.473C651.191 389.322 653.249 390.047 655.342 390.645C656.44 390.931 657.558 391.177 658.656 391.382C659.587 391.445 660.497 391.703 661.334 392.14C661.409 392.199 661.469 392.279 661.507 392.37C661.545 392.462 661.56 392.562 661.55 392.661C661.54 392.76 661.506 392.855 661.452 392.937C661.397 393.018 661.323 393.082 661.238 393.124C659.609 393.586 657.895 393.586 656.267 393.124C654.488 392.878 652.73 392.488 651.007 391.956C647.514 390.84 644.186 389.206 641.123 387.1C638.022 385.083 635.267 382.519 632.974 379.52C630.851 376.361 629.429 372.733 628.812 368.907C627.864 364.233 627.527 359.441 627.81 354.668C627.809 354.636 627.814 354.604 627.824 354.574C627.835 354.543 627.851 354.515 627.871 354.492C627.892 354.468 627.916 354.449 627.944 354.435C627.972 354.421 628.001 354.414 628.032 354.412C628.062 354.411 628.092 354.416 628.121 354.427C628.149 354.438 628.176 354.455 628.198 354.477C628.22 354.499 628.239 354.525 628.251 354.555C628.264 354.584 628.271 354.616 628.273 354.648V354.648Z" fill="#455A64"/>
<path d="M352.587 575.712C355.072 576.614 357.492 577.703 359.832 578.97C362.336 580.199 364.86 581.408 367.346 582.678C372.239 585.15 377.094 587.718 381.911 590.381C391.544 595.77 401.177 601.199 410.81 606.772C415.8 609.701 426.493 615.971 426.956 616.606C427.167 616.893 426.821 617.405 426.512 617.261C416.552 612.631 406.841 607.468 397.131 602.326C387.421 597.183 377.711 592.082 368.232 586.407C365.612 584.85 363.049 583.211 360.429 581.633C357.605 580.084 354.888 578.325 352.298 576.368C352.048 576.265 352.221 575.589 352.587 575.712Z" fill="#455A64"/>
<path d="M683.491 369.438C683.473 369.357 683.43 369.286 683.368 369.234C683.307 369.183 683.232 369.155 683.154 369.155C683.076 369.155 683 369.183 682.939 369.234C682.878 369.286 682.835 369.357 682.817 369.438C683.009 393.019 679.58 419.387 662.51 436.31C643.783 454.872 616.791 457.084 592.477 456.798C578.528 456.675 564.598 456.285 550.65 456.798C536.701 457.31 522.482 458.006 508.572 459.912C503.149 460.45 498.082 463.021 494.276 467.164C490.617 471.596 487.444 476.456 484.817 481.649C477.791 493.942 470.99 506.439 464.413 519.142C451.351 544.26 439.258 569.904 428.135 596.073C426.748 599.324 425.38 602.582 424.031 605.846C423.935 606.051 424.243 606.235 424.32 606.01C435.623 579.772 447.787 553.971 460.811 528.607C467.31 515.918 474.014 503.359 480.925 490.93C484.181 485.112 487.34 479.129 490.962 473.536C494.18 468.598 498.187 463.968 503.755 462.165C507.158 461.264 510.637 460.729 514.14 460.567C517.698 460.226 521.268 459.912 524.852 459.625C531.788 459.092 538.762 458.682 545.737 458.416C559.801 457.863 573.827 458.047 587.911 458.314C612.321 458.785 639.005 457.904 659.196 441.37C667.86 434.175 674.405 424.492 678.058 413.466C681.656 402.153 683.497 390.292 683.51 378.35C683.568 375.379 683.549 372.408 683.491 369.438Z" fill="#455A64"/>
<path d="M537.335 472.759C532.345 472.759 527.374 473.066 522.403 473.25C518.253 473.176 514.107 473.567 510.034 474.418C506.181 475.422 503.272 475.893 500.189 480.38C496.336 485.973 475.355 529.059 466.55 548.133C464.11 553.419 461.701 558.725 459.325 564.052C456.897 569.563 454.72 575.197 452.293 580.709C452.196 580.893 452.485 581.077 452.582 580.873C454.74 576.263 457.129 571.776 459.364 567.228C461.598 562.679 463.756 558.049 465.914 553.439C470.281 544.138 474.661 534.843 479.054 525.556C483.408 516.336 488.687 507.363 493.118 498.205C496.837 490.501 501.923 479.97 505.449 478.413C510.394 476.355 515.579 475.018 520.862 474.439C526.353 474.029 531.844 473.66 537.335 473.169C537.386 473.169 537.435 473.147 537.471 473.108C537.507 473.07 537.527 473.018 537.527 472.964C537.527 472.909 537.507 472.857 537.471 472.819C537.435 472.78 537.386 472.759 537.335 472.759V472.759Z" fill="#455A64"/>
<path d="M647.109 196.726C651.79 216.435 660.595 239.238 656.241 259.788C652.869 275.891 641.733 288.675 629.441 297.997C602.469 318.485 561.084 329.425 534.169 302.586C523.438 291.851 516.965 266.036 528.91 253.416C535.056 246.962 543.263 243.991 550.835 239.935C555.597 237.605 559.803 234.162 563.139 229.863C566.475 225.563 568.855 220.518 570.101 215.104C575.727 192.567 570.93 178.123 568.502 155.689C568.108 153.484 568.155 151.215 568.64 149.03C569.124 146.845 570.036 144.793 571.315 143.007C577.165 135.338 585.336 130.067 594.435 128.092C603.817 127.109 614.375 134.238 622.563 138.234C630.752 142.229 635.298 147.576 637.707 157.041C640.963 170.235 643.949 183.593 647.109 196.726Z" fill="#263238"/>
<path d="M651.195 205.599C645.8 187.837 640.097 170.238 634.491 152.557C634.491 152.557 634.298 152.557 634.317 152.557C638.537 167.246 642.563 181.957 646.956 196.605C651.272 210.947 656.589 225.288 659.73 240.06C666.723 273.025 637.304 293.492 610.523 297.671C609.31 297.856 609.734 299.905 610.947 299.72C634.356 295.274 660.52 280.749 662.35 252.312C663.352 236.741 655.587 220.125 651.195 205.599Z" fill="#263238"/>
<path d="M569.619 153.662C569.604 153.591 569.562 153.53 569.505 153.492C569.447 153.453 569.377 153.441 569.311 153.457C569.244 153.473 569.187 153.517 569.15 153.579C569.114 153.64 569.103 153.714 569.118 153.785C571.854 172.224 576.67 193.306 569.985 211.294C566.688 220.151 560.945 227.737 553.512 233.052C547.636 237.252 540.854 238.973 534.4 241.862C509.181 253.089 516.232 290.889 538.254 301.44C538.697 301.645 539.082 300.826 538.62 300.58C522.975 292.118 514.556 272.389 522.571 254.79C529.006 240.653 546.654 240.838 557.385 231.639C579.522 212.564 575.264 179.989 569.619 153.662Z" fill="#263238"/>
<path d="M616.172 227.971C604.612 254.605 565.039 316.314 545.965 319.121C529.107 321.6 487.376 311.295 473.312 303.079C466.838 299.31 483.099 248.356 493.965 250.774C507.452 253.806 525.87 261.018 538.451 261.755C542.902 262.042 564.326 245.775 602.03 219.346C616.095 209.512 622.684 212.995 616.172 227.971Z" fill="#D3766A"/>
<path d="M472.137 257.121C472.137 257.121 438.575 251.61 436.841 251.937C435.107 252.265 435.473 254.908 435.685 256.977C436.075 258.169 436.565 259.321 437.149 260.419C439.673 265.705 443.95 275.191 437.149 277.342C428.248 280.149 418.653 258.903 417.632 255.318C417.397 253.677 417.489 252.002 417.902 250.401C419.116 244.562 422.911 236.059 429.462 233.888C438.325 230.876 448.439 232.187 457.302 232.658L472.137 257.121Z" fill="#D3766A"/>
<path d="M472.148 257.121C472.148 257.121 438.586 251.61 436.852 251.937C435.119 252.265 435.485 254.908 435.697 256.977C436.087 258.169 436.577 259.321 437.161 260.419C430.302 256.875 422.75 252.941 417.895 250.401C419.108 244.562 422.904 236.059 429.454 233.888C438.317 230.876 448.432 232.187 457.294 232.658L472.148 257.121Z" fill="#263238"/>
<path d="M473.342 303.08C471.588 302.076 462.553 299.249 450.357 294.762C447.082 284.723 438.354 265.588 436.061 260.507C434.424 254.36 427.642 242.313 427.102 242.58C426.12 243.092 422.633 244.895 418.221 246.677C412.441 249.074 404.985 251.553 399.686 251.185C398.451 251.253 397.222 250.96 396.132 250.339C395.042 249.718 394.133 248.792 393.502 247.661C391.575 243.563 399.956 238.708 409.397 232.09C422.247 223.055 438.489 212.709 446.427 215.208C458.179 218.875 469.758 234.159 473.708 238.277C477.657 242.395 493.995 250.734 493.995 250.734C490.643 269.521 475.789 304.473 473.342 303.08Z" fill="#D3766A"/>
<path d="M434.675 256.697C434.521 256.451 434.386 256.574 434.501 256.882C434.829 257.865 436.293 262.27 435.388 262.761C433.808 263.581 424.425 258.193 420.109 256.615C419.878 256.615 419.743 256.882 419.974 256.943C422.138 257.899 424.253 258.973 426.313 260.16C428.24 261.204 434.02 264.851 436.062 263.806C437.391 263.151 435.272 257.681 434.675 256.697Z" fill="#263238"/>
<path d="M388.703 280.705C387.528 281.914 386.256 282.877 385.697 282.324C385.196 281.73 386.16 280.398 387.316 279.189L388.703 280.705Z" fill="#263238"/>
<path d="M402.165 279.005C400.951 280.275 391.761 281.279 388.351 281.053C387.994 280.995 387.665 280.817 387.411 280.543C387.158 280.27 386.994 279.917 386.944 279.537C386.944 275.973 388.043 266.159 389.256 264.889C390.085 264.028 393.899 261.918 397.637 259.439C402.511 256.243 454.839 204.655 455.706 204.409C456.573 204.163 458.133 205.536 458.904 206.458C459.675 207.38 460.965 209.039 460.715 209.941C460.465 210.842 410.623 265.257 407.501 270.277C405.074 274.149 402.993 278.165 402.165 279.005Z" fill="#37474F"/>
<path d="M402.123 279.031C401.99 279.16 401.832 279.258 401.661 279.317C398.783 277.399 396.125 275.13 393.742 272.556C391.815 270.503 390.167 268.172 388.849 265.632C388.912 265.37 389.038 265.129 389.215 264.935C389.398 264.751 389.598 264.586 389.812 264.443C390.91 266.84 394.282 272.638 402.643 278.334C402.489 278.582 402.315 278.815 402.123 279.031Z" fill="#A6A6A6"/>
<path d="M418.302 249.207L417.603 248.444C417.061 247.853 416.17 247.84 415.614 248.417L400.933 263.631C400.376 264.207 400.365 265.154 400.907 265.746L401.606 266.509C402.148 267.1 403.039 267.112 403.595 266.536L418.276 251.322C418.832 250.746 418.844 249.799 418.302 249.207Z" fill="#263238"/>
<path d="M412.779 254.593L412.389 254.168C412.069 253.82 411.545 253.812 411.217 254.152L401.809 263.906C401.481 264.245 401.474 264.803 401.794 265.152L402.184 265.577C402.503 265.925 403.028 265.932 403.355 265.593L412.764 255.839C413.092 255.5 413.098 254.942 412.779 254.593Z" fill="#A6A6A6"/>
<path d="M405.276 260.405L404.807 260.892L406.353 262.579L406.822 262.093L405.276 260.405Z" fill="#263238"/>
<path d="M450.328 294.762C446.147 293.225 442.428 291.914 439.866 291.115C432.086 288.924 425.387 283.654 421.139 276.384C417.132 270.115 396.613 263.395 406.593 256.798C416.573 250.201 434.452 266.345 436.186 263.559C436.488 262.556 436.433 261.469 436.032 260.506C438.325 265.546 447.052 284.723 450.328 294.762Z" fill="#D3766A"/>
<path d="M558.753 244.029L600.233 261.71C600.233 261.71 613.334 242.308 619.153 230.466C626.859 214.813 623.199 208.114 604.221 215.94C591.506 221.185 558.753 244.029 558.753 244.029Z" fill="url(#paint7_linear_692_1770)"/>
<path d="M595.18 259.56C596.9 260.151 598.592 260.835 600.247 261.609C601.75 259.293 603.195 256.937 604.717 254.643C605.468 253.475 606.239 252.348 607.029 251.221C607.819 250.095 608.821 248.517 609.591 247.411C609.726 247.247 609.938 247.411 609.822 247.575C608.955 249.111 608.281 250.217 607.51 251.549C606.74 252.881 606.123 253.885 605.41 255.032C603.869 257.47 602.328 260.133 600.69 262.469C598.779 261.709 596.919 260.812 595.122 259.785L595.18 259.56Z" fill="#263238"/>
<path d="M564.478 241.635C570.682 243.684 576.847 245.978 582.935 248.498C585.966 249.741 588.978 251.046 591.971 252.412C594.957 253.743 597.751 255.423 600.834 256.735C600.988 256.735 600.834 257.083 600.718 257.001C597.77 255.546 594.63 254.481 591.624 253.19L582.569 249.338C576.519 246.818 570.47 244.278 564.362 241.901C564.189 241.84 564.343 241.574 564.478 241.635Z" fill="#263238"/>
<path d="M572.617 349.157L690.45 359.278C690.45 359.278 660.298 249.955 636.003 222.358C624.945 209.799 614.155 211.704 604.985 219.797C602.711 221.846 574.39 260.035 571.981 273.352C569.862 285.132 578.859 298.204 578.859 298.204L572.617 349.157Z" fill="url(#paint8_linear_692_1770)"/>
<path d="M589.998 240.06C586.453 246.083 582.6 251.881 579.017 257.884C577.183 260.817 575.522 263.869 574.046 267.021C572.532 270.165 571.702 273.632 571.619 277.163C571.426 275.381 571.485 273.579 571.792 271.816C572.123 270.048 572.634 268.324 573.314 266.673C574.696 263.411 576.313 260.267 578.15 257.269C579.845 254.544 581.579 251.82 583.39 249.197C583.679 248.255 584.045 247.333 584.373 246.411C584.937 245.078 585.58 243.784 586.299 242.539C585.939 243.939 585.482 245.308 584.931 246.636L584.469 247.763C586.229 245.127 588.072 242.559 589.998 240.06Z" fill="#263238"/>
<path d="M666.948 286.032C662.319 288.118 657.512 289.731 652.595 290.847C651.147 291.134 649.667 291.196 648.202 291.031C646.708 290.89 645.299 290.228 644.195 289.146C642.241 286.767 641.047 283.79 640.785 280.644C640.336 277.035 640.06 273.404 639.956 269.765C639.967 269.588 639.967 269.41 639.956 269.232C639.956 266.856 639.744 264.479 639.513 262.123C639.272 259.059 638.756 256.027 637.972 253.067C637.24 250.08 635.927 247.288 634.119 244.872C632.305 242.492 629.913 240.685 627.202 239.648C624.453 238.714 621.567 238.325 618.686 238.501C614.694 238.731 610.725 239.299 606.818 240.201H606.394L601.501 241.307C596.819 242.352 592.137 243.356 587.359 244.012C587.455 243.868 587.552 243.725 587.629 243.582C592.272 243.008 596.838 241.943 601.424 240.898L606.529 239.75H606.934C610.792 238.828 614.717 238.252 618.667 238.029C621.605 237.856 624.548 238.245 627.356 239.177C630.15 240.249 632.619 242.103 634.504 244.545C636.344 246.991 637.689 249.816 638.454 252.842C639.243 255.835 639.76 258.902 639.995 262C640.207 264.233 640.322 266.466 640.419 268.7C640.419 268.884 640.419 269.068 640.419 269.232C640.504 272.994 640.774 276.748 641.228 280.48C641.483 283.51 642.629 286.377 644.503 288.675C646.584 290.847 649.801 290.724 652.576 290.294C657.47 289.196 662.256 287.612 666.871 285.561L666.948 286.032ZM597.127 339.546C595.075 337.225 592.372 335.672 589.421 335.121C587.919 334.997 586.421 335.407 585.163 336.289C583.924 337.136 582.802 338.164 581.83 339.341C579.328 342.463 577.103 345.824 575.183 349.38H575.568C577.461 345.905 579.647 342.621 582.099 339.567C584.026 337.354 586.492 335.162 589.382 335.469C592.22 336.031 594.813 337.546 596.78 339.792C600.634 343.582 603.793 347.987 607.358 352.085H608.032C604.391 348.049 601.077 343.398 597.127 339.546ZM679.24 322.091L678.007 322.193C672.176 323.178 666.784 326.088 662.594 330.511C658.355 334.763 654.426 339.352 650.842 344.238C647.933 347.946 645.062 351.716 641.844 355.097H642.403C645.543 351.737 648.318 348.069 651.15 344.443C654.719 339.575 658.621 334.993 662.825 330.737C666.961 326.392 672.268 323.527 678.007 322.541L679.337 322.439L679.24 322.091ZM656.217 258.763C650.719 260.059 645.696 263.036 641.767 267.327C641.286 267.798 640.823 268.29 640.361 268.782L639.937 269.232C636.469 273.023 633.386 277.202 630.304 281.32C627.491 285.09 624.717 288.901 621.576 292.363L621.21 292.752C620.459 293.592 619.65 294.412 618.821 295.211C616.704 297.295 614.25 298.954 611.577 300.107C608.868 301.145 605.946 301.386 603.119 300.804C600.295 300.173 597.621 298.939 595.258 297.178C592.874 295.438 590.654 293.454 588.631 291.257C584.469 286.954 580.924 282.058 576.493 277.919C575.089 276.549 573.506 275.404 571.792 274.518V274.969C573.441 275.807 574.961 276.905 576.3 278.226C580.616 282.324 584.219 287.241 588.361 291.605C590.411 293.823 592.656 295.826 595.066 297.587C597.472 299.405 600.208 300.668 603.1 301.296C606.01 301.9 609.02 301.653 611.808 300.579C614.529 299.398 617.024 297.696 619.168 295.559C620.073 294.678 620.96 293.777 621.788 292.855L622.154 292.465C625.217 289.023 627.934 285.274 630.689 281.586C633.609 277.476 636.728 273.531 640.033 269.765C640.165 269.605 640.306 269.454 640.457 269.314C640.977 268.741 641.517 268.167 642.076 267.614C645.954 263.336 650.934 260.371 656.39 259.091L656.217 258.763ZM643.732 299.841C641.731 297.513 639.087 295.92 636.18 295.293C631.537 293.961 626.778 293.367 622.096 292.465H621.576L619.033 291.912C616.192 291.305 613.412 290.414 610.729 289.249C608.05 288.11 605.618 286.402 603.581 284.229C601.573 282.034 600.161 279.301 599.497 276.321C598.944 273.307 598.912 270.21 599.401 267.183C600.471 261.12 602.024 255.164 604.044 249.38C604.969 246.409 605.97 243.418 606.76 240.385L606.876 239.935C607.663 237.168 608.306 234.357 608.803 231.514C609.717 226.776 609.658 221.884 608.629 217.173L608.34 217.357C609.326 222.014 609.359 226.842 608.437 231.514C607.94 234.411 607.297 237.276 606.51 240.099C606.454 240.245 606.408 240.396 606.375 240.549C605.547 243.479 604.622 246.409 603.697 249.318C601.666 255.131 600.094 261.114 598.996 267.204C598.498 270.285 598.531 273.437 599.092 276.505C599.757 279.592 601.203 282.426 603.273 284.701C605.357 286.924 607.849 288.667 610.594 289.822C613.301 290.994 616.108 291.886 618.975 292.486C619.727 292.67 620.497 292.834 621.249 292.978L621.769 293.08C626.566 294.022 631.402 294.596 636.103 295.928C638.934 296.515 641.513 298.051 643.463 300.312C645.254 302.771 644.831 306.172 644.06 309.04C642.163 314.879 639.77 320.523 636.912 325.901C634.11 331.332 631.732 336.999 629.803 342.845C628.865 345.788 628.39 348.875 628.396 351.982C628.419 352.724 628.49 353.464 628.608 354.195H628.878C628.743 353.459 628.666 352.712 628.647 351.962C628.649 348.88 629.13 345.82 630.073 342.906C632.016 337.083 634.4 331.437 637.201 326.024C640.073 320.63 642.485 314.974 644.407 309.122C644.84 307.628 645.074 306.076 645.1 304.512C645.158 302.832 644.668 301.181 643.713 299.841H643.732Z" fill="white"/>
<path d="M610.471 295.555C605.895 295.691 601.335 296.198 596.83 297.071C594.595 297.521 592.399 298.095 590.203 298.71C589.105 299.017 588.006 299.283 586.908 299.55C585.754 299.857 584.571 300.022 583.382 300.041C583.286 300.041 583.267 300.205 583.382 300.205C584.495 300.335 585.615 300.383 586.735 300.349C587.822 300.286 588.903 300.142 589.971 299.919C592.226 299.468 594.48 298.915 596.753 298.443C601.32 297.501 605.886 296.538 610.51 295.944C610.547 295.927 610.579 295.897 610.6 295.859C610.621 295.822 610.63 295.778 610.625 295.734C610.621 295.691 610.604 295.65 610.576 295.618C610.548 295.585 610.511 295.563 610.471 295.555V295.555Z" fill="#263238"/>
<path d="M621.476 300.538C617.751 299.89 613.994 299.466 610.224 299.268C608.298 299.166 606.371 299.268 604.56 299.268L601.863 299.412C600.861 299.412 599.936 299.698 598.896 299.76V299.924C599.82 299.924 600.822 300.047 601.708 300.088H604.521L610.166 300.293C614.02 300.395 617.699 300.538 621.456 300.764C621.668 300.887 621.668 300.579 621.476 300.538Z" fill="#263238"/>
<path d="M620.572 216.62C620.687 218.874 615.004 235.612 605.775 238.009C602.77 238.788 598.069 221.516 598.069 221.516L597.452 220.328L588.744 203.672L604.716 184.044L607.066 181.36C607.066 181.36 609.166 186.093 611.729 192.014C611.844 192.28 611.979 192.547 612.095 192.854C612.21 193.161 612.403 193.489 612.518 193.796C612.923 194.677 613.308 195.579 613.694 196.48C614.079 197.382 614.272 197.833 614.541 198.529C614.811 199.226 615.119 199.963 615.428 200.701C617.472 205.88 619.19 211.198 620.572 216.62V216.62Z" fill="#D3766A"/>
<path d="M611.698 192.014C611.393 197.552 609.957 202.954 607.492 207.843C605.027 212.733 601.59 216.993 597.421 220.328L588.713 203.672L604.685 184.044L607.035 181.36C607.035 181.36 609.135 186.093 611.698 192.014Z" fill="#263238"/>
<path d="M559.205 178.508C560.226 211.924 579.165 215.059 585.947 214.813C592.093 214.608 613.035 213.03 615.27 179.656C617.505 146.281 602.554 136.222 588.471 135.935C574.387 135.648 558.184 145.073 559.205 178.508Z" fill="#D3766A"/>
<path d="M563.487 172.565C564.198 172.418 564.9 172.22 565.587 171.971C566.355 171.884 567.07 171.515 567.61 170.926C567.764 170.72 567.849 170.463 567.849 170.199C567.849 169.935 567.764 169.678 567.61 169.472C567.234 169.135 566.781 168.909 566.297 168.819C565.813 168.729 565.315 168.778 564.854 168.96C563.859 169.173 562.974 169.772 562.369 170.64C562.255 170.84 562.195 171.069 562.195 171.304C562.196 171.538 562.258 171.767 562.373 171.966C562.489 172.166 562.654 172.327 562.85 172.433C563.047 172.539 563.267 172.584 563.487 172.565V172.565Z" fill="#263238"/>
<path d="M585.028 171.303C584.303 171.229 583.583 171.112 582.87 170.955C582.1 170.943 581.355 170.662 580.75 170.156C580.602 169.946 580.521 169.691 580.521 169.429C580.521 169.166 580.602 168.911 580.75 168.701C581.088 168.317 581.516 168.034 581.99 167.883C582.464 167.732 582.967 167.717 583.448 167.841C584.46 167.94 585.401 168.436 586.088 169.234C586.239 169.429 586.332 169.669 586.355 169.921C586.377 170.173 586.328 170.426 586.215 170.649C586.101 170.871 585.927 171.052 585.715 171.169C585.504 171.286 585.264 171.332 585.028 171.303V171.303Z" fill="#263238"/>
<path d="M580.469 179.742C580.469 179.742 580.643 179.742 580.643 179.947C580.643 182.221 581.009 184.823 582.955 185.52C582.955 185.52 582.955 185.663 582.955 185.643C580.566 185.376 580.123 181.914 580.469 179.742Z" fill="#263238"/>
<path d="M582.295 177.304C585.724 176.915 586.148 184.25 583.027 184.618C579.905 184.987 579.404 177.632 582.295 177.304Z" fill="#263238"/>
<path d="M583.644 177.592C584.279 177.961 584.915 178.658 585.57 178.678C586.225 178.699 586.996 177.879 587.497 177.101C587.497 177.101 587.613 177.101 587.632 177.101C587.747 178.514 587.324 179.989 585.917 180.297C584.511 180.604 583.644 179.416 583.22 178.023C583.258 177.859 583.432 177.449 583.644 177.592Z" fill="#263238"/>
<path d="M568.599 180.149C568.599 180.149 568.445 180.272 568.445 180.375C568.696 182.628 568.599 185.271 566.73 186.173V186.316C569.081 185.763 569.158 182.26 568.599 180.149Z" fill="#263238"/>
<path d="M566.472 177.938C563.023 177.938 563.293 185.293 566.472 185.293C569.651 185.293 569.381 177.938 566.472 177.938Z" fill="#263238"/>
<path d="M565.042 178.487C564.522 178.897 564.001 179.614 563.346 179.696C562.691 179.778 562.017 178.999 561.42 178.262H561.323C561.323 179.675 561.824 181.11 563.096 181.335C564.367 181.56 565.022 180.29 565.331 178.876C565.466 178.692 565.254 178.323 565.042 178.487Z" fill="#263238"/>
<path d="M573.448 195.188C574.359 196.452 575.56 197.446 576.935 198.077C577.695 198.399 578.532 198.457 579.324 198.24C581.039 197.769 581.097 196.089 580.788 194.635C580.615 193.874 580.356 193.138 580.018 192.442C578.161 194.082 575.858 195.044 573.448 195.188Z" fill="#263238"/>
<path d="M576.945 198.079C577.705 198.402 578.542 198.459 579.334 198.243C581.049 197.771 581.107 196.091 580.798 194.637C579.887 194.671 579.013 195.028 578.314 195.652C577.616 196.275 577.134 197.13 576.945 198.079V198.079Z" fill="#FF9CBD"/>
<path d="M572.532 190.723C572.532 190.723 572.282 194.145 572.378 195.743C572.378 195.886 572.744 195.948 573.264 195.948C574.57 196.121 575.895 195.908 577.095 195.334C578.294 194.759 579.322 193.845 580.065 192.69C580.162 192.526 579.95 192.362 579.834 192.465C577.989 193.982 575.731 194.823 573.399 194.862C573.264 194.432 574.016 189.023 573.784 189.023C572.624 189.208 571.49 189.553 570.413 190.047C570.74 182.917 572.147 175.87 572.339 168.761C572.339 168.706 572.319 168.654 572.283 168.616C572.247 168.577 572.198 168.556 572.147 168.556C572.096 168.556 572.047 168.577 572.01 168.616C571.974 168.654 571.954 168.706 571.954 168.761C570.219 176.247 569.193 183.9 568.891 191.604C568.91 192.424 571.954 191.031 572.532 190.723Z" fill="#263238"/>
<path d="M613.05 182.321C609.62 182.096 600.758 172.078 600.546 154.499C600.546 154.499 601.76 170.254 602.858 172.569C603.956 174.884 597.906 166.915 597.56 152.757C593.355 155.936 588.741 158.455 583.861 160.236C577.561 162.079 573.708 161.998 573.265 161.526C572.822 161.055 582.089 157.961 584.593 154.909C584.593 154.909 567.832 163.104 560.125 163.719C559.239 163.719 558.198 144.255 570.182 136.039C582.166 127.824 601.008 136.818 606.056 142.063C606.056 142.063 612.009 142.985 618.464 152.307C624.918 161.629 616.73 182.567 613.05 182.321Z" fill="#263238"/>
<path d="M584.593 190.622C581.982 190.388 579.566 189.06 577.875 186.932C576.185 184.804 575.358 182.048 575.577 179.272V179.272C575.735 177.317 576.406 175.449 577.514 173.88C578.621 172.311 580.12 171.103 581.84 170.394C583.56 169.685 585.433 169.504 587.245 169.87C589.058 170.236 590.737 171.136 592.093 172.466C593.449 173.796 594.427 175.504 594.916 177.396C595.404 179.288 595.385 181.288 594.858 183.168C594.332 185.048 593.32 186.734 591.938 188.034C590.556 189.333 588.859 190.194 587.04 190.52C586.23 190.646 585.41 190.68 584.593 190.622V190.622ZM576.887 179.395C576.725 181.19 577.068 182.995 577.873 184.582C578.678 186.169 579.908 187.465 581.408 188.307C582.907 189.149 584.607 189.498 586.294 189.31C587.98 189.122 589.575 188.405 590.878 187.251C592.18 186.097 593.131 184.557 593.609 182.827C594.087 181.098 594.071 179.256 593.562 177.536C593.054 175.816 592.076 174.295 590.754 173.167C589.431 172.039 587.823 171.354 586.134 171.2C585.424 171.107 584.706 171.107 583.996 171.2C582.11 171.541 580.386 172.544 579.098 174.047C577.81 175.551 577.031 177.469 576.887 179.497V179.395Z" fill="url(#paint9_linear_692_1770)"/>
<path d="M563.778 191.619C559.732 191.845 556.226 187.296 555.956 181.519C555.789 178.908 556.395 176.307 557.69 174.082C558.193 173.09 558.928 172.253 559.825 171.652C560.722 171.051 561.749 170.707 562.808 170.654C563.867 170.6 564.92 170.839 565.867 171.346C566.813 171.853 567.62 172.612 568.209 173.549C569.712 175.622 570.561 178.145 570.637 180.761C570.887 186.231 568.151 190.882 564.414 191.558C564.204 191.599 563.991 191.619 563.778 191.619ZM558.807 174.86C557.659 176.835 557.12 179.141 557.266 181.457C557.497 186.456 560.387 190.39 563.72 190.226C567.053 190.062 569.5 185.842 569.327 180.822C569.252 178.501 568.505 176.262 567.188 174.41C566.699 173.677 566.052 173.081 565.301 172.671C564.55 172.261 563.717 172.049 562.872 172.054H562.372C561.626 172.23 560.923 172.571 560.309 173.054C559.695 173.538 559.183 174.153 558.807 174.86Z" fill="url(#paint10_linear_692_1770)"/>
<path d="M575.92 180.476L576.71 179.349C575.169 178.099 571.624 176.481 569.331 179.349L570.352 180.25C572.433 177.689 575.92 180.353 575.92 180.476Z" fill="url(#paint11_linear_692_1770)"/>
<path d="M620.032 180.885L621.169 180.168C620.861 179.615 618.067 174.636 615.1 174.288C612.133 173.939 594.736 176.644 593.907 176.746L594.1 178.139C599.148 177.361 612.73 175.415 614.869 175.681C617.008 175.947 619.281 179.492 620.032 180.885Z" fill="url(#paint12_linear_692_1770)"/>
<path d="M615.757 191.995C615.312 192.245 614.84 192.438 614.351 192.569C613.876 192.72 613.383 192.796 612.887 192.794C612.225 192.821 611.566 192.688 610.96 192.405C610.496 192.198 610.061 191.922 609.669 191.586C609.113 191.105 608.643 190.522 608.282 189.865L609.014 180.788C609.014 180.788 614.679 169.541 619.379 171.569C624.08 173.597 620.728 189.27 615.757 191.995Z" fill="#D3766A"/>
<path d="M618.329 176.035C618.329 176.035 618.445 176.138 618.329 176.179C614.861 178.227 613.358 182.038 612.434 185.931C612.602 185.518 612.852 185.148 613.167 184.847C613.483 184.547 613.856 184.323 614.261 184.19C614.665 184.058 615.092 184.02 615.512 184.08C615.932 184.14 616.334 184.296 616.692 184.538C616.788 184.538 616.692 184.763 616.692 184.763C616.028 184.621 615.34 184.705 614.725 185.003C614.109 185.301 613.597 185.798 613.262 186.423C612.693 187.458 612.234 188.557 611.894 189.701C611.759 190.069 611.143 189.967 611.22 189.557C610.623 184.538 613.397 177.162 618.329 176.035Z" fill="#263238"/>
<path d="M615.126 190.638C615.112 190.842 615.059 191.041 614.972 191.223C614.884 191.405 614.763 191.566 614.616 191.698C614.469 191.83 614.298 191.929 614.115 191.989C613.931 192.05 613.738 192.071 613.547 192.052C613.164 192.019 612.808 191.826 612.559 191.515C612.31 191.204 612.187 190.8 612.218 190.392C612.248 189.985 612.43 189.607 612.722 189.342C613.015 189.077 613.395 188.946 613.778 188.979C613.969 188.991 614.157 189.045 614.329 189.136C614.501 189.226 614.654 189.353 614.78 189.507C614.905 189.662 615 189.841 615.06 190.036C615.119 190.23 615.142 190.435 615.126 190.638V190.638Z" fill="white"/>
<path d="M617.863 187.935C617.848 188.149 617.773 188.353 617.648 188.522C617.523 188.69 617.354 188.816 617.163 188.883C616.971 188.949 616.765 188.954 616.571 188.896C616.376 188.839 616.203 188.721 616.071 188.558C615.94 188.396 615.856 188.195 615.832 187.982C615.807 187.769 615.843 187.554 615.933 187.362C616.024 187.17 616.166 187.012 616.342 186.906C616.517 186.8 616.718 186.752 616.919 186.767C617.055 186.775 617.187 186.812 617.308 186.875C617.43 186.939 617.538 187.028 617.626 187.137C617.714 187.246 617.781 187.373 617.822 187.51C617.862 187.647 617.877 187.792 617.863 187.935V187.935Z" fill="white"/>
<path d="M641.453 228.343C662.878 263.643 691.064 322.71 675.728 334.039C650.489 352.663 580.437 358.625 564.408 359.28C557.491 359.567 547.395 310.806 552.443 305.049C557.491 299.292 630.915 301.218 631.782 296.485C632.283 293.801 628.102 270.097 623.15 240.595C617.39 206.585 635.25 218.242 641.453 228.343Z" fill="#D3766A"/>
<path d="M564.68 302.158C564.68 302.158 543.718 300.109 530.001 299.576C522.294 299.249 509.097 299.904 503.355 302.404C494.762 306.153 460.969 327.604 465.747 336.414C470.025 344.383 496.785 322.072 496.785 322.072C496.785 322.072 467.886 342.089 474.706 350.755C481.527 359.422 508.538 329.714 508.538 329.714C508.538 329.714 479.292 350.981 487.615 358.663C493.915 364.462 519.866 339.2 519.866 339.2C519.866 339.2 494.82 357.639 501.082 363.929C507.979 370.854 533.295 349.116 533.295 349.116C551.675 362.208 565.451 360.466 575.122 357.967C577.453 357.373 564.68 302.158 564.68 302.158Z" fill="#D3766A"/>
<path d="M506.302 314.429C502.835 316.663 499.309 318.875 496.034 321.416C492.758 323.956 489.56 326.62 486.516 329.467C482.474 333.108 478.84 337.233 475.688 341.76C481.834 334.159 493.433 324.878 496.708 322.338C499.983 319.797 503.143 317.072 506.341 314.532C506.476 314.491 506.399 314.388 506.302 314.429Z" fill="#263238"/>
<path d="M515.093 326.843C510.777 329.876 506.385 332.723 502.185 335.981C497.985 339.239 494.324 342.66 490.374 346.225C490.066 346.491 490.374 346.573 490.625 346.225C494.69 342.885 498.717 340.079 502.84 336.821C506.963 333.563 510.951 330.04 515.17 326.905C515.247 327.007 515.17 326.802 515.093 326.843Z" fill="#263238"/>
<path d="M524.518 336.046C517.783 340.538 511.501 345.756 505.772 351.617C505.483 351.904 505.772 351.965 506.118 351.617C512.264 346.331 517.043 342.11 524.653 336.21C524.768 336.21 524.653 335.964 524.518 336.046Z" fill="#263238"/>
<path d="M568.665 301.415C563.791 300.964 558.493 301.23 553.483 301.025C549.11 300.841 545.006 300.226 540.748 299.919C532.021 299.304 519.132 298.444 510.462 299.919C504.162 300.984 496.378 306.434 491.947 308.647C491.754 308.749 491.947 309.036 492.101 308.975C500.405 305.799 505.414 302.009 512.928 300.779C521.579 299.448 544.159 301.251 552.848 301.783C557.934 302.091 563.56 301.538 568.646 301.783C568.675 301.8 568.707 301.809 568.739 301.809C568.772 301.809 568.804 301.8 568.832 301.783C568.861 301.766 568.885 301.742 568.902 301.713C568.919 301.683 568.929 301.65 568.931 301.615C568.933 301.581 568.927 301.546 568.912 301.515C568.898 301.484 568.877 301.457 568.85 301.437C568.824 301.417 568.793 301.404 568.76 301.4C568.728 301.396 568.695 301.401 568.665 301.415V301.415Z" fill="#263238"/>
<path d="M668.785 273.147L624.261 269.05C624.261 269.05 620.773 245.448 620.581 232.171C620.33 214.511 626.361 210.27 640.078 226.332C649.172 237.068 668.785 273.147 668.785 273.147Z" fill="url(#paint13_linear_692_1770)"/>
<path d="M629.679 269.638C629.216 269.494 624.65 268.92 624.303 268.982C623.976 266.196 623.667 263.409 623.282 260.623C623.089 259.23 622.897 257.837 622.665 256.525C622.434 255.214 622.203 253.247 621.972 251.895C621.972 251.69 621.683 251.711 621.702 251.895C621.818 253.678 621.972 254.989 622.087 256.546C622.203 258.103 622.338 259.291 622.492 260.643C622.839 263.553 623.089 266.667 623.571 269.535C625.598 269.777 627.639 269.866 629.679 269.801C629.679 269.801 629.756 269.638 629.679 269.638Z" fill="#263238"/>
<path d="M664.589 268.247C658.135 267.182 651.7 266.198 645.207 265.543C641.97 265.215 638.734 264.949 635.574 264.703C632.414 264.457 629.043 264.703 625.825 264.334C625.632 264.334 625.632 264.621 625.825 264.641C629.062 264.641 632.318 265.297 635.555 265.584C638.791 265.871 642.047 266.157 645.188 266.485C651.642 267.12 658.116 267.755 664.57 268.534C664.82 268.575 664.82 268.268 664.589 268.247Z" fill="#263238"/>
<path d="M777.077 353.319H128.187V377.864H777.077V353.319Z" fill="#37474F"/>
<path d="M753.886 377.865H151.446V402.389H753.886V377.865Z" fill="#455A64"/>
<path d="M151.493 746.705H142.168L169.314 402.408H193.127L151.493 746.705Z" fill="#455A64"/>
<path d="M193.088 402.408L190.294 425.436H167.464L169.275 402.408H193.088Z" fill="#263238"/>
<path d="M753.819 746.705H763.144L735.998 402.408H712.185L753.819 746.705Z" fill="#455A64"/>
<path d="M712.185 402.408L714.978 425.436H737.809L735.998 402.408H712.185Z" fill="#263238"/>
<path d="M291.411 353.315H425.254L392.752 258.334H258.908L291.411 353.315Z" fill="#A6A6A6"/>
<path d="M286.624 353.315H420.468L387.965 258.334H254.122L286.624 353.315Z" fill="url(#paint14_linear_692_1770)"/>
<path d="M254.119 258.334L286.641 353.315H340.779L266.662 258.334H254.119Z" fill="#D9D9D9"/>
<path d="M262.785 353.315H279.084L293.688 326.374H277.408L262.785 353.315Z" fill="#263238"/>
<path d="M293.685 326.374V353.315H279.081L293.685 326.374Z" fill="#D9D9D9"/>
<path d="M354.167 353.315H370.447L385.07 326.374H368.79L354.167 353.315Z" fill="#263238"/>
<path d="M385.095 326.374V353.315H370.472L385.095 326.374Z" fill="#D9D9D9"/>
<path d="M588.598 348.156H480.417V353.319H588.598V348.156Z" fill="#C7C7C7"/>
<path d="M534.864 348.156H480.417V353.319H534.864V348.156Z" fill="#A6A6A6"/>
<path d="M528.999 353.316H423.574L409.779 277.163H515.224L528.999 353.316Z" fill="#D9D9D9"/>
<path d="M475.739 315.248C475.829 316.111 475.746 316.983 475.496 317.809C475.246 318.634 474.834 319.394 474.288 320.039C473.743 320.683 473.074 321.197 472.328 321.548C471.582 321.898 470.775 322.076 469.959 322.071C468.212 322.04 466.537 321.328 465.251 320.071C463.966 318.813 463.159 317.097 462.985 315.248C462.892 314.385 462.973 313.51 463.221 312.682C463.47 311.854 463.881 311.091 464.427 310.444C464.973 309.798 465.642 309.282 466.39 308.93C467.138 308.579 467.947 308.4 468.765 308.405C470.513 308.441 472.188 309.158 473.474 310.419C474.759 311.68 475.565 313.398 475.739 315.248V315.248Z" fill="#A6A6A6"/>
<path d="M207.896 340.716L204.428 340.245L222.288 195.847L287.08 158.026L288.757 161.284L225.524 198.203L207.896 340.716Z" fill="#263238"/>
<path d="M218.959 197.01C218.959 198.048 219.248 199.062 219.79 199.924C220.332 200.787 221.102 201.459 222.004 201.856C222.905 202.253 223.897 202.357 224.853 202.154C225.81 201.952 226.689 201.453 227.379 200.719C228.068 199.986 228.538 199.051 228.728 198.034C228.919 197.016 228.821 195.962 228.448 195.003C228.074 194.045 227.442 193.226 226.631 192.65C225.82 192.073 224.867 191.766 223.891 191.766C222.583 191.766 221.329 192.318 220.404 193.302C219.479 194.285 218.959 195.619 218.959 197.01Z" fill="url(#paint15_linear_692_1770)"/>
<path d="M282.33 159.661C282.33 160.698 282.619 161.712 283.161 162.575C283.703 163.437 284.474 164.11 285.375 164.507C286.276 164.904 287.268 165.008 288.224 164.805C289.181 164.603 290.06 164.103 290.75 163.37C291.44 162.636 291.909 161.702 292.1 160.684C292.29 159.667 292.192 158.612 291.819 157.654C291.446 156.695 290.814 155.876 290.002 155.3C289.191 154.724 288.238 154.416 287.262 154.416C285.954 154.416 284.7 154.969 283.775 155.952C282.85 156.936 282.33 158.27 282.33 159.661Z" fill="url(#paint16_linear_692_1770)"/>
<path d="M320.402 164.455L297.225 191.97L286.513 177.916L280.001 169.352L297.379 148.741L306.107 154.703L320.402 164.455Z" fill="url(#paint17_linear_692_1770)"/>
<path opacity="0.1" d="M320.361 164.452L297.184 191.967L286.472 177.913L306.066 154.7L320.361 164.452Z" fill="black"/>
<path d="M354.016 178.037L313.595 225.999L286.757 189.592L317.044 153.636L354.016 178.037Z" fill="url(#paint18_linear_692_1770)"/>
<path d="M237.906 353.309H178.104L181.764 333.333H234.226L237.906 353.309Z" fill="url(#paint19_linear_692_1770)"/>
<path d="M208.745 292.961V256.759H88.9855V292.961H208.745Z" fill="#EBEBEB"/>
<path d="M204.984 288.449V261.262H188.415V288.449H204.984Z" fill="url(#paint20_linear_692_1770)"/>
<path opacity="0.8" d="M184.889 288.449V261.262H168.32V288.449H184.889Z" fill="url(#paint21_linear_692_1770)"/>
<path opacity="0.6" d="M164.848 288.475V261.288H148.279V288.475H164.848Z" fill="url(#paint22_linear_692_1770)"/>
<path opacity="0.4" d="M144.746 288.449V261.262H128.177V288.449H144.746Z" fill="url(#paint23_linear_692_1770)"/>
<path opacity="0.2" d="M124.689 288.449V261.262H108.12V288.449H124.689Z" fill="url(#paint24_linear_692_1770)"/>
<g opacity="0.2">
<path opacity="0.2" d="M204.984 288.449V261.262H188.415V288.449H204.984Z" fill="black"/>
<path opacity="0.8" d="M184.889 288.449V261.262H168.32V288.449H184.889Z" fill="black"/>
<path opacity="0.6" d="M164.779 288.472V261.285H148.21V288.472H164.779Z" fill="black"/>
<path opacity="0.4" d="M144.723 288.449V261.262H128.154V288.449H144.723Z" fill="black"/>
<path opacity="0.2" d="M124.621 288.449V261.262H108.052V288.449H124.621Z" fill="black"/>
</g>
<path d="M97.1647 277.162C96.7379 277.162 96.3207 277.027 95.9658 276.775C95.611 276.523 95.3344 276.164 95.1711 275.745C95.0078 275.326 94.965 274.864 95.0483 274.419C95.1316 273.974 95.3371 273.565 95.6389 273.244C95.9406 272.923 96.3251 272.705 96.7437 272.616C97.1623 272.528 97.5962 272.573 97.9904 272.747C98.3847 272.921 98.7217 273.215 98.9589 273.592C99.196 273.969 99.3225 274.413 99.3225 274.867C99.3225 275.476 99.0952 276.059 98.6905 276.49C98.2858 276.92 97.737 277.162 97.1647 277.162Z" fill="#263238"/>
<path d="M188.12 203.705L164.048 178.106L79.3651 268.158L103.438 293.756L188.12 203.705Z" fill="#EBEBEB"/>
<path d="M182.405 203.376L164.327 184.151L152.611 196.61L170.689 215.834L182.405 203.376Z" fill="url(#paint25_linear_692_1770)"/>
<path opacity="0.8" d="M168.247 218.49L150.169 199.266L138.453 211.724L156.531 230.949L168.247 218.49Z" fill="url(#paint26_linear_692_1770)"/>
<path opacity="0.6" d="M153.996 233.589L135.918 214.364L124.202 226.823L142.28 246.048L153.996 233.589Z" fill="url(#paint27_linear_692_1770)"/>
<path opacity="0.4" d="M139.823 248.695L121.745 229.471L110.029 241.93L128.107 261.154L139.823 248.695Z" fill="url(#paint28_linear_692_1770)"/>
<path opacity="0.2" d="M125.664 263.791L107.586 244.566L95.8698 257.025L113.948 276.25L125.664 263.791Z" fill="url(#paint29_linear_692_1770)"/>
<g opacity="0.1">
<path opacity="0.1" d="M182.403 203.375L164.325 184.15L152.609 196.609L170.687 215.833L182.403 203.375Z" fill="black"/>
<path opacity="0.8" d="M168.222 218.492L150.144 199.268L138.427 211.726L156.506 230.951L168.222 218.492Z" fill="black"/>
<path opacity="0.6" d="M153.996 233.588L135.918 214.363L124.202 226.822L142.28 246.047L153.996 233.588Z" fill="black"/>
<path opacity="0.4" d="M139.823 248.684L121.745 229.46L110.029 241.919L128.107 261.143L139.823 248.684Z" fill="black"/>
<path opacity="0.2" d="M125.588 263.784L107.51 244.56L95.7937 257.018L113.872 276.243L125.588 263.784Z" fill="black"/>
</g>
<path d="M98.6894 276.485C98.388 276.808 98.0035 277.027 97.5847 277.117C97.1658 277.206 96.7314 277.161 96.3365 276.988C95.9416 276.815 95.6039 276.521 95.3664 276.143C95.1288 275.765 95.002 275.321 95.002 274.867C95.002 274.413 95.1288 273.969 95.3664 273.591C95.6039 273.213 95.9416 272.919 96.3365 272.746C96.7314 272.572 97.1658 272.528 97.5847 272.617C98.0035 272.707 98.388 272.926 98.6894 273.248C98.8909 273.46 99.0509 273.712 99.1602 273.99C99.2694 274.268 99.3256 274.566 99.3256 274.867C99.3256 275.168 99.2694 275.466 99.1602 275.744C99.0509 276.022 98.8909 276.274 98.6894 276.485Z" fill="#263238"/>
<path d="M114.145 156.141H80.1016V283.493H114.145V156.141Z" fill="#EBEBEB"/>
<path d="M109.918 160.172H84.3516V177.791H109.918V160.172Z" fill="url(#paint30_linear_692_1770)"/>
<path opacity="0.8" d="M109.918 181.547H84.3516V199.166H109.918V181.547Z" fill="url(#paint31_linear_692_1770)"/>
<path opacity="0.6" d="M109.918 202.897H84.3516V220.517H109.918V202.897Z" fill="url(#paint32_linear_692_1770)"/>
<path opacity="0.4" d="M109.918 224.247H84.3516V241.867H109.918V224.247Z" fill="url(#paint33_linear_692_1770)"/>
<path opacity="0.2" d="M109.918 245.587H84.3516V263.206H109.918V245.587Z" fill="url(#paint34_linear_692_1770)"/>
<path d="M100.658 274.87C100.658 275.608 100.452 276.329 100.067 276.942C99.6813 277.555 99.1336 278.033 98.4929 278.315C97.8522 278.598 97.1472 278.671 96.467 278.527C95.7868 278.384 95.162 278.028 94.6716 277.507C94.1812 276.986 93.8472 276.321 93.7119 275.598C93.5766 274.875 93.6461 274.125 93.9115 273.443C94.1768 272.762 94.6263 272.18 95.2029 271.77C95.7796 271.36 96.4575 271.142 97.151 271.142C98.0795 271.147 98.9684 271.542 99.6249 272.24C100.281 272.938 100.652 273.883 100.658 274.87V274.87Z" fill="#263238"/>
<defs>
<linearGradient id="paint0_linear_692_1770" x1="185.366" y1="413.771" x2="185.366" y2="485.297" gradientUnits="userSpaceOnUse">
<stop stop-color="#FFA620"/>
<stop offset="1" stop-color="#F7711A"/>
</linearGradient>
<linearGradient id="paint1_linear_692_1770" x1="88.6625" y1="470.914" x2="88.6625" y2="531.626" gradientUnits="userSpaceOnUse">
<stop stop-color="#FFA620"/>
<stop offset="1" stop-color="#F7711A"/>
</linearGradient>
<linearGradient id="paint2_linear_692_1770" x1="85.1105" y1="393.287" x2="85.1105" y2="488.021" gradientUnits="userSpaceOnUse">
<stop stop-color="#FFA620"/>
<stop offset="1" stop-color="#F7711A"/>
</linearGradient>
<linearGradient id="paint3_linear_692_1770" x1="152.738" y1="382.852" x2="152.738" y2="425.148" gradientUnits="userSpaceOnUse">
<stop stop-color="#FFA620"/>
<stop offset="1" stop-color="#F7711A"/>
</linearGradient>
<linearGradient id="paint4_linear_692_1770" x1="153.183" y1="452.197" x2="153.183" y2="536.336" gradientUnits="userSpaceOnUse">
<stop stop-color="#FFA620"/>
<stop offset="1" stop-color="#F7711A"/>
</linearGradient>
<linearGradient id="paint5_linear_692_1770" x1="528.665" y1="663.604" x2="528.665" y2="748.161" gradientUnits="userSpaceOnUse">
<stop stop-color="#FFA620"/>
<stop offset="1" stop-color="#F7711A"/>
</linearGradient>
<linearGradient id="paint6_linear_692_1770" x1="336.617" y1="604.038" x2="336.617" y2="686.555" gradientUnits="userSpaceOnUse">
<stop stop-color="#FFA620"/>
<stop offset="1" stop-color="#F7711A"/>
</linearGradient>
<linearGradient id="paint7_linear_692_1770" x1="590.841" y1="212.659" x2="590.841" y2="261.71" gradientUnits="userSpaceOnUse">
<stop stop-color="#FFA620"/>
<stop offset="1" stop-color="#F7711A"/>
</linearGradient>
<linearGradient id="paint8_linear_692_1770" x1="631.054" y1="213.331" x2="631.054" y2="359.278" gradientUnits="userSpaceOnUse">
<stop stop-color="#FFA620"/>
<stop offset="1" stop-color="#F7711A"/>
</linearGradient>
<linearGradient id="paint9_linear_692_1770" x1="585.405" y1="169.686" x2="585.405" y2="190.65" gradientUnits="userSpaceOnUse">
<stop stop-color="#FFA620"/>
<stop offset="1" stop-color="#F7711A"/>
</linearGradient>
<linearGradient id="paint10_linear_692_1770" x1="563.291" y1="170.646" x2="563.291" y2="191.627" gradientUnits="userSpaceOnUse">
<stop stop-color="#FFA620"/>
<stop offset="1" stop-color="#F7711A"/>
</linearGradient>
<linearGradient id="paint11_linear_692_1770" x1="573.021" y1="177.749" x2="573.021" y2="180.476" gradientUnits="userSpaceOnUse">
<stop stop-color="#FFA620"/>
<stop offset="1" stop-color="#F7711A"/>
</linearGradient>
<linearGradient id="paint12_linear_692_1770" x1="607.538" y1="174.257" x2="607.538" y2="180.885" gradientUnits="userSpaceOnUse">
<stop stop-color="#FFA620"/>
<stop offset="1" stop-color="#F7711A"/>
</linearGradient>
<linearGradient id="paint13_linear_692_1770" x1="644.679" y1="216.326" x2="644.679" y2="273.147" gradientUnits="userSpaceOnUse">
<stop stop-color="#FFA620"/>
<stop offset="1" stop-color="#F7711A"/>
</linearGradient>
<linearGradient id="paint14_linear_692_1770" x1="337.295" y1="258.334" x2="337.295" y2="353.315" gradientUnits="userSpaceOnUse">
<stop stop-color="#FFA620"/>
<stop offset="1" stop-color="#F7711A"/>
</linearGradient>
<linearGradient id="paint15_linear_692_1770" x1="223.891" y1="191.766" x2="223.891" y2="202.255" gradientUnits="userSpaceOnUse">
<stop stop-color="#FFA620"/>
<stop offset="1" stop-color="#F7711A"/>
</linearGradient>
<linearGradient id="paint16_linear_692_1770" x1="287.262" y1="154.416" x2="287.262" y2="164.906" gradientUnits="userSpaceOnUse">
<stop stop-color="#FFA620"/>
<stop offset="1" stop-color="#F7711A"/>
</linearGradient>
<linearGradient id="paint17_linear_692_1770" x1="300.202" y1="148.741" x2="300.202" y2="191.97" gradientUnits="userSpaceOnUse">
<stop stop-color="#FFA620"/>
<stop offset="1" stop-color="#F7711A"/>
</linearGradient>
<linearGradient id="paint18_linear_692_1770" x1="320.386" y1="153.636" x2="320.386" y2="225.999" gradientUnits="userSpaceOnUse">
<stop stop-color="#FFA620"/>
<stop offset="1" stop-color="#F7711A"/>
</linearGradient>
<linearGradient id="paint19_linear_692_1770" x1="208.005" y1="333.333" x2="208.005" y2="353.309" gradientUnits="userSpaceOnUse">
<stop stop-color="#FFA620"/>
<stop offset="1" stop-color="#F7711A"/>
</linearGradient>
<linearGradient id="paint20_linear_692_1770" x1="204.984" y1="274.855" x2="188.415" y2="274.855" gradientUnits="userSpaceOnUse">
<stop stop-color="#FFA620"/>
<stop offset="1" stop-color="#F7711A"/>
</linearGradient>
<linearGradient id="paint21_linear_692_1770" x1="184.889" y1="274.855" x2="168.32" y2="274.855" gradientUnits="userSpaceOnUse">
<stop stop-color="#FFA620"/>
<stop offset="1" stop-color="#F7711A"/>
</linearGradient>
<linearGradient id="paint22_linear_692_1770" x1="164.848" y1="274.882" x2="148.279" y2="274.882" gradientUnits="userSpaceOnUse">
<stop stop-color="#FFA620"/>
<stop offset="1" stop-color="#F7711A"/>
</linearGradient>
<linearGradient id="paint23_linear_692_1770" x1="144.746" y1="274.855" x2="128.177" y2="274.855" gradientUnits="userSpaceOnUse">
<stop stop-color="#FFA620"/>
<stop offset="1" stop-color="#F7711A"/>
</linearGradient>
<linearGradient id="paint24_linear_692_1770" x1="124.689" y1="274.855" x2="108.12" y2="274.855" gradientUnits="userSpaceOnUse">
<stop stop-color="#FFA620"/>
<stop offset="1" stop-color="#F7711A"/>
</linearGradient>
<linearGradient id="paint25_linear_692_1770" x1="173.366" y1="193.763" x2="160.931" y2="205.457" gradientUnits="userSpaceOnUse">
<stop stop-color="#FFA620"/>
<stop offset="1" stop-color="#F7711A"/>
</linearGradient>
<linearGradient id="paint26_linear_692_1770" x1="159.208" y1="208.878" x2="146.773" y2="220.572" gradientUnits="userSpaceOnUse">
<stop stop-color="#FFA620"/>
<stop offset="1" stop-color="#F7711A"/>
</linearGradient>
<linearGradient id="paint27_linear_692_1770" x1="144.957" y1="223.976" x2="132.522" y2="235.671" gradientUnits="userSpaceOnUse">
<stop stop-color="#FFA620"/>
<stop offset="1" stop-color="#F7711A"/>
</linearGradient>
<linearGradient id="paint28_linear_692_1770" x1="130.784" y1="239.083" x2="118.349" y2="250.777" gradientUnits="userSpaceOnUse">
<stop stop-color="#FFA620"/>
<stop offset="1" stop-color="#F7711A"/>
</linearGradient>
<linearGradient id="paint29_linear_692_1770" x1="116.625" y1="254.179" x2="104.19" y2="265.873" gradientUnits="userSpaceOnUse">
<stop stop-color="#FFA620"/>
<stop offset="1" stop-color="#F7711A"/>
</linearGradient>
<linearGradient id="paint30_linear_692_1770" x1="97.1348" y1="160.172" x2="97.1348" y2="177.791" gradientUnits="userSpaceOnUse">
<stop stop-color="#FFA620"/>
<stop offset="1" stop-color="#F7711A"/>
</linearGradient>
<linearGradient id="paint31_linear_692_1770" x1="97.1348" y1="181.547" x2="97.1348" y2="199.166" gradientUnits="userSpaceOnUse">
<stop stop-color="#FFA620"/>
<stop offset="1" stop-color="#F7711A"/>
</linearGradient>
<linearGradient id="paint32_linear_692_1770" x1="97.1348" y1="202.897" x2="97.1348" y2="220.517" gradientUnits="userSpaceOnUse">
<stop stop-color="#FFA620"/>
<stop offset="1" stop-color="#F7711A"/>
</linearGradient>
<linearGradient id="paint33_linear_692_1770" x1="97.1348" y1="224.247" x2="97.1348" y2="241.867" gradientUnits="userSpaceOnUse">
<stop stop-color="#FFA620"/>
<stop offset="1" stop-color="#F7711A"/>
</linearGradient>
<linearGradient id="paint34_linear_692_1770" x1="97.1348" y1="245.587" x2="97.1348" y2="263.206" gradientUnits="userSpaceOnUse">
<stop stop-color="#FFA620"/>
<stop offset="1" stop-color="#F7711A"/>
</linearGradient>
</defs>
</svg>
