<svg width="414" height="390" viewBox="0 0 414 390" fill="none" xmlns="http://www.w3.org/2000/svg">
<path d="M386.584 246.636H250.883V172.661H386.584V246.636ZM251.711 245.856H385.756V173.441H251.711V245.856Z" fill="#62594E"/>
<path d="M358.59 212.106H269.059V214.578H358.59V212.106Z" fill="#DCDCDC"/>
<path d="M364.759 221.325H269.059V224.024H364.759V221.325Z" fill="#DCDCDC"/>
<path d="M364.759 230.654H269.059V233.353H364.759V230.654Z" fill="#DCDCDC"/>
<path d="M300.349 198.713H269.059V205.132H300.349V198.713Z" fill="#DCDCDC"/>
<path d="M386.169 173.051H251.321V184.829H386.169V173.051Z" fill="#62594E"/>
<path d="M375.797 183.066C375.623 182.91 377.362 180.937 379.672 178.659C381.982 176.381 384.011 174.658 384.177 174.806C384.342 174.954 382.612 176.935 380.301 179.221C377.991 181.506 375.963 183.222 375.797 183.066Z" fill="white"/>
<path d="M384.193 183.066C384.028 183.222 382.007 181.506 379.689 179.221C377.37 176.935 375.64 174.962 375.814 174.806C375.988 174.65 378 176.366 380.318 178.659C382.637 180.952 384.351 182.91 384.193 183.066Z" fill="white"/>
<path d="M219.602 26.5591H84.7539V99.7621H219.602V26.5591Z" fill="#FAF0F0"/>
<path d="M192.03 65.6214H102.498V68.094H192.03V65.6214Z" fill="#DCDCDC"/>
<path d="M198.198 74.8411H102.498V77.5399H198.198V74.8411Z" fill="#DCDCDC"/>
<path d="M198.198 84.17H102.498V86.8688H198.198V84.17Z" fill="#DCDCDC"/>
<path d="M133.788 52.2288H102.498V58.6482H133.788V52.2288Z" fill="#DCDCDC"/>
<path d="M219.602 26.5591H84.7539V38.3371H219.602V26.5591Z" fill="#62594E"/>
<path d="M208.771 36.5198C208.597 36.3716 210.336 34.3904 212.646 32.1128C214.956 29.8352 216.985 28.1114 217.15 28.2674C217.316 28.4234 215.585 30.3968 213.275 32.6744C210.965 34.952 208.936 36.6602 208.771 36.5198Z" fill="white"/>
<path d="M217.15 36.5197C216.985 36.6757 214.964 34.9597 212.646 32.6743C210.327 30.3889 208.597 28.4233 208.771 28.2673C208.945 28.1113 210.957 29.8273 213.275 32.1127C215.594 34.3981 217.324 36.3715 217.15 36.5197Z" fill="white"/>
<path d="M168.531 162.544H32.8545V88.5611H168.531V162.544ZM33.6825 161.764H167.703V89.3411H33.6825V161.764Z" fill="#62594E"/>
<path d="M140.544 128.014H51.0127V130.486H140.544V128.014Z" fill="#DCDCDC"/>
<path d="M146.713 137.233H51.0127V139.932H146.713V137.233Z" fill="#DCDCDC"/>
<path d="M146.713 146.562H51.0127V149.261H146.713V146.562Z" fill="#DCDCDC"/>
<path d="M82.3028 114.621H51.0127V121.041H82.3028V114.621Z" fill="#DCDCDC"/>
<path d="M168.117 88.9511H33.2686V100.729H168.117V88.9511Z" fill="#62594E"/>
<path d="M325.113 179.494H165.889V313.779H325.113V179.494Z" fill="#FAF0F0"/>
<path d="M173.896 137.194H49.166V259.272H173.896V137.194Z" fill="#DCDCDC"/>
<path d="M173.896 137.194H49.166V150.493H173.896V137.194Z" fill="#62594E"/>
<path d="M59.4658 143.707C59.443 144.189 59.2705 144.655 58.9696 145.046C58.6686 145.436 58.2525 145.735 57.7728 145.905C57.2932 146.075 56.7711 146.108 56.2714 146.001C55.7718 145.894 55.3165 145.651 54.9621 145.303C54.6076 144.954 54.3697 144.515 54.2778 144.04C54.1859 143.565 54.244 143.075 54.445 142.631C54.646 142.187 54.981 141.808 55.4084 141.542C55.8358 141.276 56.3368 141.134 56.8493 141.133C57.5579 141.15 58.2309 141.429 58.7211 141.912C59.2114 142.394 59.4791 143.04 59.4658 143.707Z" fill="white"/>
<path d="M70.0901 143.707C70.069 144.192 69.8971 144.66 69.5958 145.053C69.2944 145.446 68.877 145.747 68.3955 145.919C67.9139 146.09 67.3895 146.124 66.8874 146.017C66.3853 145.91 65.9278 145.666 65.5718 145.316C65.2157 144.966 64.9769 144.524 64.885 144.047C64.793 143.57 64.8521 143.078 65.0548 142.632C65.2575 142.186 65.5949 141.807 66.0249 141.54C66.455 141.274 66.9588 141.132 67.4736 141.133C68.1822 141.15 68.8552 141.429 69.3455 141.912C69.8357 142.394 70.1034 143.04 70.0901 143.707Z" fill="white"/>
<path d="M80.7141 143.707C80.693 144.192 80.5211 144.66 80.2198 145.053C79.9185 145.446 79.5011 145.747 79.0195 145.919C78.538 146.09 78.0135 146.124 77.5114 146.017C77.0094 145.91 76.5518 145.666 76.1958 145.316C75.8397 144.966 75.6009 144.524 75.509 144.047C75.4171 143.57 75.4761 143.078 75.6788 142.632C75.8815 142.186 76.2189 141.807 76.649 141.54C77.079 141.274 77.5828 141.132 78.0976 141.133C78.8063 141.15 79.4792 141.429 79.9695 141.912C80.4598 142.394 80.7275 143.04 80.7141 143.707Z" fill="white"/>
<path d="M368.775 53.2585H209.551V202.753H368.775V53.2585Z" fill="#DCDCDC"/>
<path d="M368.775 53.2585H209.551V70.7695H368.775V53.2585Z" fill="#62594E"/>
<path d="M223.111 61.8386C223.082 62.4752 222.855 63.0897 222.458 63.6058C222.062 64.1219 221.513 64.5168 220.88 64.7416C220.247 64.9664 219.558 65.0111 218.898 64.8702C218.239 64.7293 217.637 64.409 217.169 63.949C216.701 63.489 216.387 62.9097 216.265 62.2828C216.144 61.656 216.22 61.0094 216.485 60.4232C216.75 59.837 217.193 59.337 217.757 58.9855C218.321 58.6339 218.982 58.4462 219.659 58.4456C220.593 58.466 221.482 58.8345 222.129 59.4704C222.776 60.1063 223.129 60.9578 223.111 61.8386Z" fill="white"/>
<path d="M236.088 59.5452C236.547 60.0148 236.85 60.6012 236.957 61.2315C237.065 61.8617 236.974 62.5079 236.694 63.0894C236.415 63.671 235.96 64.1623 235.386 64.5021C234.813 64.8418 234.145 65.0151 233.468 65.0002C232.79 64.9853 232.133 64.7829 231.576 64.4183C231.02 64.0537 230.59 63.543 230.34 62.9498C230.09 62.3565 230.03 61.7071 230.169 61.0822C230.308 60.4574 230.639 59.8849 231.12 59.436C231.795 58.831 232.697 58.5028 233.628 58.5233C234.56 58.5438 235.444 58.9112 236.088 59.5452Z" fill="white"/>
<path d="M251.083 61.8386C251.054 62.4752 250.827 63.0897 250.43 63.6058C250.033 64.1219 249.484 64.5168 248.852 64.7416C248.219 64.9664 247.53 65.0111 246.87 64.8702C246.21 64.7293 245.609 64.409 245.141 63.949C244.673 63.489 244.358 62.9097 244.237 62.2828C244.115 61.656 244.192 61.0094 244.457 60.4232C244.722 59.837 245.164 59.337 245.728 58.9855C246.292 58.6339 246.954 58.4462 247.63 58.4456C248.565 58.466 249.453 58.8345 250.1 59.4704C250.747 60.1063 251.101 60.9578 251.083 61.8386Z" fill="white"/>
<path d="M278.358 257.954C265.566 249.538 262.668 233.914 263.173 219.866C263.256 217.526 262.983 215.046 264.167 212.995C265.351 210.943 268.116 209.531 270.343 210.514C272.19 211.333 272.993 213.361 274.028 215.038C275.409 217.272 277.433 219.092 279.865 220.288C281.447 221.068 283.409 221.536 284.974 220.724C287.127 219.609 287.375 216.824 287.359 214.484C287.359 210.132 287.331 205.785 287.276 201.443C287.127 199.111 287.379 196.772 288.021 194.516C288.791 192.301 290.505 190.25 292.848 189.626C295.192 189.002 298.115 190.289 298.644 192.566C298.736 193.531 298.761 194.5 298.719 195.468C298.785 196.443 299.265 197.512 300.234 197.808C301.203 198.104 302.213 197.426 302.958 196.739C305.509 194.399 307.247 191.35 308.862 188.339C310.477 185.328 312.058 182.231 314.376 179.665C316.695 177.099 319.899 175.063 323.484 174.868C327.07 174.673 330.804 176.748 331.698 180.024C332.592 183.3 330.564 186.646 328.386 189.306C325.1 193.254 321.227 196.735 316.885 199.641C316.038 200.077 315.362 200.758 314.956 201.583C314.418 203.143 315.983 204.703 317.614 205.195C319.46 205.772 321.464 205.592 323.41 205.811C325.356 206.029 327.426 206.825 328.163 208.541C329.173 210.928 327.053 213.424 324.975 215.062C320.802 218.338 316.063 220.915 310.965 222.682C309.144 223.306 307.231 223.86 305.757 225.061C304.283 226.262 303.405 228.361 304.291 230.006C305.177 231.652 307.454 232.175 309.367 231.839C311.28 231.504 312.977 230.537 314.799 229.889C318.202 228.68 322.59 228.899 324.735 231.668C325.399 232.622 325.82 233.708 325.963 234.84C326.107 235.973 325.97 237.122 325.563 238.196C324.734 240.335 323.459 242.295 321.812 243.961C316.389 250.064 309.343 254.702 301.393 257.4C293.503 259.974 286.191 260.676 278.35 257.969" fill="#FFA620"/>
<path d="M328.055 176.795C328.055 176.795 327.981 176.873 327.815 177.013L327.078 177.629C326.432 178.175 325.48 178.971 324.279 180.024C320.875 183.001 317.715 186.216 314.824 189.641C312.977 191.802 311.065 194.251 309.028 196.911C306.991 199.571 304.888 202.441 302.801 205.491C300.577 208.707 298.539 212.035 296.699 215.459C295.738 217.246 294.894 219.11 294.024 221.013L291.458 226.824C288.074 234.143 285.127 241.635 282.631 249.265C280.62 255.507 279.234 261.912 278.491 268.398C278.009 272.775 277.932 277.183 278.259 281.572C278.392 283.132 278.516 284.326 278.632 285.137C278.681 285.527 278.715 285.839 278.748 286.065V286.385C278.712 286.283 278.687 286.179 278.673 286.073C278.632 285.847 278.582 285.542 278.516 285.152C278.367 284.372 278.21 283.14 278.06 281.58C277.661 277.182 277.689 272.76 278.143 268.367C278.84 261.853 280.196 255.418 282.192 249.148C284.668 241.497 287.606 233.986 290.994 226.652L293.627 220.865C294.496 218.969 295.349 217.09 296.318 215.296C298.171 211.861 300.225 208.525 302.47 205.304C304.59 202.184 306.726 199.36 308.738 196.724C310.75 194.087 312.696 191.623 314.534 189.47C317.454 186.054 320.657 182.861 324.114 179.923C325.339 178.885 326.316 178.105 326.979 177.583L327.749 176.998C327.843 176.92 327.946 176.852 328.055 176.795Z" fill="#11100A"/>
<path d="M296.427 215.28C296.31 214.959 296.229 214.627 296.186 214.29C296.054 213.642 295.905 212.729 295.731 211.544C295.375 209.204 295.011 205.998 294.621 202.449C294.232 198.9 293.793 195.687 293.429 193.37C293.239 192.216 293.073 191.287 292.957 190.64C292.867 190.309 292.819 189.968 292.816 189.626C292.959 189.938 293.062 190.266 293.123 190.601C293.305 191.241 293.512 192.161 293.744 193.323C294.216 195.663 294.679 198.846 295.069 202.402C295.458 205.959 295.789 209.079 296.046 211.505C296.17 212.597 296.278 213.525 296.36 214.266C296.425 214.6 296.447 214.941 296.427 215.28Z" fill="#11100A"/>
<path d="M328.287 209.68C327.885 209.762 327.474 209.809 327.062 209.82C326.234 209.89 325.058 209.984 323.601 210.14C320.686 210.436 316.679 210.982 312.282 211.762C307.886 212.542 303.936 213.424 301.096 214.102C299.68 214.445 298.537 214.757 297.784 214.968C297.382 215.103 296.965 215.197 296.542 215.249C296.925 215.067 297.324 214.919 297.734 214.804C298.513 214.547 299.639 214.188 301.046 213.806C303.87 213.026 307.819 212.098 312.233 211.302C315.971 210.629 319.743 210.134 323.535 209.82C325 209.703 326.184 209.656 327.012 209.641C327.438 209.613 327.865 209.626 328.287 209.68Z" fill="#11100A"/>
<path d="M282.597 248.602C282.509 248.489 282.436 248.365 282.382 248.235L281.835 247.151C281.363 246.207 280.726 244.811 279.964 243.103C278.424 239.671 276.462 234.866 274.375 229.531C272.288 224.195 270.367 219.391 268.91 215.92C268.198 214.235 267.61 212.854 267.171 211.825L266.708 210.709C266.643 210.581 266.599 210.444 266.575 210.304C266.663 210.416 266.736 210.54 266.79 210.67L267.337 211.754C267.801 212.698 268.446 214.094 269.208 215.803C270.748 219.235 272.711 224.039 274.797 229.375C276.884 234.71 278.805 239.515 280.262 242.986C280.974 244.67 281.562 246.051 281.993 247.081C282.183 247.525 282.34 247.861 282.465 248.196C282.529 248.325 282.573 248.461 282.597 248.602Z" fill="#11100A"/>
<path d="M324.892 235.755C324.76 235.827 324.618 235.882 324.47 235.919L323.245 236.309L318.715 237.689C314.89 238.859 309.607 240.529 303.811 242.369C298.015 244.21 292.708 245.848 288.858 246.94C286.937 247.494 285.372 247.915 284.287 248.196L283.037 248.5C282.892 248.544 282.742 248.572 282.59 248.586C282.722 248.514 282.864 248.459 283.012 248.422L284.238 248.032L288.767 246.652C292.592 245.482 297.875 243.812 303.671 241.972C309.467 240.131 314.766 238.493 318.616 237.401C320.545 236.847 322.102 236.426 323.195 236.145L324.445 235.841C324.591 235.797 324.741 235.769 324.892 235.755Z" fill="#11100A"/>
<path d="M264.04 294.31L181.331 293.951C176.554 293.926 171.984 292.116 168.622 288.919C165.261 285.723 163.385 281.4 163.404 276.9L164.282 81.5803C164.292 79.3511 164.768 77.1455 165.683 75.0897C166.598 73.0339 167.934 71.1682 169.615 69.5992C171.296 68.0301 173.289 66.7886 175.48 65.9454C177.67 65.1023 180.016 64.6742 182.382 64.6855L265.083 65.0443C269.859 65.067 274.431 66.8746 277.793 70.0701C281.156 73.2656 283.035 77.5877 283.017 82.0873L282.14 277.399C282.13 279.629 281.654 281.835 280.739 283.892C279.824 285.949 278.488 287.816 276.807 289.386C275.127 290.956 273.134 292.199 270.943 293.044C268.753 293.889 266.407 294.319 264.04 294.31Z" fill="#455A64"/>
<path d="M264.959 71.76H248.929C248.406 71.7692 247.89 71.8753 247.411 72.0723C246.931 72.2694 246.498 72.5534 246.135 72.9084C245.772 73.2633 245.487 73.6821 245.295 74.1408C245.104 74.5996 245.011 75.0893 245.021 75.582V78.3198C245.031 78.8122 244.938 79.3015 244.746 79.7598C244.555 80.2181 244.27 80.6364 243.907 80.9907C243.544 81.345 243.11 81.6284 242.631 81.8246C242.151 82.0208 241.636 82.1259 241.113 82.134L209.864 82.0014C208.807 81.9749 207.804 81.5542 207.076 80.8317C206.348 80.1093 205.954 79.1441 205.981 78.1482V75.4104C206.008 74.4159 205.615 73.4519 204.888 72.7296C204.162 72.0074 203.161 71.5858 202.106 71.5572H196.467L182.433 71.4948C179.094 71.4761 175.884 72.7042 173.505 74.9103C171.126 77.1163 169.772 80.1205 169.739 83.265L168.911 273.913C168.904 275.473 169.222 277.019 169.849 278.463C170.476 279.907 171.398 281.22 172.564 282.329C173.729 283.437 175.115 284.318 176.642 284.921C178.169 285.525 179.808 285.839 181.464 285.847L263.999 286.205C265.656 286.213 267.298 285.912 268.832 285.321C270.366 284.731 271.761 283.861 272.939 282.762C274.116 281.664 275.052 280.357 275.693 278.918C276.334 277.478 276.668 275.934 276.675 274.373L277.503 83.7252C277.523 80.5718 276.213 77.54 273.861 75.2963C271.509 73.0526 268.307 71.7807 264.959 71.76Z" fill="white"/>
<path d="M253.856 260.77L192.485 260.52C191.847 260.52 191.334 259.865 191.342 259.069L191.408 243.945C191.408 243.165 191.93 242.494 192.567 242.494L253.939 242.759C254.292 242.817 254.608 243.001 254.821 243.273C255.034 243.544 255.127 243.883 255.081 244.218L255.023 259.327C255.023 260.13 254.493 260.777 253.856 260.77Z" fill="#FFA620"/>
<path d="M209.314 255.291V249.599H210.631V254.217H213.485V255.291H209.314ZM216.891 255.388C216.441 255.388 216.023 255.315 215.639 255.169C215.259 255.022 214.928 254.816 214.647 254.551C214.37 254.285 214.153 253.973 213.996 253.615C213.844 253.258 213.768 252.867 213.768 252.445C213.768 252.022 213.844 251.631 213.996 251.274C214.153 250.916 214.373 250.604 214.655 250.339C214.937 250.073 215.267 249.867 215.647 249.721C216.026 249.574 216.438 249.501 216.883 249.501C217.333 249.501 217.745 249.574 218.119 249.721C218.498 249.867 218.826 250.073 219.103 250.339C219.384 250.604 219.604 250.916 219.761 251.274C219.918 251.626 219.997 252.016 219.997 252.445C219.997 252.867 219.918 253.26 219.761 253.624C219.604 253.981 219.384 254.293 219.103 254.559C218.826 254.819 218.498 255.022 218.119 255.169C217.745 255.315 217.335 255.388 216.891 255.388ZM216.883 254.266C217.137 254.266 217.371 254.223 217.582 254.136C217.799 254.049 217.989 253.924 218.151 253.762C218.314 253.599 218.438 253.407 218.525 253.185C218.617 252.962 218.663 252.716 218.663 252.445C218.663 252.174 218.617 251.927 218.525 251.705C218.438 251.482 218.314 251.29 218.151 251.127C217.994 250.965 217.807 250.84 217.59 250.753C217.373 250.667 217.137 250.623 216.883 250.623C216.628 250.623 216.392 250.667 216.175 250.753C215.964 250.84 215.777 250.965 215.614 251.127C215.452 251.29 215.324 251.482 215.232 251.705C215.145 251.927 215.102 252.174 215.102 252.445C215.102 252.71 215.145 252.957 215.232 253.185C215.324 253.407 215.449 253.599 215.606 253.762C215.769 253.924 215.958 254.049 216.175 254.136C216.392 254.223 216.628 254.266 216.883 254.266ZM223.735 255.388C223.285 255.388 222.871 255.318 222.491 255.177C222.117 255.03 221.789 254.824 221.507 254.559C221.231 254.293 221.014 253.981 220.857 253.624C220.705 253.266 220.629 252.873 220.629 252.445C220.629 252.016 220.705 251.623 220.857 251.266C221.014 250.908 221.234 250.596 221.516 250.33C221.797 250.065 222.128 249.862 222.508 249.721C222.887 249.574 223.304 249.501 223.76 249.501C224.264 249.501 224.717 249.585 225.118 249.753C225.524 249.921 225.866 250.165 226.142 250.485L225.297 251.266C225.091 251.049 224.866 250.889 224.622 250.786C224.378 250.677 224.112 250.623 223.825 250.623C223.548 250.623 223.296 250.667 223.069 250.753C222.841 250.84 222.643 250.965 222.475 251.127C222.312 251.29 222.185 251.482 222.093 251.705C222.006 251.927 221.963 252.174 221.963 252.445C221.963 252.71 222.006 252.954 222.093 253.176C222.185 253.399 222.312 253.594 222.475 253.762C222.643 253.924 222.838 254.049 223.06 254.136C223.288 254.223 223.537 254.266 223.809 254.266C224.069 254.266 224.321 254.225 224.565 254.144C224.814 254.057 225.055 253.914 225.288 253.713L226.036 254.664C225.728 254.898 225.367 255.076 224.955 255.201C224.548 255.326 224.142 255.388 223.735 255.388ZM224.833 254.494V252.355H226.036V254.664L224.833 254.494ZM229.563 255.291V249.599H230.88V255.291H229.563ZM232.231 255.291V249.599H233.321L236.679 253.697H236.15V249.599H237.451V255.291H236.37L233.003 251.192H233.532V255.291H232.231Z" fill="#050505"/>
<path d="M204.726 127.803L183.43 127.712L183.412 131.394L204.708 131.485L204.726 127.803Z" fill="#FFA620"/>
<path d="M228.775 141.063H189.826V144.503H228.775V141.063Z" fill="#FFA620"/>
<path d="M204.581 161.389L183.285 161.298L183.267 164.98L204.563 165.071L204.581 161.389Z" fill="#FFA620"/>
<path opacity="0.1" d="M204.581 161.389L183.285 161.298L183.267 164.98L204.563 165.071L204.581 161.389Z" fill="black"/>
<path d="M266.614 183.994C266.781 183.975 266.947 183.946 267.111 183.909C267.342 183.839 267.555 183.724 267.735 183.571C267.915 183.417 268.058 183.229 268.154 183.019C268.285 182.704 268.336 182.365 268.303 182.029C268.303 181.654 268.303 181.249 268.303 180.796C268.303 179.892 268.303 178.862 268.303 177.676V172.723C268.343 172.365 268.259 172.004 268.063 171.694C267.859 171.376 267.538 171.14 267.161 171.031C266.748 170.961 266.328 170.94 265.91 170.968H253.995L184.982 170.727C184.61 170.727 184.252 170.855 183.973 171.086C183.695 171.317 183.515 171.636 183.466 171.982C183.466 172.723 183.466 173.542 183.466 174.322C183.466 175.882 183.466 177.442 183.466 179.002C183.466 179.782 183.466 180.562 183.466 181.342C183.436 181.707 183.452 182.074 183.516 182.434C183.619 182.751 183.832 183.025 184.121 183.214C184.426 183.397 184.786 183.485 185.147 183.464H186.298H188.691L207.015 183.55L238.04 183.729L258.955 183.885L264.644 183.948H266.126H266.622H266.126H264.644H258.955H238.04L206.998 183.916L188.675 183.854H185.073C184.625 183.879 184.18 183.767 183.806 183.534C183.429 183.288 183.154 182.927 183.028 182.512C182.953 182.116 182.931 181.713 182.961 181.311C182.961 180.531 182.961 179.751 182.961 178.971C182.961 177.411 182.961 175.851 182.961 174.291C182.961 173.511 182.961 172.731 182.961 171.951C183.022 171.505 183.253 171.095 183.611 170.798C183.969 170.501 184.43 170.337 184.907 170.337L253.921 170.695L265.836 170.781C266.28 170.756 266.725 170.784 267.161 170.867C267.591 170.999 267.954 171.277 268.179 171.647C268.393 171.99 268.486 172.389 268.444 172.786C268.444 173.152 268.444 173.511 268.444 173.87C268.444 175.282 268.444 176.577 268.444 177.77C268.444 178.963 268.444 179.97 268.444 180.89C268.444 181.335 268.444 181.748 268.444 182.13C268.474 182.479 268.414 182.829 268.27 183.152C268.163 183.367 268.007 183.558 267.814 183.711C267.621 183.865 267.396 183.977 267.152 184.041C266.971 184.055 266.789 184.039 266.614 183.994Z" fill="#62594E"/>
<path d="M204.418 196.434L183.122 196.342L183.104 200.024L204.4 200.115L204.418 196.434Z" fill="#FFA620"/>
<path opacity="0.1" d="M204.418 196.434L183.122 196.342L183.104 200.024L204.4 200.115L204.418 196.434Z" fill="black"/>
<path d="M266.448 219.024C266.615 219.005 266.781 218.977 266.945 218.938C267.175 218.869 267.387 218.755 267.567 218.603C267.747 218.451 267.89 218.265 267.988 218.057C268.118 217.742 268.169 217.403 268.137 217.066C268.137 216.684 268.137 216.286 268.137 215.826C268.137 214.929 268.137 213.892 268.137 212.706V207.753C268.177 207.394 268.092 207.033 267.897 206.723C267.688 206.411 267.368 206.179 266.994 206.068C266.582 205.996 266.162 205.972 265.744 205.998H253.829L184.815 205.756C184.444 205.757 184.086 205.885 183.807 206.116C183.528 206.347 183.348 206.665 183.3 207.012C183.3 207.792 183.3 208.572 183.3 209.352C183.3 210.912 183.3 212.472 183.3 214.032C183.3 214.812 183.3 215.592 183.3 216.372C183.269 216.734 183.286 217.098 183.35 217.456C183.449 217.774 183.663 218.05 183.954 218.236C184.258 218.423 184.619 218.511 184.981 218.486H188.583L206.906 218.579L237.932 218.759L258.847 218.915L264.535 218.977H266.017C266.349 218.977 266.514 218.977 266.514 218.977C266.514 218.977 266.349 218.977 266.017 218.977H264.535H258.847H237.932L206.906 218.891L188.583 218.821H184.981C184.533 218.85 184.087 218.737 183.714 218.501C183.337 218.255 183.062 217.895 182.936 217.48C182.862 217.083 182.839 216.68 182.87 216.278C182.87 215.498 182.87 214.718 182.87 213.938C182.87 212.378 182.87 210.818 182.87 209.258C182.87 208.478 182.87 207.698 182.87 206.879C182.928 206.434 183.157 206.024 183.514 205.727C183.871 205.429 184.331 205.265 184.807 205.265L253.821 205.624L265.736 205.709C266.179 205.684 266.625 205.713 267.061 205.795C267.491 205.928 267.854 206.205 268.079 206.575C268.293 206.919 268.386 207.317 268.344 207.714C268.344 208.081 268.344 208.447 268.344 208.798C268.344 210.21 268.344 211.505 268.344 212.698C268.344 213.892 268.344 214.898 268.344 215.818C268.344 216.263 268.344 216.676 268.344 217.058C268.376 217.407 268.316 217.758 268.17 218.08C268.063 218.295 267.907 218.486 267.714 218.64C267.521 218.793 267.296 218.906 267.052 218.969C266.858 219.032 266.651 219.051 266.448 219.024Z" fill="#62594E"/>
<path d="M227.944 175.622L188.995 175.456L188.979 178.896L227.927 179.062L227.944 175.622Z" fill="#FFA620"/>
<path opacity="0.2" d="M227.944 175.622L188.995 175.456L188.979 178.896L227.927 179.062L227.944 175.622Z" fill="white"/>
<path d="M192.516 212.659C192.492 212.973 192.37 213.273 192.166 213.522C191.962 213.772 191.685 213.959 191.37 214.061C191.054 214.163 190.713 214.176 190.39 214.098C190.066 214.019 189.774 213.853 189.55 213.62C189.326 213.387 189.18 213.096 189.129 212.786C189.078 212.475 189.126 212.156 189.265 211.871C189.405 211.585 189.63 211.344 189.914 211.178C190.197 211.011 190.526 210.927 190.86 210.935C191.321 210.96 191.754 211.154 192.064 211.477C192.374 211.8 192.537 212.224 192.516 212.659Z" fill="#FFA620"/>
<path d="M197.792 212.683C197.808 212.903 197.776 213.123 197.698 213.331C197.62 213.539 197.497 213.729 197.338 213.891C197.178 214.052 196.985 214.18 196.771 214.268C196.556 214.356 196.324 214.401 196.09 214.401C195.856 214.401 195.625 214.356 195.41 214.268C195.196 214.18 195.003 214.052 194.843 213.891C194.683 213.729 194.561 213.539 194.483 213.331C194.405 213.123 194.373 212.903 194.389 212.683C194.373 212.463 194.405 212.242 194.483 212.034C194.561 211.827 194.683 211.636 194.843 211.475C195.003 211.314 195.196 211.185 195.41 211.097C195.625 211.009 195.856 210.964 196.09 210.964C196.324 210.964 196.556 211.009 196.771 211.097C196.985 211.185 197.178 211.314 197.338 211.475C197.497 211.636 197.62 211.827 197.698 212.034C197.776 212.242 197.808 212.463 197.792 212.683Z" fill="#FFA620"/>
<path d="M203.074 212.706C203.049 213.02 202.928 213.32 202.724 213.569C202.52 213.818 202.243 214.006 201.927 214.108C201.611 214.21 201.271 214.223 200.947 214.145C200.624 214.066 200.332 213.9 200.108 213.667C199.884 213.433 199.737 213.143 199.687 212.832C199.636 212.521 199.683 212.203 199.823 211.917C199.962 211.632 200.188 211.391 200.471 211.224C200.755 211.058 201.084 210.974 201.418 210.982C201.878 211.008 202.31 211.204 202.619 211.526C202.929 211.848 203.092 212.272 203.074 212.706Z" fill="#FFA620"/>
<path d="M208.349 212.73C208.325 213.043 208.203 213.343 207.999 213.593C207.795 213.842 207.518 214.029 207.203 214.132C206.887 214.234 206.546 214.246 206.223 214.168C205.899 214.09 205.607 213.923 205.383 213.69C205.159 213.457 205.013 213.167 204.962 212.856C204.911 212.545 204.959 212.227 205.098 211.941C205.238 211.655 205.463 211.414 205.747 211.248C206.03 211.082 206.359 210.997 206.693 211.006C207.154 211.032 207.585 211.227 207.895 211.549C208.204 211.872 208.367 212.295 208.349 212.73Z" fill="#FFA620"/>
<path d="M213.622 212.745C213.599 213.059 213.479 213.36 213.276 213.61C213.073 213.861 212.797 214.049 212.481 214.153C212.165 214.256 211.824 214.27 211.5 214.192C211.176 214.115 210.883 213.949 210.658 213.716C210.434 213.483 210.286 213.193 210.235 212.882C210.184 212.57 210.231 212.252 210.37 211.966C210.509 211.679 210.735 211.438 211.019 211.271C211.303 211.105 211.632 211.021 211.966 211.029C212.425 211.055 212.855 211.249 213.165 211.57C213.474 211.89 213.638 212.312 213.622 212.745Z" fill="#FFA620"/>
<path d="M218.906 212.769C218.883 213.081 218.764 213.381 218.563 213.63C218.362 213.88 218.088 214.069 217.774 214.174C217.461 214.278 217.122 214.295 216.799 214.22C216.476 214.146 216.183 213.984 215.956 213.755C215.729 213.525 215.578 213.239 215.522 212.93C215.466 212.621 215.507 212.304 215.641 212.016C215.774 211.729 215.993 211.485 216.271 211.314C216.55 211.143 216.875 211.052 217.208 211.052C217.674 211.069 218.115 211.259 218.433 211.58C218.751 211.902 218.921 212.329 218.906 212.769Z" fill="#FFA620"/>
<path d="M224.18 212.792C224.196 213.012 224.164 213.233 224.086 213.44C224.008 213.648 223.885 213.839 223.725 214C223.566 214.161 223.373 214.29 223.158 214.377C222.944 214.465 222.712 214.511 222.478 214.511C222.244 214.511 222.013 214.465 221.798 214.377C221.583 214.29 221.39 214.161 221.231 214C221.071 213.839 220.948 213.648 220.87 213.44C220.792 213.233 220.76 213.012 220.777 212.792C220.76 212.572 220.792 212.351 220.87 212.144C220.948 211.936 221.071 211.745 221.231 211.584C221.39 211.423 221.583 211.294 221.798 211.207C222.013 211.119 222.244 211.073 222.478 211.073C222.712 211.073 222.944 211.119 223.158 211.207C223.373 211.294 223.566 211.423 223.725 211.584C223.885 211.745 224.008 211.936 224.086 212.144C224.164 212.351 224.196 212.572 224.18 212.792Z" fill="#FFA620"/>
<path d="M229.453 212.815C229.431 213.128 229.312 213.427 229.111 213.677C228.91 213.927 228.636 214.115 228.322 214.22C228.009 214.325 227.67 214.341 227.346 214.267C227.023 214.192 226.73 214.031 226.504 213.801C226.277 213.572 226.126 213.285 226.07 212.977C226.014 212.668 226.055 212.35 226.188 212.063C226.321 211.776 226.541 211.532 226.819 211.36C227.098 211.189 227.423 211.098 227.756 211.099C228.222 211.115 228.663 211.305 228.981 211.627C229.299 211.948 229.469 212.376 229.453 212.815Z" fill="#FFA620"/>
<path d="M234.729 212.838C234.706 213.153 234.586 213.454 234.383 213.704C234.18 213.954 233.903 214.143 233.587 214.246C233.272 214.35 232.93 214.364 232.606 214.286C232.282 214.208 231.99 214.043 231.765 213.81C231.54 213.577 231.393 213.286 231.341 212.975C231.29 212.664 231.337 212.345 231.477 212.059C231.616 211.773 231.841 211.531 232.125 211.365C232.409 211.198 232.738 211.114 233.073 211.123C233.532 211.149 233.962 211.343 234.271 211.663C234.58 211.984 234.745 212.406 234.729 212.838Z" fill="#FFA620"/>
<g opacity="0.2">
<path opacity="0.2" d="M192.516 212.659C192.492 212.973 192.37 213.273 192.166 213.522C191.962 213.772 191.685 213.959 191.37 214.061C191.054 214.163 190.713 214.176 190.39 214.098C190.066 214.019 189.774 213.853 189.55 213.62C189.326 213.387 189.18 213.096 189.129 212.786C189.078 212.475 189.126 212.156 189.265 211.871C189.405 211.585 189.63 211.344 189.914 211.178C190.197 211.011 190.526 210.927 190.86 210.935C191.321 210.96 191.754 211.154 192.064 211.477C192.374 211.8 192.537 212.224 192.516 212.659Z" fill="white"/>
<path opacity="0.2" d="M197.789 212.683C197.805 212.903 197.773 213.123 197.695 213.331C197.617 213.539 197.495 213.729 197.335 213.891C197.175 214.052 196.982 214.18 196.768 214.268C196.553 214.356 196.322 214.401 196.088 214.401C195.854 214.401 195.622 214.356 195.407 214.268C195.193 214.18 195 214.052 194.84 213.891C194.681 213.729 194.558 213.539 194.48 213.331C194.402 213.123 194.37 212.903 194.386 212.683C194.37 212.463 194.402 212.242 194.48 212.034C194.558 211.827 194.681 211.636 194.84 211.475C195 211.314 195.193 211.185 195.407 211.097C195.622 211.009 195.854 210.964 196.088 210.964C196.322 210.964 196.553 211.009 196.768 211.097C196.982 211.185 197.175 211.314 197.335 211.475C197.495 211.636 197.617 211.827 197.695 212.034C197.773 212.242 197.805 212.463 197.789 212.683Z" fill="white"/>
<path opacity="0.2" d="M203.073 212.706C203.048 213.02 202.927 213.32 202.723 213.569C202.519 213.818 202.242 214.006 201.926 214.108C201.61 214.21 201.27 214.223 200.946 214.144C200.623 214.066 200.331 213.9 200.107 213.667C199.883 213.433 199.736 213.143 199.686 212.832C199.635 212.521 199.682 212.203 199.822 211.917C199.961 211.632 200.187 211.391 200.47 211.224C200.754 211.058 201.083 210.974 201.417 210.982C201.877 211.008 202.309 211.204 202.618 211.526C202.928 211.848 203.091 212.272 203.073 212.706Z" fill="white"/>
<path opacity="0.2" d="M208.346 212.73C208.322 213.043 208.2 213.343 207.996 213.593C207.793 213.842 207.516 214.029 207.2 214.132C206.884 214.234 206.543 214.246 206.22 214.168C205.896 214.09 205.605 213.923 205.38 213.69C205.156 213.457 205.01 213.167 204.959 212.856C204.909 212.545 204.956 212.227 205.095 211.941C205.235 211.655 205.46 211.414 205.744 211.248C206.027 211.082 206.356 210.997 206.69 211.006C207.151 211.032 207.582 211.227 207.892 211.549C208.201 211.872 208.364 212.295 208.346 212.73Z" fill="white"/>
<path opacity="0.2" d="M213.622 212.745C213.599 213.059 213.479 213.36 213.276 213.61C213.073 213.861 212.797 214.049 212.481 214.153C212.165 214.256 211.824 214.27 211.5 214.192C211.176 214.115 210.883 213.949 210.658 213.716C210.434 213.483 210.286 213.193 210.235 212.882C210.184 212.57 210.231 212.252 210.37 211.966C210.509 211.679 210.735 211.438 211.019 211.271C211.303 211.105 211.632 211.021 211.966 211.029C212.425 211.055 212.855 211.249 213.165 211.57C213.474 211.89 213.638 212.312 213.622 212.745Z" fill="white"/>
<path opacity="0.2" d="M218.904 212.768C218.881 213.081 218.762 213.38 218.561 213.63C218.36 213.88 218.086 214.069 217.772 214.173C217.459 214.278 217.12 214.294 216.797 214.22C216.474 214.146 216.181 213.984 215.954 213.755C215.727 213.525 215.576 213.239 215.52 212.93C215.464 212.621 215.506 212.303 215.639 212.016C215.772 211.729 215.991 211.485 216.269 211.314C216.548 211.142 216.874 211.052 217.206 211.052C217.673 211.069 218.113 211.258 218.431 211.58C218.749 211.902 218.919 212.329 218.904 212.768Z" fill="white"/>
<path opacity="0.2" d="M224.18 212.792C224.196 213.012 224.164 213.232 224.086 213.44C224.008 213.648 223.885 213.838 223.725 214C223.566 214.161 223.373 214.289 223.158 214.377C222.944 214.465 222.712 214.511 222.478 214.511C222.244 214.511 222.013 214.465 221.798 214.377C221.583 214.289 221.39 214.161 221.231 214C221.071 213.838 220.948 213.648 220.87 213.44C220.792 213.232 220.76 213.012 220.777 212.792C220.76 212.572 220.792 212.351 220.87 212.143C220.948 211.936 221.071 211.745 221.231 211.584C221.39 211.423 221.583 211.294 221.798 211.206C222.013 211.119 222.244 211.073 222.478 211.073C222.712 211.073 222.944 211.119 223.158 211.206C223.373 211.294 223.566 211.423 223.725 211.584C223.885 211.745 224.008 211.936 224.086 212.143C224.164 212.351 224.196 212.572 224.18 212.792Z" fill="white"/>
<path opacity="0.2" d="M229.453 212.815C229.431 213.128 229.312 213.427 229.111 213.677C228.91 213.927 228.636 214.115 228.322 214.22C228.009 214.325 227.67 214.341 227.346 214.267C227.023 214.192 226.73 214.031 226.504 213.801C226.277 213.572 226.126 213.285 226.07 212.977C226.014 212.668 226.055 212.35 226.188 212.063C226.321 211.776 226.541 211.532 226.819 211.36C227.098 211.189 227.423 211.098 227.756 211.099C228.222 211.115 228.663 211.305 228.981 211.627C229.299 211.948 229.469 212.376 229.453 212.815Z" fill="white"/>
<path opacity="0.2" d="M234.727 212.839C234.704 213.153 234.584 213.454 234.381 213.704C234.178 213.954 233.901 214.143 233.585 214.246C233.27 214.35 232.928 214.364 232.604 214.286C232.28 214.208 231.988 214.043 231.763 213.81C231.538 213.577 231.391 213.286 231.34 212.975C231.288 212.664 231.335 212.345 231.475 212.059C231.614 211.773 231.839 211.531 232.123 211.365C232.407 211.198 232.737 211.114 233.071 211.123C233.53 211.149 233.96 211.343 234.269 211.663C234.578 211.984 234.743 212.406 234.727 212.839Z" fill="white"/>
</g>
<path d="M227.235 100.238C227.81 99.9992 228.298 99.6065 228.639 99.1086C228.979 98.6107 229.156 98.0296 229.148 97.4376C229.169 97.0528 229.107 96.6678 228.966 96.3063C228.824 95.9447 228.606 95.6141 228.324 95.3345C228.043 95.055 227.704 94.8324 227.328 94.6802C226.952 94.5281 226.547 94.4496 226.138 94.4496C225.729 94.4496 225.324 94.5281 224.948 94.6802C224.573 94.8324 224.233 95.055 223.952 95.3345C223.67 95.6141 223.452 95.9447 223.31 96.3063C223.169 96.6678 223.107 97.0528 223.128 97.4376C223.116 98.0355 223.291 98.6236 223.633 99.1275C223.975 99.6315 224.468 100.029 225.049 100.269C220.413 100.924 220.62 105.667 220.62 105.667L231.582 105.713C231.582 105.713 231.839 100.885 227.235 100.238Z" fill="#FFA620"/>
<path d="M245.049 108.772L205.977 108.605L205.955 113.004L245.028 113.171L245.049 108.772Z" fill="#FFA620"/>
<path d="M101.405 131.571H101.016L99.8896 131.649C99.2802 131.683 98.6742 131.759 98.0763 131.875C97.689 131.926 97.3049 131.996 96.9254 132.085L95.642 132.421C93.4576 133.052 91.3966 134.014 89.5396 135.268C87.0862 136.945 85.0375 139.093 83.5284 141.57C82.6414 142.998 81.9355 144.519 81.4252 146.102C80.8891 147.822 80.5804 149.599 80.5062 151.39C80.4568 152.332 80.4734 153.275 80.5558 154.214C80.5558 154.69 80.6966 155.166 80.7628 155.649C80.8186 156.137 80.9155 156.619 81.0526 157.092C81.7972 160.222 83.3079 163.145 85.4643 165.627C87.6207 168.11 90.3631 170.083 93.4726 171.39C95.7232 172.304 98.1355 172.815 100.585 172.895C103.115 173.026 105.648 172.684 108.037 171.889L108.766 171.631H108.865L108.948 171.678L119.389 176.67L119.083 176.92C117.965 173.659 116.888 170.5 115.845 167.466V167.349L115.936 167.263C118.469 164.86 120.349 161.917 121.418 158.683C122.385 155.727 122.668 152.61 122.246 149.542C121.87 146.815 120.94 144.183 119.505 141.789C118.268 139.732 116.673 137.886 114.785 136.329C113.228 135.096 111.505 134.062 109.66 133.255C108.264 132.688 106.81 132.257 105.321 131.968L103.665 131.711L102.465 131.625L101.736 131.578H101.488C101.57 131.57 101.654 131.57 101.736 131.578H102.473L103.674 131.625L105.33 131.851C106.837 132.119 108.311 132.535 109.726 133.092C111.603 133.889 113.357 134.92 114.943 136.157C116.865 137.708 118.494 139.554 119.762 141.617C121.237 144.037 122.196 146.705 122.585 149.472C123.042 152.587 122.779 155.758 121.815 158.769C120.74 162.07 118.831 165.076 116.251 167.529L116.301 167.326C117.344 170.36 118.429 173.519 119.555 176.772L119.712 177.247L119.24 177.021L108.799 172.037H108.981L108.236 172.294C105.801 173.102 103.221 173.451 100.643 173.324C98.1406 173.234 95.6779 172.705 93.3816 171.764C89.0012 169.997 85.3568 166.925 83.0067 163.02C81.9253 161.217 81.1355 159.271 80.6635 157.248C80.5342 156.763 80.4374 156.271 80.3737 155.774C80.3074 155.283 80.1998 154.799 80.175 154.315C79.9509 151.54 80.2623 148.749 81.094 146.079C81.617 144.474 82.3425 142.934 83.2551 141.492C84.8003 138.993 86.8916 136.831 89.3906 135.151C91.2781 133.893 93.3737 132.939 95.5923 132.327L96.8923 132.015C97.2749 131.932 97.6618 131.866 98.0515 131.82C98.6556 131.715 99.2673 131.652 99.8814 131.633L101.016 131.594C101.145 131.578 101.275 131.57 101.405 131.571Z" fill="#FFA620"/>
<path d="M106.124 149.76H104.592L101.28 145.376V142.498C101.28 142.498 98.9116 142.358 99.1932 146.125C99.4747 149.893 99.1932 148.933 99.1932 148.933C99.1932 148.933 94.1672 148.933 93.7532 149.362C93.3392 149.791 93.3143 154.362 93.2564 156.913C93.2247 157.528 93.4119 158.135 93.7885 158.638C94.165 159.141 94.7092 159.511 95.3347 159.689C95.51 159.735 95.691 159.759 95.8729 159.76C97.1314 159.76 103.532 158.8 103.532 158.8H106.173L106.124 149.76Z" fill="#FFA620"/>
<path d="M110.505 148.988L109.561 158.847H106.944V149.191L110.505 148.988Z" fill="#FFA620"/>
<path d="M135.357 200.614C134.504 202.373 133.607 204.309 132.826 206.187C132.045 208.064 131.246 210.001 130.554 211.929C129.143 215.729 128.068 219.632 127.34 223.599L127.143 224.843C127.124 225.056 127.145 225.271 127.206 225.477C127.418 226.178 127.751 226.841 128.193 227.439C129.346 228.987 130.684 230.406 132.179 231.667C133.756 233.049 135.41 234.35 137.135 235.566C138.858 236.818 140.672 238.035 142.458 239.185L140.779 242.154C136.514 240.403 132.465 238.216 128.705 235.634C126.699 234.256 124.889 232.641 123.319 230.83C122.388 229.752 121.662 228.53 121.173 227.219C120.889 226.4 120.743 225.544 120.742 224.682C120.742 224.479 120.742 224.183 120.742 224.039V223.625L120.832 222.779C121.347 218.373 122.33 214.027 123.768 209.806C124.468 207.726 125.213 205.654 126.066 203.633C126.919 201.612 127.798 199.633 128.885 197.578L135.357 200.614Z" fill="#E58A7B"/>
<path d="M141.19 238.661L147.537 235.634L145.894 242.196C145.894 242.196 141.54 243.346 139.521 241.35L141.19 238.661Z" fill="#E58A7B"/>
<path d="M153.347 236.708L151.659 242.137L145.896 242.196L147.538 235.634L153.347 236.708Z" fill="#E58A7B"/>
<path d="M162.306 168.951C162.646 170.123 163.118 171.257 163.715 172.334C163.541 172.521 163.316 172.659 163.065 172.735C162.814 172.811 162.545 172.821 162.288 172.765L162.306 168.951Z" fill="#DF5753"/>
<path d="M162.12 169.002C162.491 169.002 162.793 168.566 162.793 168.029C162.793 167.492 162.491 167.057 162.12 167.057C161.748 167.057 161.446 167.492 161.446 168.029C161.446 168.566 161.748 169.002 162.12 169.002Z" fill="#11100A"/>
<path d="M161.918 167.09L163.283 166.727C163.283 166.727 162.618 167.725 161.918 167.09Z" fill="#11100A"/>
<path d="M144.773 175.159C145.59 179.091 146.407 186.305 143.48 188.935C143.48 188.935 144.63 192.926 152.395 192.926C160.932 192.926 156.471 188.935 156.471 188.935C151.811 187.886 151.928 184.63 152.745 181.569L144.773 175.159Z" fill="#E58A7B"/>
<path d="M142.504 166.194C142.935 172.765 142.971 175.556 146.49 178.93C151.796 184.004 160.27 182.076 161.931 175.547C163.43 169.627 162.479 159.885 155.647 157.272C154.147 156.69 152.515 156.478 150.904 156.656C149.293 156.834 147.757 157.396 146.441 158.29C145.126 159.183 144.073 160.378 143.384 161.761C142.696 163.144 142.392 164.67 142.504 166.194Z" fill="#E58A7B"/>
<path d="M143.194 158.803C139.693 160.004 135.024 159.107 136.856 169.281C138.795 180.055 135.814 183.598 135.814 183.598C135.814 183.598 149.092 186.262 162.648 183.438C162.648 183.438 158.509 176.621 159.667 171.598C161.148 165.255 159.981 162.913 159.981 162.913C159.981 162.913 148.113 157.111 143.194 158.803Z" fill="#11100A"/>
<path d="M158.005 169.619C158.009 170.869 158.388 172.092 159.1 173.146C160.052 174.516 161.174 173.992 161.452 172.537C161.703 171.26 161.515 169.002 160.303 168.123C159.091 167.243 158.023 168.106 158.005 169.619Z" fill="#E58A7B"/>
<path d="M140.15 159.911C139.144 157.247 143.938 153.145 154.082 154.837C164.227 156.528 164.667 164.486 164.667 164.486L162.62 162.186L162.71 164.604L152.287 166.49L140.15 159.911Z" fill="#11100A"/>
<path d="M141.011 189.383C140.951 188.997 141.054 188.604 141.297 188.288C141.54 187.972 141.904 187.758 142.313 187.692C145.473 187.201 152.654 186.203 156.263 186.677C158.956 187.032 159.657 188.504 159.773 189.713C159.792 189.925 159.762 190.138 159.685 190.338C159.609 190.537 159.488 190.72 159.331 190.872C159.173 191.024 158.983 191.143 158.773 191.22C158.563 191.297 158.338 191.331 158.113 191.32L142.51 190.66C142.142 190.643 141.792 190.506 141.519 190.273C141.246 190.04 141.066 189.726 141.011 189.383Z" fill="#FFA620"/>
<path opacity="0.6" d="M141.011 189.383C140.951 188.997 141.054 188.604 141.297 188.288C141.54 187.972 141.904 187.758 142.313 187.692C145.473 187.201 152.654 186.203 156.263 186.677C158.956 187.032 159.657 188.504 159.773 189.713C159.792 189.925 159.762 190.138 159.685 190.338C159.609 190.537 159.488 190.72 159.331 190.872C159.173 191.024 158.983 191.143 158.773 191.22C158.563 191.297 158.338 191.331 158.113 191.32L142.51 190.66C142.142 190.643 141.792 190.506 141.519 190.273C141.246 190.04 141.066 189.726 141.011 189.383Z" fill="#CEFEE2"/>
<path d="M150.035 337.125L155.826 340.913L165.512 328.541L159.722 324.761L150.035 337.125Z" fill="#E58A7B"/>
<path d="M136.534 336.879L142.648 340.161L151.221 327.078L145.107 323.796L136.534 336.879Z" fill="#E58A7B"/>
<path d="M165.5 328.541L160.509 334.917L154.719 331.137L159.71 324.761L165.5 328.541Z" fill="#CF6F64"/>
<path d="M145.095 323.796L151.217 327.086L146.8 333.826L140.678 330.537L145.095 323.796Z" fill="#CF6F64"/>
<path d="M154.917 230.686C154.917 230.686 177.521 257.52 173.275 283.187C169.855 303.914 150.015 331.983 150.015 331.983L140.688 327.619C147.262 315.209 152.873 302.366 157.475 289.191C158.894 285.101 159.309 280.76 158.687 276.497C158.065 272.234 156.422 268.159 153.884 264.581C142.429 248.826 124.08 258.205 136.423 230.686H154.917Z" fill="#FFA620"/>
<path opacity="0.6" d="M154.917 230.686C154.917 230.686 177.521 257.52 173.275 283.187C169.855 303.914 150.015 331.983 150.015 331.983L140.688 327.619C147.262 315.209 152.873 302.366 157.475 289.191C158.894 285.101 159.309 280.76 158.687 276.497C158.065 272.234 156.422 268.159 153.884 264.581C142.429 248.826 124.08 258.205 136.423 230.686H154.917Z" fill="black"/>
<path opacity="0.4" d="M166.004 247.921L162.719 244.843C162.719 245.088 169.084 282.104 170.87 292.506C171.924 289.467 172.732 286.357 173.285 283.203C175.386 270.611 170.996 257.748 166.004 247.921Z" fill="black"/>
<path d="M165.007 230.686C165.007 230.686 192.226 264.412 192.998 284.633C193.636 301.546 163.373 334.317 163.373 334.317L154.576 328.955C154.576 328.955 172.288 305.682 176.75 286.671C175.026 267.829 138.578 230.686 138.578 230.686H165.007Z" fill="#FFA620"/>
<path opacity="0.6" d="M165.007 230.686C165.007 230.686 192.226 264.412 192.998 284.633C193.636 301.546 163.373 334.317 163.373 334.317L154.576 328.955C154.576 328.955 172.288 305.682 176.75 286.671C175.026 267.829 138.578 230.686 138.578 230.686H165.007Z" fill="black"/>
<path d="M131.335 190.44C128.427 191.091 125.635 201.054 125.635 201.054L137.009 208.208C137.009 208.208 140.797 200.326 139.469 196.876C138.095 193.282 134.989 189.62 131.335 190.44Z" fill="#E2E2E2"/>
<path opacity="0.2" d="M133.56 196.859L132.77 205.544L136.998 208.216C138.165 205.74 139.03 203.147 139.574 200.487L133.56 196.859Z" fill="black"/>
<path d="M168.378 190.634C168.378 190.634 171.736 191.742 165.012 230.678H136.41C136.895 219.684 136.904 212.918 131.338 190.44C135.343 189.662 139.402 189.159 143.484 188.935C147.809 188.642 152.15 188.642 156.474 188.935C162.058 189.417 168.378 190.634 168.378 190.634Z" fill="#E2E2E2"/>
<path d="M171.284 196.859C171.931 198.55 172.613 200.369 173.331 202.119C174.049 203.87 174.732 205.671 175.459 207.447L177.658 212.758L178.215 214.086L178.502 214.745L178.637 215.075C178.637 215.134 178.637 215.134 178.637 215.126C178.473 214.908 178.258 214.729 178.008 214.601C177.653 214.405 177.253 214.291 176.841 214.272C176.499 214.262 176.159 214.322 175.845 214.449C175.432 214.627 175.432 214.703 175.441 214.694C175.515 214.638 175.582 214.573 175.638 214.5C176.135 213.885 176.565 213.225 176.922 212.53C177.344 211.751 177.748 210.923 178.152 210.085C178.942 208.394 179.669 206.644 180.396 204.876C181.123 203.109 181.815 201.324 182.488 199.523L184.535 194.127L187.991 194.973C187.309 198.829 186.429 202.584 185.37 206.407C184.858 208.31 184.256 210.195 183.574 212.098C183.233 213.054 182.856 214.001 182.425 214.974C181.976 216.029 181.423 217.043 180.773 218.001C180.535 218.324 180.27 218.629 179.983 218.914C179.525 219.381 178.968 219.752 178.349 220.005C177.8 220.228 177.205 220.332 176.608 220.31C175.939 220.286 175.287 220.103 174.714 219.777C174.037 219.379 173.476 218.83 173.08 218.179C172.945 217.959 172.828 217.739 172.748 217.578L172.577 217.257L172.236 216.597L171.554 215.286C170.656 213.527 169.758 211.751 168.977 209.967C168.196 208.183 167.37 206.373 166.598 204.555C165.826 202.736 165.135 200.918 164.479 198.956L171.284 196.859Z" fill="#E58A7B"/>
<path d="M168.375 190.635C171.813 191.404 175.682 200.977 175.682 200.977L165.457 209.172C165.457 209.172 158.841 198.736 160.179 195.294C161.57 191.709 163.886 189.628 168.375 190.635Z" fill="#E2E2E2"/>
<path d="M186.158 191.1L189.749 188.275L192.244 191.937L190.404 194.99C190.404 194.99 187.477 197.527 184.892 196.233C184.482 195.364 184.383 194.393 184.612 193.467C184.84 192.54 185.383 191.709 186.158 191.1Z" fill="#E58A7B"/>
<path d="M196.233 188.284L195.964 189.206L190.281 190.102L189.725 188.275L196.233 188.284Z" fill="#E58A7B"/>
<path d="M164.074 334.747L153.822 328.506L155.663 325.496L167.18 332.168L164.074 334.747Z" fill="#FFA620"/>
<path d="M146.661 339.721C145.761 339.617 144.897 339.328 144.129 338.875C144.097 338.865 144.07 338.845 144.05 338.819C144.031 338.794 144.021 338.763 144.021 338.731C144.021 338.7 144.031 338.669 144.05 338.643C144.07 338.617 144.097 338.598 144.129 338.587C144.407 338.503 146.822 337.801 147.522 338.342C147.601 338.404 147.661 338.484 147.696 338.575C147.73 338.665 147.739 338.763 147.72 338.858C147.707 339.01 147.654 339.157 147.564 339.284C147.475 339.412 147.352 339.515 147.208 339.585C147.04 339.672 146.852 339.718 146.661 339.721ZM144.641 338.79C145.763 339.332 146.661 339.526 147.091 339.323C147.185 339.274 147.264 339.203 147.321 339.117C147.377 339.032 147.41 338.934 147.415 338.833C147.415 338.697 147.415 338.638 147.334 338.604C146.957 338.317 145.61 338.537 144.623 338.79H144.641Z" fill="#11100A"/>
<path d="M144.192 338.935C144.145 338.934 144.099 338.916 144.066 338.884C144.053 338.86 144.046 338.834 144.046 338.808C144.046 338.781 144.053 338.755 144.066 338.732C144.066 338.656 144.65 336.82 145.565 336.406C145.682 336.356 145.809 336.33 145.938 336.33C146.067 336.33 146.194 336.356 146.311 336.406C146.437 336.443 146.546 336.52 146.621 336.622C146.695 336.725 146.732 336.848 146.724 336.973C146.661 337.734 145.018 338.782 144.264 338.96L144.192 338.935ZM145.934 336.626C145.846 336.628 145.761 336.649 145.682 336.685C145.126 336.939 144.668 337.928 144.443 338.529C145.233 338.216 146.32 337.387 146.355 336.922C146.355 336.846 146.355 336.753 146.149 336.668C146.082 336.634 146.009 336.611 145.934 336.6V336.626Z" fill="#11100A"/>
<path d="M159.472 343.374C158.458 343.374 157.048 342.148 156.276 341.395C156.257 341.369 156.246 341.338 156.246 341.306C156.246 341.275 156.257 341.244 156.276 341.218C156.294 341.19 156.319 341.168 156.349 341.153C156.379 341.138 156.413 341.131 156.447 341.133C156.806 341.133 159.921 341.573 160.361 342.402C160.408 342.476 160.432 342.561 160.432 342.647C160.432 342.733 160.408 342.818 160.361 342.892C160.295 343.021 160.195 343.132 160.071 343.215C159.947 343.298 159.803 343.35 159.652 343.366L159.472 343.374ZM156.869 341.514C158 342.545 158.997 343.12 159.562 343.053C159.661 343.041 159.756 343.006 159.837 342.951C159.918 342.897 159.984 342.824 160.029 342.74C160.049 342.711 160.06 342.677 160.06 342.643C160.06 342.608 160.049 342.574 160.029 342.545C159.796 342.089 158.135 341.7 156.869 341.514Z" fill="#11100A"/>
<path d="M156.964 341.472C156.763 341.477 156.561 341.463 156.363 341.429C156.335 341.425 156.309 341.415 156.287 341.398C156.265 341.382 156.248 341.361 156.237 341.336C156.224 341.311 156.217 341.284 156.217 341.256C156.217 341.228 156.224 341.2 156.237 341.176C156.291 341.116 157.503 339.738 158.652 339.645C158.977 339.621 159.3 339.718 159.55 339.916C159.9 340.203 159.882 340.457 159.792 340.617C159.568 341.192 158.015 341.472 156.964 341.472ZM156.731 341.159C157.736 341.209 159.343 340.896 159.55 340.482C159.55 340.482 159.622 340.347 159.388 340.161C159.295 340.085 159.187 340.027 159.069 339.992C158.952 339.958 158.828 339.946 158.706 339.958C157.932 340.161 157.243 340.583 156.731 341.167V341.159Z" fill="#11100A"/>
<path d="M144.434 338.021L136.822 335.991C136.69 335.953 136.549 335.963 136.425 336.018C136.301 336.072 136.202 336.168 136.148 336.287L133.581 341.725C133.521 341.864 133.492 342.014 133.498 342.164C133.503 342.314 133.543 342.462 133.613 342.597C133.683 342.732 133.783 342.851 133.906 342.947C134.029 343.043 134.172 343.114 134.326 343.154C137.019 343.814 138.312 344 141.66 344.904C143.725 345.446 146.67 346.452 149.516 347.213C152.361 347.974 153.313 345.361 152.209 344.803C147.217 342.317 146.822 340.575 145.458 338.714C145.213 338.377 144.851 338.132 144.434 338.021Z" fill="#FFA620"/>
<path d="M156.479 340.406L149.979 336.177C149.869 336.102 149.733 336.067 149.597 336.079C149.462 336.092 149.335 336.151 149.243 336.245L144.934 340.609C144.829 340.721 144.75 340.854 144.704 340.997C144.658 341.141 144.644 341.292 144.665 341.441C144.685 341.59 144.739 341.733 144.822 341.86C144.906 341.988 145.017 342.098 145.149 342.182C147.438 343.628 148.623 344.211 151.487 346.08C153.283 347.23 156.757 349.784 159.181 351.374C161.605 352.964 163.409 350.782 162.547 349.92C158.687 346.038 157.843 343.602 157.206 341.395C157.095 340.995 156.837 340.644 156.479 340.406Z" fill="#FFA620"/>
<path d="M151.212 332.541L139.497 327.053L140.709 324.059L153.223 329.843L151.212 332.541Z" fill="#FFA620"/>
<path d="M135.977 229.096L134.99 231.532C134.891 231.718 135.124 231.912 135.456 231.912H165.153C165.414 231.912 165.629 231.794 165.647 231.642L165.898 229.223C165.898 229.063 165.692 228.919 165.414 228.919H136.444C136.357 228.911 136.269 228.923 136.188 228.954C136.106 228.985 136.034 229.034 135.977 229.096Z" fill="#FFA620"/>
<path opacity="0.4" d="M135.977 229.096L134.99 231.532C134.891 231.718 135.124 231.912 135.456 231.912H165.153C165.414 231.912 165.629 231.794 165.647 231.642L165.898 229.223C165.898 229.063 165.692 228.919 165.414 228.919H136.444C136.357 228.911 136.269 228.923 136.188 228.954C136.106 228.985 136.034 229.034 135.977 229.096Z" fill="white"/>
<path d="M140.654 232.149H139.873C139.721 232.149 139.604 232.073 139.613 231.98L139.981 228.843C139.981 228.758 140.124 228.682 140.277 228.682H141.058C141.211 228.682 141.327 228.758 141.318 228.843L140.95 231.98C140.941 232.073 140.807 232.149 140.654 232.149Z" fill="#FFA620"/>
<path d="M158.968 232.149H158.196C158.044 232.149 157.927 232.073 157.936 231.98L158.295 228.843C158.295 228.758 158.448 228.682 158.6 228.682H159.372C159.525 228.682 159.651 228.758 159.633 228.843L159.274 231.98C159.229 232.073 159.13 232.149 158.968 232.149Z" fill="#FFA620"/>
<g style="mix-blend-mode:multiply">
<path d="M139.971 375.367C153.254 375.367 164.021 374.632 164.021 373.726C164.021 372.82 153.254 372.086 139.971 372.086C126.689 372.086 115.921 372.82 115.921 373.726C115.921 374.632 126.689 375.367 139.971 375.367Z" fill="#F5F5F5"/>
</g>
<path d="M154.622 371.409C150.367 370.242 145.645 368.745 142.79 367.18C142.71 367.13 142.62 367.104 142.539 367.062V348.914H151.148C151.802 348.877 152.416 348.607 152.865 348.158C153.314 347.709 153.564 347.116 153.564 346.499C153.564 345.882 153.314 345.289 152.865 344.84C152.416 344.391 151.802 344.121 151.148 344.085H142.584V261.36H137.413V344.085H128.858C128.508 344.065 128.158 344.113 127.83 344.226C127.501 344.338 127.2 344.513 126.945 344.739C126.69 344.965 126.487 345.238 126.349 345.541C126.21 345.843 126.138 346.169 126.138 346.499C126.138 346.829 126.21 347.155 126.349 347.458C126.487 347.76 126.69 348.033 126.945 348.259C127.2 348.485 127.501 348.66 127.83 348.773C128.158 348.885 128.508 348.933 128.858 348.914H137.413V367.037C137.332 367.037 137.251 367.104 137.171 367.155C134.271 368.745 129.585 370.242 125.33 371.383C125.042 371.465 124.795 371.641 124.634 371.88C124.472 372.118 124.407 372.404 124.449 372.684C124.491 372.964 124.639 373.22 124.864 373.407C125.09 373.593 125.379 373.698 125.68 373.701H154.272C154.559 373.682 154.831 373.572 155.042 373.387C155.253 373.203 155.39 372.956 155.431 372.688C155.472 372.42 155.414 372.147 155.267 371.914C155.12 371.681 154.892 371.503 154.622 371.409Z" fill="#62594E"/>
<path d="M155.941 252.937H124.017C121.449 252.937 119.367 254.898 119.367 257.317V266.256C119.367 268.676 121.449 270.637 124.017 270.637H155.941C158.509 270.637 160.591 268.676 160.591 266.256V257.317C160.591 254.898 158.509 252.937 155.941 252.937Z" fill="#FFA620"/>
<path d="M123.725 270.645V272.184C123.725 273.453 125.188 274.485 126.983 274.485H153.018C154.813 274.485 156.276 273.453 156.276 272.184V270.645H123.725Z" fill="#FFA620"/>
<path opacity="0.3" d="M123.725 270.645V272.184C123.725 273.453 125.188 274.485 126.983 274.485H153.018C154.813 274.485 156.276 273.453 156.276 272.184V270.645H123.725Z" fill="white"/>
<path d="M285.317 167.322L285.072 167.379C285.079 167.353 285.094 167.329 285.115 167.31L285.317 167.322Z" fill="#11100A"/>
<path d="M292.26 185.442H292.254V189.504H292.26V185.442Z" fill="#DD6A57"/>
<path d="M292.37 334.035H292.261V333.96L292.37 334.035Z" fill="#DD6A57"/>
<path d="M317.669 338.958C316.321 338.38 286.673 313.128 286.189 311.489C285.999 310.872 289.656 306.59 294.232 301.529C295.218 300.439 306.747 283.063 306.747 283.063L327.519 298.58L313.393 317.791C313.393 317.791 320.132 332.252 320.475 334.104C320.818 335.957 319.017 339.517 317.669 338.958Z" fill="#DD6A57"/>
<path d="M318.05 328.017C318.995 329.99 319.813 332.016 320.5 334.082C320.818 335.934 319.042 339.518 317.694 338.958C316.347 338.398 286.692 313.129 286.214 311.496C286.061 310.988 288.432 308.074 291.782 304.294C297.773 310.849 316.665 331.254 318.05 329.356C318.177 328.918 318.177 328.455 318.05 328.017Z" fill="#11100A"/>
<path d="M296.211 298.269L317.223 314.599C317.223 314.599 346.449 276.265 347.288 262.254C347.9 251.48 330.956 231.404 319.428 214.219C318.313 212.551 318.993 206.227 319.036 205.171L296.193 205.211C295.917 207.635 294.128 219.828 297.975 225.766C305.89 237.977 318.668 255.699 319.158 259.536C319.648 263.373 296.211 298.269 296.211 298.269Z" fill="#37474F"/>
<path d="M318.576 308.598C315.219 305.92 316.224 306.647 312.836 303.981C311.176 302.689 302.864 296.168 301.106 295.198C301.063 295.198 301.02 295.233 301.05 295.262C302.41 296.687 310.852 303.041 312.555 304.31C315.991 306.896 315.036 306.116 318.503 308.667C318.505 308.677 318.51 308.686 318.518 308.694C318.525 308.701 318.535 308.707 318.545 308.71C318.556 308.712 318.567 308.712 318.578 308.71C318.588 308.707 318.598 308.702 318.606 308.695C318.613 308.688 318.619 308.678 318.622 308.669C318.624 308.659 318.624 308.648 318.621 308.638C318.618 308.628 318.612 308.619 318.605 308.612C318.597 308.605 318.587 308.6 318.576 308.598Z" fill="#11100A"/>
<path d="M321.18 255.941C320.415 254.533 319.594 253.148 318.73 251.78C317.015 249.016 315.146 246.344 313.309 243.65C311.393 240.833 309.474 238.021 307.55 235.213C305.823 232.685 304.071 230.164 302.57 227.509C301.037 224.91 299.92 222.112 299.256 219.205C298.582 216.008 298.723 212.719 299.017 209.487C299.091 208.679 299.17 207.877 299.25 207.069C299.25 206.931 299.011 206.902 298.993 207.041C298.52 210.203 298.358 213.4 298.509 216.591C298.766 219.522 299.558 222.39 300.849 225.068C302.143 227.728 303.646 230.294 305.345 232.743C307.183 235.473 309.021 238.185 310.858 240.897C312.696 243.609 314.613 246.385 316.445 249.155C317.339 250.499 318.215 251.855 319.049 253.235C319.909 254.586 320.686 255.983 321.376 257.418C321.729 258.133 321.947 258.901 322.02 259.686C322.049 260.497 321.891 261.305 321.554 262.052C320.941 263.535 320.121 264.937 319.373 266.38C317.879 269.225 316.359 272.058 314.791 274.869C311.643 280.507 303.152 293.779 302.705 294.46C302.674 294.512 302.754 294.552 302.791 294.506C306.399 289.076 310.785 282.751 314.032 277.119C315.665 274.307 317.243 271.472 318.767 268.613C319.535 267.19 320.286 265.755 321.021 264.308C321.695 262.993 322.473 261.637 322.516 260.142C322.559 258.647 321.885 257.251 321.18 255.941Z" fill="#11100A"/>
<path d="M318.239 205.159C316.769 212.269 312.518 232.72 310.19 244.031C306.196 238.018 301.577 231.335 297.975 225.755C294.128 219.817 295.917 207.624 296.193 205.2L318.239 205.159Z" fill="#11100A"/>
<path d="M322.686 353.194C321.283 353.615 281.3 353.084 279.806 352.155C279.23 351.803 278.973 346.315 278.862 339.673C278.862 338.242 279.199 316.377 279.199 316.377L305.944 316.66L304.639 339.945C304.639 339.945 319.856 346.598 321.393 347.787C322.931 348.976 324.089 352.773 322.686 353.194Z" fill="#DD6A57"/>
<path d="M315.302 344.739C317.389 345.641 319.418 346.658 321.378 347.786C322.916 348.975 324.092 352.772 322.689 353.187C321.287 353.603 281.304 353.083 279.809 352.154C279.337 351.872 279.08 348.207 278.945 343.285C288.036 344.479 316.527 348.046 316.233 345.76C316.196 345.547 315.847 345.183 315.302 344.739Z" fill="#11100A"/>
<path d="M319.035 205.212C319.035 205.212 314.508 225.986 314.269 226.65C312.061 227.524 309.912 228.528 307.837 229.656L306.22 335.259L277.38 335.438C277.38 335.438 280.957 279.463 280.853 275.862C280.694 270.091 283.346 231.058 282.979 230.077C279.211 220.06 285.123 205.264 285.123 205.264L319.035 205.212Z" fill="#37474F"/>
<path d="M305.136 330.221C297.001 329.892 281.246 330.03 279.255 330.354C279.212 330.354 279.212 330.434 279.255 330.44C281.27 330.746 300.389 330.781 305.136 330.342C305.15 330.338 305.162 330.33 305.17 330.319C305.179 330.308 305.183 330.295 305.183 330.281C305.183 330.268 305.179 330.255 305.17 330.244C305.162 330.233 305.15 330.225 305.136 330.221Z" fill="#11100A"/>
<path d="M283.905 303.341C284.364 295.401 284.861 287.46 285.345 279.52C285.828 271.58 286.306 263.634 286.79 255.693C287.029 251.723 287.256 247.753 287.513 243.782L287.899 237.827C288.108 235.868 288.198 233.899 288.168 231.93C288.052 229.783 287.054 227.89 286.484 225.842C285.972 223.892 285.723 221.889 285.743 219.88C285.743 215.737 286.631 211.64 287.47 207.595C287.519 207.37 287.887 207.468 287.838 207.693C286.862 211.402 286.269 215.192 286.067 219.009C286.004 220.913 286.179 222.817 286.588 224.682C286.998 226.471 287.813 228.144 288.303 229.875C288.793 231.606 288.579 233.592 288.456 235.45C288.328 237.435 288.224 239.42 288.113 241.405C287.887 245.294 287.642 249.184 287.409 253.079C286.447 268.879 285.516 284.685 284.493 300.485C283.905 309.377 283.458 318.264 282.68 327.168C282.68 327.232 282.563 327.232 282.57 327.168C282.888 319.222 283.439 311.282 283.905 303.341Z" fill="#11100A"/>
<path d="M288.239 217.653C288.723 217.468 289.262 217.41 289.758 217.266C290.285 217.119 290.8 216.94 291.302 216.73C292.255 216.323 293.145 215.797 293.948 215.166C294.717 214.51 295.299 213.682 295.639 212.759C295.847 212.269 296.043 211.773 296.252 211.276C296.35 211.034 296.454 210.786 296.558 210.543C296.595 210.445 296.864 209.926 296.907 209.764C296.898 209.772 296.886 209.777 296.873 209.777C296.861 209.777 296.849 209.772 296.84 209.764H296.809C296.802 209.755 296.798 209.744 296.798 209.733C296.798 209.721 296.802 209.71 296.809 209.701C296.84 209.643 296.846 209.637 296.913 209.62C296.927 209.617 296.942 209.618 296.955 209.623C296.968 209.628 296.979 209.637 296.987 209.649C297.091 209.81 296.987 209.966 296.95 210.139C296.87 210.468 296.791 210.792 296.705 211.115C296.552 211.692 296.411 212.269 296.239 212.811C295.966 213.865 295.379 214.824 294.549 215.575C293.68 216.295 292.68 216.858 291.596 217.237C291.042 217.44 290.47 217.599 289.887 217.711C289.351 217.841 288.795 217.88 288.245 217.826C288.141 217.791 288.19 217.682 288.239 217.653Z" fill="#11100A"/>
<path d="M311.537 223.349C311.587 222.396 311.648 221.45 311.721 220.498C311.881 218.328 312.083 216.153 312.444 214.012C312.475 213.839 312.726 213.902 312.714 214.058C312.591 215.743 312.414 217.428 312.279 219.107C312.144 220.786 311.96 222.466 311.96 224.139C311.96 224.641 312.009 225.495 312.671 225.628C313.553 225.801 313.951 224.699 314.153 224.099C314.633 222.59 314.975 221.046 315.176 219.482C315.434 217.711 315.556 215.922 315.703 214.144C315.703 214.081 315.819 214.087 315.826 214.144C315.899 217.67 315.911 221.358 314.6 224.71C314.506 225.055 314.314 225.369 314.046 225.619C313.777 225.869 313.442 226.045 313.075 226.13H313.038C313.038 226.13 313.038 226.17 313.038 226.188C313.038 226.205 312.995 226.39 312.983 226.488C312.971 226.586 312.953 226.649 312.934 226.736C312.916 226.822 312.879 227.076 312.836 227.249C312.829 227.279 312.812 227.306 312.787 227.325C312.762 227.344 312.731 227.355 312.698 227.355C312.666 227.355 312.635 227.344 312.61 227.325C312.585 227.306 312.567 227.279 312.561 227.249C312.538 227.241 312.518 227.227 312.504 227.209C312.49 227.19 312.482 227.168 312.481 227.146C312.492 226.801 312.569 226.461 312.708 226.141C312.491 226.104 312.287 226.015 312.116 225.884C311.945 225.753 311.811 225.584 311.727 225.391C311.494 224.734 311.429 224.034 311.537 223.349Z" fill="#11100A"/>
<path d="M314.295 226.447C311.448 227.621 308.716 229.027 306.13 230.648C306.025 230.712 306.13 230.862 306.215 230.804C308.972 229.489 311.79 228.219 314.467 226.765C314.511 226.743 314.545 226.706 314.561 226.661C314.576 226.616 314.572 226.567 314.549 226.525C314.527 226.483 314.487 226.451 314.439 226.437C314.392 226.422 314.34 226.426 314.295 226.447Z" fill="#11100A"/>
<path d="M307.023 281.851C307.023 281.598 307.108 281.499 307.121 281.811C307.188 283.542 307.164 286.076 307.182 287.83C307.182 289.896 307.182 291.956 307.182 294.016C307.182 296.076 307.102 298.142 307.017 300.208L306.882 303.295C306.839 304.011 306.882 305.419 306.808 306.129C306.808 306.446 306.704 306.504 306.674 306.186C306.618 305.153 306.618 304.328 306.582 303.301L306.545 300.202C306.545 298.142 306.545 296.076 306.545 294.016C306.545 291.956 306.625 289.89 306.71 287.83C306.796 285.77 306.863 283.912 307.023 281.851Z" fill="#11100A"/>
<path d="M321.411 175.908C321.422 175.983 321.405 176.058 321.36 176.121C321.316 176.184 321.249 176.229 321.172 176.249L319.879 176.364C318.587 173.34 317.227 170.945 317.594 171.886C318.158 173.361 318.498 174.903 318.605 176.468L316.051 176.652C314.826 171.303 313.343 167.356 313.478 168.574C314.017 173.519 313.796 175.117 313.533 176.826C307.364 177.253 299.272 177.714 293.416 177.928C292.607 174.979 291.878 171.776 291.78 172.007C291.058 173.698 290.947 176.133 291.009 178.009C289.14 178.061 287.652 178.072 286.721 178.009C286.721 178.009 286.175 175.521 286.077 174.702C285.817 172.61 285.945 170.491 286.457 168.441C287.065 166.417 287.886 164.454 288.907 162.584V162.543C289.53 161.296 289.999 159.985 290.304 158.637C290.305 158.627 290.305 158.617 290.304 158.608C290.512 157.624 290.63 156.626 290.659 155.624C290.77 151.954 292.681 148.746 296.056 147.701C302.237 141.434 308.816 143.869 310.972 148.521C311.181 148.976 311.389 149.496 311.585 150.067C312.339 152.168 313.049 154.903 313.686 156.992C313.926 157.819 314.216 158.632 314.556 159.427C316.443 163.305 320.265 165.394 321.411 175.908Z" fill="#11100A"/>
<path d="M294.674 148.757C293.588 149.316 292.674 150.131 292.021 151.122C291.368 152.113 290.999 153.247 290.95 154.412C290.916 155.957 290.681 157.492 290.251 158.983C289.662 160.433 288.851 161.793 287.844 163.022C286.273 164.931 285.349 167.242 285.191 169.653C285.063 172.324 285.326 175.469 286.325 177.933C285.514 175.115 285.285 172.177 285.651 169.277C286.012 166.392 287.562 164.505 289.13 162.266C290.4 160.487 291.156 158.426 291.323 156.288C291.434 154.966 291.354 153.587 291.832 152.335C292.395 150.835 293.608 149.859 294.821 148.994C295.005 148.901 294.839 148.659 294.674 148.757Z" fill="#11100A"/>
<path d="M318.586 163.536C316.914 161.493 315.186 159.756 314.145 157.188C313.201 154.88 312.607 152.393 311.645 150.067C311.645 150.027 311.578 150.067 311.59 150.067C313.097 154.199 313.538 158.4 316.362 161.84C317.894 163.709 319.425 165.44 320.479 167.703C321.559 170.081 322.181 172.621 322.317 175.204C322.313 175.214 322.313 175.224 322.314 175.234C322.316 175.244 322.32 175.253 322.327 175.261C322.333 175.269 322.341 175.275 322.351 175.28C322.36 175.284 322.37 175.287 322.381 175.287C322.391 175.287 322.402 175.284 322.411 175.28C322.421 175.275 322.429 175.269 322.435 175.261C322.441 175.253 322.446 175.244 322.447 175.234C322.449 175.224 322.448 175.214 322.445 175.204C322.653 171.009 321.287 166.878 318.586 163.536Z" fill="#11100A"/>
<path d="M333.483 152.202L329.52 169.306C329.342 169.814 329.618 170.207 330.132 170.195L339.425 169.918C339.709 169.888 339.978 169.784 340.201 169.616C340.424 169.449 340.593 169.225 340.687 168.972L344.657 151.873C344.828 151.365 344.552 150.973 344.044 150.985L334.751 151.261C334.467 151.29 334.197 151.393 333.973 151.559C333.749 151.726 333.579 151.949 333.483 152.202Z" fill="#37474F"/>
<path d="M334.58 152.162L330.616 169.266C330.439 169.768 330.714 170.166 331.229 170.149L340.528 169.872C340.81 169.842 341.078 169.739 341.3 169.572C341.522 169.406 341.69 169.184 341.784 168.931L345.772 151.827C345.943 151.325 345.667 150.927 345.159 150.944L335.866 151.221C335.579 151.246 335.305 151.348 335.077 151.515C334.849 151.681 334.677 151.906 334.58 152.162Z" fill="#455A64"/>
<path d="M337.155 152.86C337.157 152.958 337.138 153.055 337.1 153.146C337.061 153.237 337.005 153.32 336.932 153.39C336.86 153.46 336.774 153.516 336.679 153.555C336.583 153.594 336.481 153.615 336.377 153.616C336.168 153.616 335.967 153.538 335.818 153.398C335.67 153.258 335.587 153.069 335.587 152.872C335.587 152.674 335.67 152.485 335.818 152.345C335.967 152.206 336.168 152.127 336.377 152.127C336.583 152.129 336.78 152.206 336.925 152.344C337.071 152.481 337.153 152.666 337.155 152.86Z" fill="#11100A"/>
<path d="M304.389 178.793C309.902 189.232 322.049 202.684 326.938 202.643C329.265 202.643 333.425 203.053 336.42 200.474C342.944 194.836 348.255 184.212 349.241 178.176C349.591 176.023 338.436 171.632 336.849 173.409C333.125 177.57 328.886 185.666 328.206 185.631C325.7 185.539 315.758 178.037 308.769 172.792C300.321 166.409 302.189 174.633 304.389 178.793Z" fill="#FCB58A"/>
<path d="M349.248 167.113C347.973 162.797 346.944 161.874 347.918 157.69C348.562 154.949 346.975 153.385 344.978 155.618C341.707 159.271 342.111 165.169 342.871 167.16L349.248 167.113Z" fill="#FCB58A"/>
<path d="M348.745 180.046C348.745 180.046 350.656 173.952 349.78 169.226C349.167 165.959 347.017 158.983 337.179 155.492C334.845 154.661 330.9 155.041 334.19 157.696C336.524 159.583 338.613 160.114 339.758 161.447C339.758 161.447 334.796 162.491 334.006 164.725C333.317 166.679 332.774 168.677 332.383 170.703C332.762 170.855 333.15 170.984 333.547 171.09C333.547 171.09 333.02 173.242 334.741 176.185L348.745 180.046Z" fill="#FCB58A"/>
<path d="M348.675 166.19C347.242 165.099 344.155 162.826 340.951 161.793C337.386 160.639 330.194 159.346 329.312 161.833C328.699 163.657 331.376 164.378 331.376 164.378C331.376 164.378 328.313 164.43 328.087 166.196C327.909 167.806 330.035 168.25 330.035 168.25C330.035 168.25 328.16 168.585 328.307 170.166C328.485 172.065 332.375 171.055 334.317 172.832C334.745 173.236 348.675 166.19 348.675 166.19Z" fill="#FCB58A"/>
<path d="M340.29 165.544C337.542 164.301 334.456 163.879 331.445 164.332C331.371 164.332 331.341 164.407 331.414 164.407C334.409 164.455 337.388 164.842 340.284 165.561C340.284 165.561 340.309 165.556 340.29 165.544Z" fill="#11100A"/>
<path d="M338.963 168.897C337.566 168.319 333.413 167.431 330.05 168.187C329.976 168.187 329.952 168.268 330.05 168.262C333.042 168.165 336.037 168.39 338.975 168.931C338.975 168.931 338.981 168.902 338.963 168.897Z" fill="#11100A"/>
<path d="M309.458 188.263L318.647 179.197C318.647 179.197 311.786 173.294 306.751 170.991C301.715 168.689 300.888 171.77 302.977 176.519C305.066 181.269 309.458 188.263 309.458 188.263Z" fill="#FFA620"/>
<path opacity="0.1" d="M309.458 188.263L318.647 179.197C318.647 179.197 311.786 173.294 306.751 170.991C301.715 168.689 300.888 171.77 302.977 176.519C305.066 181.269 309.458 188.263 309.458 188.263Z" fill="black"/>
<path d="M317.951 197.3L322.27 216.383C322.27 216.383 288.97 218.911 280.657 218.876C280.657 218.876 284.89 182.435 293.154 172.786C297.289 167.956 302.538 167.973 306.085 170.951C306.986 171.707 317.914 183.6 319.305 188.315C320.524 192.464 317.951 197.3 317.951 197.3Z" fill="#EBEBEB"/>
<path d="M302.41 169.099H298.875C300.036 168.833 301.248 168.833 302.41 169.099Z" fill="#FFA620"/>
<path d="M306.05 170.922H295.098C295.251 170.801 295.41 170.686 295.569 170.582H305.616C305.763 170.691 305.91 170.801 306.05 170.922Z" fill="#FFA620"/>
<path d="M307.795 172.746H293.191L293.492 172.405H307.495L307.795 172.746Z" fill="#FFA620"/>
<path d="M309.449 174.575H291.868C291.936 174.46 292.009 174.344 292.089 174.235H309.155L309.449 174.575Z" fill="#FFA620"/>
<path d="M311.035 176.393H290.82C290.875 176.277 290.937 176.162 290.998 176.052H310.747L311.035 176.393Z" fill="#FFA620"/>
<path d="M312.568 178.216H289.902C289.957 178.101 290.006 177.985 290.055 177.876H312.255L312.568 178.216Z" fill="#FFA620"/>
<path d="M314.042 180.04H289.165L289.3 179.694H313.766L314.042 180.04Z" fill="#FFA620"/>
<path d="M315.446 181.863H288.493C288.536 181.742 288.573 181.632 288.616 181.517H315.201L315.446 181.863Z" fill="#FFA620"/>
<path d="M316.764 183.687H287.838L287.96 183.341H316.519L316.764 183.687Z" fill="#FFA620"/>
<path d="M317.944 185.539H287.26C287.26 185.418 287.327 185.308 287.364 185.193H317.729C317.809 185.279 317.876 185.395 317.944 185.539Z" fill="#FFA620"/>
<path d="M318.929 187.334H286.714C286.744 187.218 286.781 187.103 286.812 186.988H318.764C318.825 187.103 318.88 187.218 318.929 187.334Z" fill="#FFA620"/>
<path d="M319.501 189.152H286.207L286.299 188.811H319.433C319.433 188.927 319.482 189.036 319.501 189.152Z" fill="#FFA620"/>
<path d="M319.635 190.635C319.635 190.751 319.635 190.866 319.635 190.976H285.741C285.741 190.86 285.802 190.745 285.827 190.635H319.635Z" fill="#FFA620"/>
<path d="M319.507 192.464C319.507 192.58 319.47 192.695 319.446 192.805H285.282C285.282 192.695 285.331 192.58 285.362 192.464H319.507Z" fill="#FFA620"/>
<path d="M319.111 194.281C319.08 194.397 319.05 194.512 319.013 194.622H284.85C284.85 194.506 284.905 194.397 284.929 194.281H319.111Z" fill="#FFA620"/>
<path d="M318.491 196.105L318.35 196.445H284.444C284.444 196.33 284.487 196.22 284.518 196.105H318.491Z" fill="#FFA620"/>
<path d="M318.173 198.269H284.053C284.053 198.154 284.096 198.044 284.126 197.929H318.094L318.173 198.269Z" fill="#FFA620"/>
<path d="M318.583 200.093H283.666C283.666 199.978 283.709 199.868 283.733 199.753H318.497L318.583 200.093Z" fill="#FFA620"/>
<path d="M318.996 201.916H283.319C283.319 201.801 283.362 201.685 283.381 201.57H318.91L318.996 201.916Z" fill="#FFA620"/>
<path d="M319.435 203.739H282.98C282.98 203.624 283.023 203.509 283.042 203.393H319.331L319.435 203.739Z" fill="#FFA620"/>
<path d="M319.819 205.563H282.679C282.679 205.448 282.715 205.332 282.74 205.217H319.74L319.819 205.563Z" fill="#FFA620"/>
<path d="M320.237 207.387H282.343L282.398 207.041H320.157L320.237 207.387Z" fill="#FFA620"/>
<path d="M320.658 209.199H282.065C282.065 209.083 282.108 208.968 282.127 208.852H320.596L320.658 209.199Z" fill="#FFA620"/>
<path d="M321.056 211.029H281.747L281.802 210.688H321.007L321.056 211.029Z" fill="#FFA620"/>
<path d="M321.471 212.852H281.451L281.506 212.512H321.391L321.471 212.852Z" fill="#FFA620"/>
<path d="M321.883 214.675H281.208C281.208 214.565 281.245 214.45 281.257 214.334H321.803L321.883 214.675Z" fill="#FFA620"/>
<path d="M322.269 216.384L320.75 216.499H280.963C280.963 216.389 280.963 216.28 281.006 216.158H322.22L322.269 216.384Z" fill="#FFA620"/>
<path d="M299.398 217.982C297.511 218.103 295.637 218.219 293.83 218.322H280.727C280.727 218.224 280.727 218.109 280.769 217.982H299.398Z" fill="#FFA620"/>
<path d="M319.122 194.045C319.39 192.909 319.477 191.742 319.379 190.583C319.066 188.247 318.215 186.004 316.886 184.01C316.169 182.856 315.311 181.794 314.601 180.646C314.598 180.643 314.597 180.639 314.596 180.636C314.595 180.632 314.594 180.628 314.595 180.624C314.596 180.621 314.597 180.617 314.599 180.614C314.601 180.61 314.604 180.608 314.607 180.605C314.61 180.603 314.614 180.601 314.618 180.6C314.622 180.599 314.626 180.599 314.63 180.6C314.634 180.6 314.638 180.602 314.641 180.604C314.644 180.605 314.647 180.608 314.65 180.611C315.312 181.36 315.926 182.146 316.488 182.965C316.477 182.937 316.463 182.91 316.445 182.885C316.249 182.435 316.047 181.99 315.832 181.552C315.832 181.505 315.893 181.465 315.918 181.511C316.163 181.938 316.396 182.365 316.616 182.798C316.751 183.081 316.867 183.375 316.972 183.652C317.676 184.653 318.291 185.706 318.809 186.803C319.893 188.96 320.197 191.393 319.673 193.728C319.318 194.99 318.754 196.192 318.001 197.288C317.994 197.296 317.984 197.302 317.973 197.304C317.962 197.307 317.95 197.305 317.94 197.301C317.93 197.296 317.922 197.288 317.918 197.278C317.913 197.269 317.912 197.258 317.915 197.248C318.436 196.213 318.846 195.133 319.14 194.022" fill="#11100A"/>
<path d="M298.33 171.326C298.581 171.903 302.33 175.435 305.277 174.87C306.232 174.685 305.393 169.711 305.393 169.711V169.33L305.773 164.003L298.71 161.06L297.699 160.68C297.699 160.68 297.699 162.145 297.699 163.969V164.546C297.699 164.817 297.699 165.123 297.699 165.377C297.699 165.631 297.699 165.792 297.699 166.012C297.699 166.231 297.699 166.45 297.699 166.669C297.795 168.234 298.005 169.79 298.33 171.326Z" fill="#FCB58A"/>
<path d="M297.743 163.969C298.533 165.333 299.629 166.519 300.955 167.445C302.28 168.37 303.803 169.014 305.419 169.33L305.798 164.003L298.735 161.06L297.725 160.68C297.725 160.68 297.725 162.145 297.743 163.969Z" fill="#11100A"/>
<path d="M312.762 156.005C313.798 165.325 307.99 166.969 305.859 167.166C303.923 167.356 297.283 167.743 295.249 158.602C293.215 149.461 297.466 146.034 301.877 145.381C306.287 144.729 311.727 146.686 312.762 156.005Z" fill="#FCB58A"/>
<path d="M310.563 153.997C310.336 153.987 310.109 153.966 309.883 153.934C309.638 153.942 309.396 153.873 309.197 153.737C309.144 153.684 309.111 153.615 309.103 153.542C309.096 153.469 309.113 153.396 309.154 153.333C309.255 153.22 309.386 153.135 309.534 153.086C309.681 153.038 309.84 153.027 309.994 153.056C310.313 153.07 310.616 153.193 310.845 153.403C310.896 153.453 310.93 153.517 310.942 153.586C310.955 153.654 310.946 153.725 310.915 153.789C310.885 153.852 310.836 153.906 310.773 153.943C310.71 153.98 310.637 153.999 310.563 153.997Z" fill="#11100A"/>
<path d="M304.05 154.707C304.272 154.654 304.491 154.588 304.705 154.511C304.942 154.469 305.157 154.356 305.318 154.187C305.36 154.125 305.378 154.052 305.371 153.979C305.363 153.905 305.329 153.837 305.275 153.784C305.151 153.694 305.004 153.637 304.85 153.618C304.695 153.599 304.537 153.618 304.393 153.674C304.082 153.75 303.812 153.931 303.633 154.182C303.594 154.242 303.574 154.312 303.577 154.383C303.581 154.453 303.607 154.521 303.651 154.578C303.696 154.635 303.759 154.677 303.83 154.7C303.901 154.723 303.978 154.726 304.05 154.707Z" fill="#11100A"/>
<path d="M305.798 156.929C305.798 156.929 305.749 156.963 305.755 156.992C305.859 157.621 305.872 158.36 305.296 158.643C305.296 158.643 305.296 158.683 305.296 158.677C306.031 158.493 306.006 157.512 305.798 156.929Z" fill="#11100A"/>
<path d="M305.105 156.34C304.015 156.398 304.211 158.446 305.222 158.394C306.232 158.342 306.024 156.294 305.105 156.34Z" fill="#11100A"/>
<path d="M304.689 156.484C304.511 156.617 304.346 156.836 304.119 156.883C303.892 156.929 303.635 156.727 303.439 156.536C303.439 156.536 303.402 156.536 303.402 156.565C303.433 156.958 303.635 157.35 304.088 157.367C304.542 157.385 304.762 157.015 304.83 156.611C304.842 156.536 304.762 156.432 304.689 156.484Z" fill="#11100A"/>
<path d="M309.521 156.45C309.521 156.45 309.576 156.45 309.576 156.502C309.613 157.142 309.766 157.864 310.391 158.031V158.065C309.631 158.025 309.441 157.061 309.521 156.45Z" fill="#11100A"/>
<path d="M310.064 155.74C311.142 155.578 311.406 157.627 310.407 157.771C309.409 157.915 309.157 155.878 310.064 155.74Z" fill="#11100A"/>
<path d="M310.539 155.826C310.723 155.912 310.919 156.091 311.121 156.08C311.323 156.068 311.513 155.826 311.636 155.595C311.636 155.595 311.666 155.595 311.673 155.595C311.734 155.987 311.673 156.409 311.262 156.53C310.852 156.651 310.594 156.334 310.447 155.953C310.417 155.907 310.46 155.786 310.539 155.826Z" fill="#11100A"/>
<path d="M306.344 162.006C306.515 162.145 306.687 162.347 306.957 162.353C307.208 162.341 307.453 162.276 307.673 162.162C307.673 162.162 307.716 162.162 307.704 162.197C307.614 162.326 307.488 162.43 307.34 162.497C307.192 162.564 307.028 162.592 306.865 162.578C306.725 162.549 306.598 162.483 306.499 162.386C306.4 162.289 306.333 162.167 306.307 162.035C306.27 162.001 306.319 161.983 306.344 162.006Z" fill="#11100A"/>
<path d="M308.916 159.439C308.916 159.439 309.154 160.374 309.203 160.824C309.203 160.864 309.093 160.893 308.934 160.922C308.534 161.031 308.111 161.035 307.709 160.933C307.307 160.831 306.943 160.628 306.655 160.345C306.618 160.304 306.655 160.252 306.723 160.276C307.37 160.605 308.113 160.731 308.842 160.633C308.842 160.506 308.37 159.046 308.444 159.035C308.816 159.029 309.187 159.072 309.546 159.162C309.105 157.2 308.321 155.324 307.923 153.391C307.922 153.377 307.926 153.364 307.934 153.352C307.942 153.34 307.954 153.332 307.968 153.327C307.982 153.323 307.997 153.322 308.011 153.327C308.025 153.331 308.037 153.339 308.046 153.351C308.938 155.341 309.619 157.409 310.079 159.525C310.122 159.739 309.112 159.497 308.916 159.439Z" fill="#11100A"/>
<path d="M308.818 160.812C308.59 161.188 308.263 161.502 307.869 161.724C307.648 161.839 307.396 161.887 307.146 161.863C306.601 161.799 306.533 161.349 306.564 160.945C306.586 160.733 306.636 160.523 306.711 160.322C307.34 160.693 308.078 160.865 308.818 160.812Z" fill="#11100A"/>
<path d="M307.868 161.724C307.648 161.839 307.396 161.887 307.146 161.862C306.601 161.799 306.533 161.349 306.564 160.945C306.842 160.919 307.122 160.982 307.358 161.123C307.595 161.264 307.774 161.476 307.868 161.724Z" fill="#FF9ABB"/>
<path d="M296.002 158.204C297.839 158.487 298.452 154.58 298.452 154.58C298.452 154.58 306.256 153.639 307.163 147.725C308.039 150.179 309.883 152.223 312.315 153.432C312.315 153.432 312.315 146.905 306.893 145.434C306.893 145.434 300.192 142.837 296.149 147.782C292.106 152.728 294.789 158.014 296.002 158.204Z" fill="#11100A"/>
<path d="M307.182 147.286C307.232 148.207 307.073 149.128 306.716 149.987C306.372 150.86 305.84 151.658 305.154 152.33C304.981 152.496 304.799 152.654 304.609 152.803L304.333 153.034L304.027 153.23C303.818 153.357 303.616 153.489 303.414 153.605C303.212 153.72 302.973 153.813 302.753 153.911C302.642 153.957 302.532 154.015 302.422 154.055L302.073 154.17L301.38 154.39C300.909 154.493 300.431 154.574 299.953 154.649C300.406 154.482 300.872 154.367 301.313 154.199L301.968 153.928L302.293 153.795L302.599 153.628C302.808 153.512 303.01 153.403 303.212 153.299C303.414 153.195 303.592 153.039 303.782 152.912L304.07 152.716L304.327 152.497C304.507 152.355 304.676 152.203 304.835 152.041C305.818 151.067 306.526 149.877 306.894 148.579C307.028 148.156 307.125 147.724 307.182 147.286Z" fill="#11100A"/>
<path d="M297.121 158.994C297.121 158.994 294.898 156.109 293.501 156.859C292.105 157.609 293.82 161.822 295.486 162.376C295.694 162.46 295.918 162.504 296.145 162.504C296.371 162.505 296.596 162.462 296.804 162.379C297.013 162.296 297.202 162.175 297.36 162.021C297.517 161.868 297.64 161.686 297.722 161.487L297.121 158.994Z" fill="#FCB58A"/>
<path d="M294.026 158.077V158.117C295.196 158.544 295.827 159.543 296.275 160.587C296.205 160.479 296.111 160.386 295.999 160.316C295.888 160.245 295.761 160.198 295.628 160.178C295.496 160.157 295.36 160.164 295.23 160.198C295.101 160.232 294.981 160.292 294.878 160.374C294.878 160.374 294.878 160.437 294.908 160.431C295.111 160.366 295.33 160.361 295.535 160.418C295.74 160.475 295.922 160.59 296.054 160.749C296.272 161.017 296.461 161.305 296.618 161.609C296.673 161.707 296.863 161.649 296.82 161.539C296.807 160.149 295.619 158.192 294.026 158.077Z" fill="#11100A"/>
<path d="M296.925 147.678C297.813 147.367 298.658 142.687 295.393 140.453C292.128 138.22 287.945 140.771 289.696 144.608C290.805 147.032 295.044 148.336 296.925 147.678Z" fill="#11100A"/>
<path d="M290.825 140.182C289.86 140.942 289.197 141.987 288.944 143.148C288.814 143.688 288.837 144.251 289.012 144.78C289.186 145.308 289.505 145.785 289.937 146.16C290.852 146.928 291.972 147.445 293.177 147.655C293.791 147.783 294.417 147.856 295.046 147.874C295.68 147.916 296.317 147.849 296.926 147.678C296.351 147.978 295.713 148.155 295.058 148.197C294.402 148.263 293.739 148.253 293.085 148.169C291.733 148.032 290.461 147.499 289.447 146.645C288.933 146.188 288.56 145.607 288.369 144.966C288.203 144.327 288.215 143.659 288.405 143.027C288.583 142.423 288.888 141.859 289.304 141.37C289.72 140.881 290.238 140.477 290.825 140.182Z" fill="#11100A"/>
<path d="M292.539 173.525C284.343 185.141 279.711 200.606 280.287 204.011C280.949 207.756 286.56 220.417 292.343 225.997C293.868 227.469 305.421 215.396 303.859 213.763C300.851 210.613 294.879 201.328 294.615 199.21C294.37 197.254 297.397 184.668 298.193 177.512C298.989 170.639 296.349 168.118 292.539 173.525Z" fill="#FCB58A"/>
<path d="M303.506 213.377C303.506 213.377 309.779 215.974 313.797 217.855C316.039 218.905 319.715 221.029 320.989 222.512C322.888 224.722 329.35 235.132 326.704 236.661C324.309 238.046 319.966 228.444 319.966 228.444C319.966 228.444 325.258 237.769 322.048 238.941C318.839 240.112 315.463 228.635 315.463 228.635C315.463 228.635 320.676 238.335 317.166 239.022C314.532 239.587 310.857 229.362 310.857 229.362C310.857 229.362 315.273 237.729 312.572 238.393C309.583 239.126 305.558 229.887 305.558 229.887C298.385 230.464 294.709 228 292.32 225.945C291.732 225.449 303.506 213.377 303.506 213.377Z" fill="#FCB58A"/>
<path d="M318.372 225.103C319.034 226.176 319.714 227.261 320.278 228.386C320.841 229.512 321.356 230.66 321.803 231.849C322.418 233.367 322.845 234.947 323.077 236.558C322.464 233.73 320.504 229.667 319.941 228.542C319.377 227.417 318.881 226.234 318.323 225.137C318.311 225.097 318.354 225.08 318.372 225.103Z" fill="#11100A"/>
<path d="M314.018 226.938C314.802 228.34 315.635 229.714 316.358 231.15C317.08 232.587 317.583 234.001 318.195 235.478C318.238 235.594 318.159 235.577 318.11 235.478C317.436 234.024 316.701 232.732 316.008 231.289C315.316 229.846 314.691 228.404 313.95 226.961C313.969 226.926 314.005 226.915 314.018 226.938Z" fill="#11100A"/>
<path d="M309.981 227.873C311.242 230.004 312.268 232.251 313.044 234.579C313.087 234.694 312.983 234.665 312.934 234.579C311.966 232.334 311.219 230.539 309.914 227.948C309.883 227.879 309.951 227.833 309.981 227.873Z" fill="#11100A"/>
<path d="M284.661 185.441L297.721 187.813C297.721 187.813 299.283 179.185 298.616 173.963C297.948 168.741 294.75 169.745 291.645 173.963C288.539 178.181 284.661 185.441 284.661 185.441Z" fill="#FFA620"/>
<path opacity="0.1" d="M284.661 185.441L297.721 187.813C297.721 187.813 299.283 179.185 298.616 173.963C297.948 168.741 294.75 169.745 291.645 173.963C288.539 178.181 284.661 185.441 284.661 185.441Z" fill="black"/>
</svg>
