<svg width="472" height="349" viewBox="0 0 472 349" fill="none" xmlns="http://www.w3.org/2000/svg">
<g clip-path="url(#clip0_435_400)">
<path d="M472 300.764H0V300.976H472V300.764Z" fill="#E6E6E6"/>
<path d="M117.83 313.635H86.5645V313.847H117.83V313.635Z" fill="#E6E6E6"/>
<path d="M76.671 313.635H58.5557V313.847H76.671V313.635Z" fill="#E6E6E6"/>
<path d="M198.76 316.766H180.645V316.978H198.76V316.766Z" fill="#E6E6E6"/>
<path d="M293.215 321.512H252.443V321.724H293.215V321.512Z" fill="#E6E6E6"/>
<path d="M244.043 321.512H238.067V321.724H244.043V321.512Z" fill="#E6E6E6"/>
<path d="M427.962 316.766H339.528V316.978H427.962V316.766Z" fill="#E6E6E6"/>
<path d="M223.728 262.823H41.4511C40.0232 262.821 38.6546 262.308 37.6457 261.398C36.6369 260.487 36.0703 259.253 36.0703 257.966V27.0639C36.0827 25.7845 36.6548 24.5612 37.6623 23.6596C38.6698 22.7581 40.0313 22.2512 41.4511 22.249H223.728C225.158 22.249 226.529 22.7608 227.54 23.6717C228.55 24.5827 229.118 25.8182 229.118 27.1064V257.966C229.118 259.254 228.55 260.49 227.54 261.401C226.529 262.312 225.158 262.823 223.728 262.823ZM41.4511 22.4192C40.0858 22.4214 38.7772 22.9118 37.8126 23.7826C36.848 24.6534 36.3063 25.8335 36.3063 27.0639V257.966C36.3063 259.196 36.848 260.377 37.8126 261.247C38.7772 262.118 40.0858 262.609 41.4511 262.611H223.728C225.094 262.609 226.404 262.118 227.37 261.248C228.336 260.377 228.88 259.197 228.882 257.966V27.0639C228.88 25.8327 228.336 24.6526 227.37 23.7821C226.404 22.9115 225.094 22.4214 223.728 22.4192H41.4511Z" fill="#E6E6E6"/>
<path d="M427.925 262.823H245.638C244.209 262.821 242.84 262.309 241.83 261.398C240.819 260.488 240.251 259.254 240.248 257.966V27.0639C240.263 25.7837 240.837 24.5604 241.846 23.6591C242.855 22.7578 244.218 22.2512 245.638 22.249H427.925C429.343 22.2535 430.702 22.7613 431.707 23.6626C432.713 24.5639 433.284 25.786 433.296 27.0639V257.966C433.296 259.251 432.731 260.484 431.724 261.395C430.717 262.305 429.351 262.819 427.925 262.823ZM245.638 22.4192C244.272 22.4214 242.963 22.9115 241.996 23.7821C241.03 24.6526 240.487 25.8327 240.484 27.0639V257.966C240.487 259.197 241.03 260.377 241.996 261.248C242.963 262.118 244.272 262.609 245.638 262.611H427.925C429.291 262.609 430.6 262.118 431.567 261.248C432.533 260.377 433.076 259.197 433.079 257.966V27.0639C433.076 25.8327 432.533 24.6526 431.567 23.7821C430.6 22.9115 429.291 22.4214 427.925 22.4192H245.638Z" fill="#E6E6E6"/>
<path d="M252.426 228.098H231.667V302.303H252.426V228.098Z" fill="#E0E0E0"/>
<path d="M248.479 302.303H252.425V292.197H244.345L248.479 302.303Z" fill="#FAFAFA"/>
<path d="M161.462 228.098H140.703V302.303H161.462V228.098Z" fill="#E0E0E0"/>
<path d="M252.426 228.098H158.026V296.102H252.426V228.098Z" fill="#FAFAFA"/>
<path d="M248.999 231.441V249.433H161.424V231.441H248.97H248.999ZM249.339 231.109H161.084V249.756H249.367V231.109H249.339Z" fill="#E0E0E0"/>
<path d="M161.963 302.303H158.026V292.197H166.098L161.963 302.303Z" fill="#FAFAFA"/>
<path d="M203.139 240.434C203.139 240.806 203.261 241.169 203.49 241.478C203.72 241.787 204.045 242.028 204.427 242.171C204.808 242.313 205.227 242.35 205.632 242.278C206.037 242.205 206.408 242.026 206.7 241.763C206.992 241.5 207.191 241.165 207.271 240.801C207.352 240.436 207.31 240.058 207.152 239.714C206.994 239.371 206.727 239.077 206.384 238.871C206.041 238.664 205.638 238.554 205.225 238.554C204.672 238.554 204.141 238.752 203.75 239.104C203.358 239.457 203.139 239.935 203.139 240.434Z" fill="#E6E6E6"/>
<path d="M248.999 253.1V271.092H161.424V253.1H248.97H248.999ZM249.339 252.776H161.084V271.423H249.367V252.785L249.339 252.776Z" fill="#E0E0E0"/>
<path d="M203.139 262.143C203.139 262.515 203.261 262.878 203.49 263.187C203.72 263.496 204.045 263.737 204.427 263.88C204.808 264.022 205.227 264.059 205.632 263.987C206.037 263.914 206.408 263.735 206.7 263.472C206.992 263.209 207.191 262.874 207.271 262.509C207.352 262.145 207.31 261.767 207.152 261.423C206.994 261.08 206.727 260.786 206.384 260.58C206.041 260.373 205.638 260.263 205.225 260.263C204.672 260.263 204.141 260.461 203.75 260.813C203.358 261.166 203.139 261.644 203.139 262.143Z" fill="#E6E6E6"/>
<path d="M248.999 274.767V292.768H161.424V274.767H248.97H248.999ZM249.339 274.436H161.084V293.091H249.367V274.436H249.339Z" fill="#E0E0E0"/>
<path d="M203.139 283.767C203.141 284.139 203.264 284.502 203.495 284.81C203.725 285.118 204.052 285.357 204.433 285.498C204.814 285.639 205.234 285.675 205.638 285.602C206.042 285.528 206.413 285.349 206.703 285.085C206.994 284.822 207.192 284.487 207.272 284.123C207.351 283.758 207.31 283.381 207.151 283.038C206.993 282.694 206.726 282.401 206.383 282.195C206.04 281.989 205.637 281.879 205.225 281.879C204.95 281.879 204.678 281.928 204.424 282.023C204.171 282.118 203.94 282.257 203.746 282.433C203.553 282.608 203.399 282.816 203.295 283.045C203.19 283.274 203.137 283.52 203.139 283.767Z" fill="#E6E6E6"/>
<path d="M148.784 185.002H128.025V302.312H148.784V185.002Z" fill="#E0E0E0"/>
<path d="M144.838 302.303H148.784V292.197H140.713L144.838 302.303Z" fill="#FAFAFA"/>
<path d="M71.2048 185.002H50.4463V302.312H71.2048V185.002Z" fill="#FEF6CC"/>
<path d="M148.783 185.002H67.7598V296.11H148.783V185.002Z" fill="#FAFAFA"/>
<path d="M145.291 188.133V213.288H71.2529V188.133H145.291ZM145.725 187.75H70.7998V213.653H145.706V187.759L145.725 187.75Z" fill="#E0E0E0"/>
<path d="M145.29 216.359V283.078H110.022V216.359H145.29ZM145.725 215.968H109.598V283.47H145.725V215.968Z" fill="#E0E0E0"/>
<path d="M106.521 216.359V283.078H71.2529V216.359H106.521ZM106.946 215.968H70.7998V283.47H106.927V215.968H106.946Z" fill="#F7B933"/>
<path d="M71.7057 302.303H67.7598V292.197H75.8404L71.7057 302.303Z" fill="#FAFAFA"/>
<path d="M106.181 200.723C106.179 201.097 106.3 201.463 106.529 201.774C106.758 202.086 107.085 202.329 107.468 202.474C107.851 202.618 108.272 202.656 108.679 202.585C109.087 202.513 109.461 202.333 109.755 202.07C110.049 201.806 110.249 201.469 110.331 201.103C110.413 200.736 110.372 200.356 110.213 200.011C110.055 199.665 109.786 199.37 109.442 199.162C109.097 198.954 108.691 198.843 108.276 198.843C107.722 198.843 107.191 199.041 106.798 199.393C106.405 199.745 106.183 200.223 106.181 200.723Z" fill="#E6E6E6"/>
<path d="M113.658 248.132C113.658 248.506 113.781 248.871 114.012 249.182C114.243 249.493 114.571 249.735 114.954 249.877C115.338 250.02 115.759 250.057 116.166 249.983C116.573 249.91 116.946 249.729 117.239 249.464C117.532 249.199 117.731 248.862 117.81 248.495C117.89 248.128 117.847 247.748 117.687 247.403C117.527 247.058 117.257 246.764 116.911 246.557C116.565 246.351 116.159 246.241 115.744 246.243C115.47 246.243 115.198 246.292 114.944 246.387C114.69 246.482 114.46 246.621 114.266 246.797C114.072 246.972 113.919 247.181 113.814 247.41C113.71 247.639 113.657 247.884 113.658 248.132Z" fill="#E6E6E6"/>
<path d="M98.7139 248.132C98.7158 248.503 98.8397 248.866 99.0701 249.174C99.3004 249.482 99.6269 249.722 100.008 249.862C100.39 250.003 100.809 250.04 101.213 249.966C101.617 249.893 101.988 249.713 102.279 249.45C102.569 249.186 102.767 248.851 102.847 248.487C102.927 248.122 102.885 247.745 102.727 247.402C102.568 247.059 102.301 246.766 101.958 246.559C101.615 246.353 101.212 246.243 100.8 246.243C100.525 246.243 100.253 246.292 99.9996 246.387C99.7458 246.482 99.5154 246.621 99.3216 246.797C99.1277 246.972 98.9743 247.181 98.87 247.41C98.7657 247.639 98.7126 247.884 98.7139 248.132Z" fill="#E6E6E6"/>
<path d="M96.3533 152.293H87.6024C88.4089 156.118 88.9167 159.99 89.1223 163.879C89.1223 168.133 82.4576 185.002 91.9543 185.002C101.451 185.002 94.7863 168.175 94.7863 163.879C95.0074 159.989 95.531 156.117 96.3533 152.293Z" fill="#E0E0E0"/>
<path d="M63.0586 169.545V174.649C63.0685 177.385 64.2791 180.007 66.4262 181.942C68.5732 183.876 71.4824 184.967 74.5188 184.976H80.1828C83.2191 184.967 86.1283 183.876 88.2753 181.942C90.4224 180.007 91.633 177.385 91.6429 174.649V169.545H63.0586Z" fill="#F5F5F5"/>
<path d="M184.712 217.277C184.712 223.232 192.103 228.098 201.138 228.098H209.294C218.328 228.098 225.719 223.232 225.719 217.277H184.712Z" fill="#E0E0E0"/>
<path d="M400.831 208.549C395.885 212.19 389.05 218.851 382.801 228.226C378.628 234.47 376.117 240.986 375.013 249.646C375.013 239.863 375.079 229.357 375.117 219.438C376.372 216.886 379.242 210.999 381.3 206.354C388.163 190.846 390.74 187.027 396.904 173.654C405.145 155.789 413.585 134.641 411.168 136.334C406.24 139.78 387.36 171.638 385.321 176.197C379.763 188.366 376.327 201.236 375.135 214.351C375.135 204.993 375.211 196.486 375.249 189.885C375.381 168.354 375.787 161.404 375.985 159.26C376.75 158.171 377.647 156.904 378.175 156.223C382.612 150.439 384.321 145.522 388.493 136.896C394.421 124.688 399.519 103.004 398.027 104.093C391.816 108.653 386.926 118.436 380.488 130.915C374.05 143.395 375.891 150.566 374.616 161.217C374.352 163.31 374.144 171.204 373.993 182.135C372.332 170.481 369.198 162.808 363.487 155.832C356.463 147.249 349.666 141.455 344.682 138.427C339.698 135.399 353.291 156.479 359.786 165.649C365.573 173.85 370.906 181.072 373.946 188.192C373.786 203.02 373.71 221.786 373.71 239.233C372.219 231.288 369.783 222.722 366.536 216.095C362.627 208.132 356.624 195.916 351.838 191.774C350.695 190.778 356.841 214.538 360.787 220.85C364.733 227.162 367.631 233.126 370.113 236.707C370.689 237.558 372.615 240.765 373.71 242.619C373.71 263.946 373.842 282.763 374.05 289.169H375.069C375.003 287.518 374.984 276.664 375.013 262.304C377.477 254.512 383.103 245.614 387.747 237.498C392.807 228.71 405.778 204.934 400.831 208.549Z" fill="#5F8186"/>
<path d="M389.344 302.304H359.759L357.521 276.171H391.581L389.344 302.304Z" fill="#F0F0F0"/>
<path d="M393.78 279.216H355.312L354.217 270.395H394.884L393.78 279.216Z" fill="#F5F5F5"/>
<path d="M117.301 39.6875H64.3896V92.0473H117.301V39.6875Z" fill="#E0E0E0"/>
<path d="M123.032 39.6875H68.374V92.0473H123.032V39.6875Z" fill="#F5F5F5"/>
<path d="M118.453 87.9216V43.8135H72.9523V87.9216H118.453Z" fill="white"/>
<path d="M107.418 77.2199V54.498H83.9785V77.2199H107.418Z" fill="#FEF6CC"/>
<path d="M387.087 45.7871H337.933V94.4294H387.087V45.7871Z" fill="#E0E0E0"/>
<path d="M392.411 45.7871H341.643V94.4294H392.411V45.7871Z" fill="#F5F5F5"/>
<path d="M388.163 90.5931V49.624H345.9V90.5931H388.163Z" fill="white"/>
<path d="M367.028 81.9928C374.311 81.9928 380.215 76.6721 380.215 70.1087C380.215 63.5453 374.311 58.2246 367.028 58.2246C359.744 58.2246 353.84 63.5453 353.84 70.1087C353.84 76.6721 359.744 81.9928 367.028 81.9928Z" fill="#FEF6CC"/>
<path d="M172.271 70.9082H133.02V109.751H172.271V70.9082Z" fill="#E0E0E0"/>
<path d="M176.519 70.9082H135.975V109.751H176.519V70.9082Z" fill="#F5F5F5"/>
<path d="M173.12 106.688V73.9707H139.372V106.688H173.12Z" fill="white"/>
<path d="M156.251 82.0518L147.019 96.4624H165.483L156.251 82.0518Z" fill="#F5F5F5"/>
<path d="M236 339.18C337.086 339.18 419.032 334.869 419.032 329.551C419.032 324.232 337.086 319.921 236 319.921C134.914 319.921 52.9678 324.232 52.9678 329.551C52.9678 334.869 134.914 339.18 236 339.18Z" fill="#F5F5F5"/>
<path d="M275.736 228.839L204.032 228.492C199.892 228.469 195.929 226.719 193.015 223.629C190.101 220.539 188.474 216.361 188.491 212.011L189.252 23.2182C189.261 21.0635 189.673 18.9316 190.467 16.9445C191.26 14.9574 192.419 13.154 193.876 11.6374C195.333 10.1208 197.061 8.92074 198.96 8.10579C200.859 7.29083 202.893 6.87699 204.944 6.88791L276.641 7.23472C280.782 7.25666 284.745 9.00387 287.66 12.0926C290.576 15.1814 292.204 19.3591 292.189 23.7082L291.428 212.494C291.42 214.649 291.007 216.782 290.214 218.77C289.421 220.758 288.263 222.562 286.805 224.08C285.348 225.598 283.621 226.799 281.722 227.616C279.822 228.433 277.789 228.848 275.736 228.839Z" fill="#455A64"/>
<path d="M276.534 13.7263H262.637C262.183 13.7351 261.736 13.8377 261.32 14.0281C260.905 14.2186 260.529 14.4932 260.214 14.8362C259.9 15.1793 259.652 15.5841 259.487 16.0275C259.321 16.4709 259.24 16.9443 259.249 17.4206V20.0669C259.257 20.5428 259.176 21.0157 259.011 21.4587C258.845 21.9017 258.598 22.306 258.283 22.6485C257.968 22.991 257.592 23.2649 257.177 23.4545C256.761 23.6441 256.314 23.7458 255.861 23.7536L228.77 23.6255C227.853 23.5998 226.984 23.1931 226.353 22.4948C225.721 21.7965 225.38 20.8636 225.403 19.901V17.2547C225.426 16.2934 225.086 15.3616 224.456 14.6635C223.826 13.9654 222.959 13.5579 222.044 13.5302H217.155L204.988 13.4699C202.094 13.4518 199.311 14.6389 197.248 16.7712C195.186 18.9035 194.012 21.8073 193.984 24.8468L193.266 209.124C193.259 210.632 193.535 212.126 194.079 213.522C194.622 214.918 195.422 216.188 196.432 217.259C197.443 218.33 198.644 219.182 199.968 219.765C201.292 220.348 202.712 220.652 204.148 220.659L275.701 221.006C277.138 221.013 278.562 220.723 279.892 220.152C281.222 219.581 282.431 218.74 283.452 217.678C284.472 216.616 285.284 215.353 285.839 213.962C286.395 212.57 286.685 211.078 286.691 209.569L287.409 25.2917C287.426 22.2436 286.291 19.3131 284.251 17.1444C282.212 14.9757 279.436 13.7462 276.534 13.7263Z" fill="white"/>
<path d="M266.907 196.42L213.702 196.178C213.149 196.178 212.704 195.545 212.711 194.776L212.768 180.157C212.768 179.403 213.221 178.755 213.773 178.755L266.979 179.011C267.285 179.067 267.559 179.245 267.744 179.507C267.928 179.77 268.009 180.097 267.97 180.421L267.919 195.025C267.919 195.801 267.46 196.427 266.907 196.42Z" fill="#FFA620"/>
<path d="M226.712 190.046C226.256 190.046 225.82 189.986 225.403 189.867C224.985 189.742 224.649 189.582 224.394 189.387L224.842 188.395C225.085 188.569 225.373 188.712 225.703 188.826C226.04 188.935 226.378 188.989 226.72 188.989C226.98 188.989 227.189 188.964 227.346 188.916C227.509 188.861 227.628 188.788 227.704 188.696C227.78 188.604 227.818 188.498 227.818 188.379C227.818 188.227 227.758 188.108 227.639 188.021C227.519 187.929 227.362 187.856 227.167 187.802C226.972 187.742 226.755 187.688 226.517 187.639C226.284 187.585 226.048 187.52 225.809 187.444C225.576 187.368 225.362 187.27 225.167 187.151C224.972 187.032 224.812 186.875 224.687 186.679C224.568 186.484 224.508 186.235 224.508 185.931C224.508 185.606 224.595 185.311 224.768 185.045C224.947 184.774 225.213 184.56 225.565 184.403C225.923 184.24 226.37 184.159 226.907 184.159C227.265 184.159 227.617 184.202 227.964 184.289C228.311 184.37 228.617 184.495 228.883 184.663L228.476 185.663C228.211 185.511 227.945 185.4 227.679 185.33C227.414 185.254 227.154 185.216 226.899 185.216C226.644 185.216 226.435 185.246 226.273 185.305C226.11 185.365 225.993 185.444 225.923 185.541C225.853 185.633 225.817 185.742 225.817 185.866C225.817 186.013 225.877 186.132 225.996 186.224C226.115 186.311 226.273 186.381 226.468 186.436C226.663 186.49 226.877 186.544 227.11 186.598C227.349 186.652 227.585 186.715 227.818 186.785C228.056 186.856 228.273 186.951 228.468 187.07C228.663 187.189 228.82 187.346 228.94 187.541C229.064 187.737 229.127 187.983 229.127 188.281C229.127 188.601 229.037 188.894 228.858 189.16C228.68 189.425 228.411 189.639 228.053 189.802C227.701 189.965 227.254 190.046 226.712 190.046ZM230.027 189.948V184.256H231.344V189.948H230.027ZM235.443 190.046C234.993 190.046 234.579 189.975 234.199 189.834C233.825 189.688 233.497 189.482 233.215 189.216C232.939 188.951 232.722 188.639 232.565 188.281C232.413 187.924 232.337 187.531 232.337 187.102C232.337 186.674 232.413 186.281 232.565 185.923C232.722 185.565 232.942 185.254 233.223 184.988C233.505 184.723 233.836 184.519 234.215 184.378C234.595 184.232 235.012 184.159 235.468 184.159C235.972 184.159 236.424 184.243 236.826 184.411C237.232 184.579 237.574 184.823 237.85 185.143L237.005 185.923C236.799 185.706 236.574 185.547 236.33 185.444C236.086 185.335 235.82 185.281 235.533 185.281C235.256 185.281 235.004 185.324 234.777 185.411C234.549 185.498 234.351 185.622 234.183 185.785C234.02 185.948 233.893 186.14 233.801 186.362C233.714 186.585 233.671 186.831 233.671 187.102C233.671 187.368 233.714 187.612 233.801 187.834C233.893 188.056 234.02 188.252 234.183 188.42C234.351 188.582 234.546 188.707 234.768 188.794C234.996 188.88 235.245 188.924 235.516 188.924C235.777 188.924 236.029 188.883 236.273 188.802C236.522 188.715 236.763 188.571 236.996 188.371L237.744 189.322C237.435 189.555 237.075 189.734 236.663 189.859C236.256 189.983 235.85 190.046 235.443 190.046ZM236.541 189.151V187.013H237.744V189.322L236.541 189.151ZM238.968 189.948V184.256H240.058L243.416 188.355H242.887V184.256H244.188V189.948H243.107L239.741 185.85H240.269V189.948H238.968ZM250.367 190.046C249.559 190.046 248.927 189.821 248.472 189.371C248.017 188.921 247.789 188.279 247.789 187.444V184.256H249.106V187.395C249.106 187.937 249.217 188.327 249.44 188.566C249.662 188.804 249.974 188.924 250.375 188.924C250.776 188.924 251.088 188.804 251.31 188.566C251.532 188.327 251.643 187.937 251.643 187.395V184.256H252.944V187.444C252.944 188.279 252.717 188.921 252.261 189.371C251.806 189.821 251.174 190.046 250.367 190.046ZM254.246 189.948V184.256H256.71C257.219 184.256 257.658 184.34 258.027 184.508C258.396 184.671 258.68 184.907 258.881 185.216C259.081 185.525 259.182 185.893 259.182 186.322C259.182 186.745 259.081 187.11 258.881 187.419C258.68 187.728 258.396 187.967 258.027 188.135C257.658 188.298 257.219 188.379 256.71 188.379H254.978L255.563 187.785V189.948H254.246ZM255.563 187.932L254.978 187.306H256.637C257.043 187.306 257.347 187.219 257.547 187.045C257.748 186.872 257.848 186.631 257.848 186.322C257.848 186.007 257.748 185.763 257.547 185.59C257.347 185.416 257.043 185.33 256.637 185.33H254.978L255.563 184.704V187.932Z" fill="#050505"/>
<path d="M224.314 67.8966L205.852 67.8086L205.836 71.3671L224.299 71.4551L224.314 67.8966Z" fill="#FFA620"/>
<path d="M245.164 80.7129H211.397V84.0378H245.164V80.7129Z" fill="#FFA620"/>
<path d="M224.189 100.36L205.727 100.272L205.711 103.831L224.174 103.919L224.189 100.36Z" fill="#FFA620"/>
<path opacity="0.1" d="M224.189 100.36L205.727 100.272L205.711 103.831L224.174 103.919L224.189 100.36Z" fill="black"/>
<path d="M277.968 122.21C278.113 122.191 278.257 122.164 278.399 122.127C278.6 122.06 278.784 121.949 278.94 121.801C279.096 121.652 279.22 121.471 279.303 121.268C279.417 120.963 279.461 120.636 279.433 120.31C279.433 119.948 279.433 119.556 279.433 119.119C279.433 118.244 279.433 117.249 279.433 116.103V111.316C279.467 110.969 279.394 110.62 279.225 110.321C279.047 110.013 278.769 109.785 278.442 109.68C278.085 109.613 277.72 109.593 277.358 109.619H267.029L207.197 109.386C206.876 109.387 206.565 109.51 206.323 109.733C206.082 109.957 205.926 110.264 205.884 110.6C205.884 111.316 205.884 112.107 205.884 112.861C205.884 114.369 205.884 115.877 205.884 117.385C205.884 118.139 205.884 118.893 205.884 119.647C205.857 119.999 205.871 120.354 205.927 120.702C206.016 121.008 206.201 121.273 206.451 121.456C206.716 121.633 207.027 121.717 207.341 121.698H208.339H210.413L226.299 121.78L253.196 121.954L271.328 122.105L276.26 122.165H277.545H277.976H277.545H276.26H271.328H253.196L226.285 122.135L210.399 122.074H207.276C206.888 122.099 206.503 121.99 206.178 121.765C205.851 121.528 205.613 121.179 205.503 120.778C205.439 120.395 205.42 120.005 205.446 119.617C205.446 118.863 205.446 118.109 205.446 117.355C205.446 115.847 205.446 114.339 205.446 112.831C205.446 112.077 205.446 111.323 205.446 110.569C205.498 110.138 205.698 109.742 206.009 109.455C206.319 109.168 206.719 109.009 207.133 109.009L266.964 109.356L277.294 109.439C277.678 109.414 278.064 109.442 278.442 109.521C278.815 109.649 279.13 109.918 279.325 110.275C279.511 110.607 279.591 110.993 279.555 111.376C279.555 111.73 279.555 112.077 279.555 112.424C279.555 113.789 279.555 115.04 279.555 116.194C279.555 117.347 279.555 118.32 279.555 119.21C279.555 119.639 279.555 120.039 279.555 120.408C279.581 120.745 279.529 121.084 279.404 121.396C279.311 121.604 279.176 121.788 279.009 121.937C278.842 122.085 278.646 122.194 278.435 122.255C278.278 122.269 278.12 122.254 277.968 122.21Z" fill="#62594E"/>
<path d="M224.048 134.234L205.586 134.146L205.571 137.704L224.033 137.792L224.048 134.234Z" fill="#FFA620"/>
<path opacity="0.1" d="M224.048 134.234L205.586 134.146L205.571 137.704L224.033 137.792L224.048 134.234Z" fill="black"/>
<path d="M277.825 156.069C277.97 156.051 278.114 156.023 278.255 155.986C278.455 155.919 278.639 155.809 278.795 155.662C278.951 155.515 279.075 155.335 279.16 155.134C279.272 154.83 279.317 154.502 279.289 154.177C279.289 153.807 279.289 153.423 279.289 152.978C279.289 152.111 279.289 151.108 279.289 149.962V145.175C279.323 144.828 279.25 144.479 279.081 144.179C278.9 143.878 278.622 143.653 278.298 143.546C277.941 143.476 277.577 143.454 277.215 143.478H266.885L207.054 143.245C206.732 143.245 206.421 143.369 206.18 143.592C205.938 143.815 205.782 144.123 205.74 144.458C205.74 145.212 205.74 145.966 205.74 146.72C205.74 148.228 205.74 149.736 205.74 151.244C205.74 151.998 205.74 152.752 205.74 153.506C205.713 153.855 205.728 154.207 205.783 154.554C205.869 154.861 206.054 155.128 206.307 155.307C206.571 155.488 206.883 155.573 207.197 155.549H210.32L226.205 155.639L253.103 155.813L271.235 155.963L276.166 156.024H277.451C277.739 156.024 277.882 156.024 277.882 156.024C277.882 156.024 277.739 156.024 277.451 156.024H276.166H271.235H253.103L226.205 155.941L210.32 155.873H207.197C206.809 155.9 206.422 155.792 206.099 155.564C205.772 155.326 205.534 154.977 205.424 154.576C205.36 154.193 205.341 153.803 205.367 153.415C205.367 152.661 205.367 151.907 205.367 151.153C205.367 149.645 205.367 148.138 205.367 146.63C205.367 145.876 205.367 145.122 205.367 144.33C205.418 143.9 205.616 143.504 205.926 143.216C206.235 142.929 206.634 142.77 207.047 142.77L266.878 143.116L277.207 143.199C277.592 143.174 277.978 143.202 278.356 143.282C278.729 143.41 279.043 143.679 279.239 144.036C279.424 144.368 279.505 144.754 279.468 145.137C279.468 145.491 279.468 145.846 279.468 146.185C279.468 147.549 279.468 148.801 279.468 149.955C279.468 151.108 279.468 152.081 279.468 152.97C279.468 153.4 279.468 153.8 279.468 154.169C279.496 154.506 279.444 154.845 279.318 155.157C279.225 155.365 279.09 155.549 278.923 155.698C278.755 155.846 278.56 155.955 278.349 156.016C278.18 156.077 278.001 156.095 277.825 156.069Z" fill="#62594E"/>
<path d="M244.443 114.118L210.677 113.957L210.662 117.282L244.429 117.443L244.443 114.118Z" fill="#FFA620"/>
<path opacity="0.2" d="M244.443 114.118L210.677 113.957L210.662 117.282L244.429 117.443L244.443 114.118Z" fill="white"/>
<path d="M213.73 149.917C213.709 150.22 213.603 150.51 213.427 150.751C213.25 150.992 213.01 151.173 212.736 151.272C212.462 151.371 212.167 151.383 211.886 151.307C211.606 151.231 211.353 151.071 211.159 150.845C210.964 150.62 210.837 150.339 210.793 150.039C210.75 149.738 210.791 149.431 210.911 149.154C211.032 148.878 211.228 148.645 211.474 148.485C211.719 148.324 212.005 148.243 212.294 148.251C212.694 148.274 213.069 148.462 213.338 148.774C213.607 149.086 213.748 149.496 213.73 149.917Z" fill="#FFA620"/>
<path d="M218.303 149.94C218.318 150.152 218.29 150.365 218.222 150.566C218.154 150.767 218.048 150.951 217.91 151.107C217.771 151.263 217.604 151.387 217.418 151.472C217.232 151.557 217.031 151.601 216.828 151.601C216.625 151.601 216.425 151.557 216.239 151.472C216.053 151.387 215.885 151.263 215.747 151.107C215.609 150.951 215.502 150.767 215.434 150.566C215.367 150.365 215.339 150.152 215.353 149.94C215.339 149.727 215.367 149.514 215.434 149.313C215.502 149.112 215.609 148.928 215.747 148.772C215.885 148.616 216.053 148.492 216.239 148.407C216.425 148.322 216.625 148.278 216.828 148.278C217.031 148.278 217.232 148.322 217.418 148.407C217.604 148.492 217.771 148.616 217.91 148.772C218.048 148.928 218.154 149.112 218.222 149.313C218.29 149.514 218.318 149.727 218.303 149.94Z" fill="#FFA620"/>
<path d="M222.882 149.963C222.861 150.266 222.756 150.556 222.579 150.797C222.402 151.038 222.162 151.219 221.888 151.318C221.614 151.417 221.319 151.429 221.039 151.353C220.758 151.277 220.505 151.117 220.311 150.891C220.117 150.666 219.99 150.385 219.946 150.085C219.902 149.784 219.943 149.477 220.064 149.2C220.185 148.924 220.38 148.691 220.626 148.53C220.872 148.37 221.157 148.288 221.447 148.296C221.846 148.322 222.22 148.51 222.488 148.822C222.756 149.133 222.898 149.543 222.882 149.963Z" fill="#FFA620"/>
<path d="M227.455 149.985C227.434 150.288 227.329 150.578 227.152 150.819C226.975 151.06 226.735 151.241 226.461 151.34C226.188 151.439 225.892 151.451 225.612 151.376C225.332 151.3 225.079 151.139 224.884 150.914C224.69 150.688 224.563 150.408 224.519 150.107C224.475 149.807 224.516 149.499 224.637 149.223C224.758 148.947 224.953 148.714 225.199 148.553C225.445 148.392 225.73 148.311 226.02 148.319C226.419 148.344 226.793 148.533 227.061 148.844C227.33 149.156 227.471 149.565 227.455 149.985Z" fill="#FFA620"/>
<path d="M232.027 150C232.007 150.304 231.903 150.595 231.727 150.837C231.551 151.079 231.312 151.261 231.038 151.361C230.764 151.461 230.468 151.474 230.187 151.399C229.906 151.324 229.653 151.164 229.458 150.939C229.263 150.713 229.135 150.433 229.091 150.132C229.046 149.831 229.087 149.523 229.208 149.247C229.329 148.97 229.524 148.737 229.77 148.576C230.016 148.415 230.302 148.333 230.592 148.341C230.99 148.367 231.362 148.554 231.631 148.864C231.899 149.174 232.041 149.582 232.027 150Z" fill="#FFA620"/>
<path d="M236.608 150.023C236.589 150.325 236.486 150.615 236.311 150.856C236.137 151.097 235.899 151.28 235.628 151.381C235.356 151.482 235.062 151.498 234.782 151.426C234.502 151.354 234.248 151.198 234.051 150.976C233.855 150.755 233.724 150.478 233.675 150.179C233.627 149.88 233.662 149.574 233.778 149.296C233.893 149.018 234.083 148.782 234.325 148.617C234.566 148.451 234.848 148.363 235.137 148.364C235.541 148.38 235.923 148.563 236.199 148.874C236.475 149.185 236.622 149.598 236.608 150.023Z" fill="#FFA620"/>
<path d="M241.179 150.045C241.194 150.258 241.166 150.471 241.098 150.672C241.03 150.873 240.924 151.057 240.786 151.212C240.647 151.368 240.48 151.493 240.294 151.577C240.108 151.662 239.907 151.706 239.704 151.706C239.501 151.706 239.301 151.662 239.115 151.577C238.929 151.493 238.761 151.368 238.623 151.212C238.485 151.057 238.378 150.873 238.31 150.672C238.243 150.471 238.215 150.258 238.229 150.045C238.215 149.832 238.243 149.619 238.31 149.418C238.378 149.217 238.485 149.033 238.623 148.878C238.761 148.722 238.929 148.598 239.115 148.513C239.301 148.428 239.501 148.384 239.704 148.384C239.907 148.384 240.108 148.428 240.294 148.513C240.48 148.598 240.647 148.722 240.786 148.878C240.924 149.033 241.03 149.217 241.098 149.418C241.166 149.619 241.194 149.832 241.179 150.045Z" fill="#FFA620"/>
<path d="M245.752 150.068C245.732 150.37 245.629 150.66 245.455 150.901C245.281 151.142 245.043 151.325 244.771 151.426C244.499 151.527 244.205 151.543 243.925 151.471C243.645 151.399 243.391 151.243 243.195 151.021C242.998 150.8 242.868 150.522 242.819 150.224C242.77 149.925 242.806 149.618 242.921 149.341C243.037 149.063 243.227 148.827 243.468 148.662C243.71 148.496 243.992 148.408 244.28 148.409C244.685 148.425 245.067 148.608 245.342 148.919C245.618 149.23 245.765 149.643 245.752 150.068Z" fill="#FFA620"/>
<path d="M250.326 150.091C250.306 150.395 250.202 150.685 250.026 150.927C249.85 151.169 249.61 151.352 249.337 151.452C249.063 151.552 248.767 151.565 248.486 151.49C248.205 151.415 247.952 151.255 247.757 151.029C247.562 150.804 247.434 150.524 247.39 150.223C247.345 149.922 247.386 149.614 247.507 149.337C247.627 149.061 247.823 148.827 248.069 148.666C248.315 148.505 248.601 148.424 248.89 148.432C249.288 148.458 249.661 148.645 249.929 148.955C250.198 149.265 250.34 149.672 250.326 150.091Z" fill="#FFA620"/>
<g opacity="0.2">
<path opacity="0.2" d="M213.73 149.917C213.709 150.22 213.603 150.51 213.427 150.751C213.25 150.992 213.01 151.173 212.736 151.272C212.462 151.371 212.167 151.383 211.886 151.307C211.606 151.231 211.353 151.071 211.159 150.845C210.964 150.62 210.837 150.339 210.793 150.039C210.75 149.738 210.791 149.431 210.911 149.154C211.032 148.878 211.228 148.645 211.474 148.485C211.719 148.324 212.005 148.243 212.294 148.251C212.694 148.274 213.069 148.462 213.338 148.774C213.607 149.086 213.748 149.496 213.73 149.917Z" fill="white"/>
<path opacity="0.2" d="M218.302 149.94C218.316 150.152 218.288 150.365 218.22 150.566C218.153 150.767 218.046 150.951 217.908 151.107C217.769 151.263 217.602 151.387 217.416 151.472C217.23 151.557 217.029 151.601 216.826 151.601C216.624 151.601 216.423 151.557 216.237 151.472C216.051 151.387 215.883 151.263 215.745 151.107C215.607 150.951 215.5 150.767 215.433 150.566C215.365 150.365 215.337 150.152 215.351 149.94C215.337 149.727 215.365 149.514 215.433 149.313C215.5 149.112 215.607 148.928 215.745 148.772C215.883 148.616 216.051 148.492 216.237 148.407C216.423 148.322 216.624 148.278 216.826 148.278C217.029 148.278 217.23 148.322 217.416 148.407C217.602 148.492 217.769 148.616 217.908 148.772C218.046 148.928 218.153 149.112 218.22 149.313C218.288 149.514 218.316 149.727 218.302 149.94Z" fill="white"/>
<path opacity="0.2" d="M222.882 149.962C222.861 150.265 222.756 150.555 222.579 150.796C222.402 151.037 222.162 151.218 221.888 151.317C221.614 151.416 221.319 151.428 221.039 151.352C220.758 151.276 220.505 151.116 220.311 150.89C220.117 150.665 219.99 150.384 219.946 150.084C219.902 149.783 219.943 149.476 220.064 149.199C220.185 148.923 220.38 148.69 220.626 148.529C220.872 148.369 221.157 148.287 221.447 148.295C221.846 148.321 222.22 148.509 222.488 148.821C222.756 149.132 222.898 149.542 222.882 149.962Z" fill="white"/>
<path opacity="0.2" d="M227.453 149.985C227.432 150.288 227.327 150.578 227.15 150.819C226.973 151.06 226.733 151.241 226.46 151.34C226.186 151.439 225.89 151.451 225.61 151.376C225.33 151.3 225.077 151.139 224.882 150.914C224.688 150.688 224.561 150.408 224.517 150.107C224.473 149.807 224.514 149.499 224.635 149.223C224.756 148.947 224.952 148.714 225.197 148.553C225.443 148.392 225.728 148.311 226.018 148.319C226.417 148.344 226.791 148.533 227.059 148.844C227.328 149.156 227.469 149.565 227.453 149.985Z" fill="white"/>
<path opacity="0.2" d="M232.028 150C232.008 150.304 231.904 150.595 231.728 150.837C231.552 151.079 231.312 151.261 231.039 151.361C230.765 151.461 230.469 151.474 230.188 151.399C229.907 151.324 229.654 151.164 229.459 150.939C229.264 150.713 229.136 150.433 229.092 150.132C229.047 149.831 229.088 149.523 229.209 149.247C229.33 148.97 229.525 148.737 229.771 148.576C230.017 148.415 230.303 148.333 230.593 148.341C230.991 148.367 231.363 148.554 231.632 148.864C231.9 149.174 232.042 149.582 232.028 150Z" fill="white"/>
<path opacity="0.2" d="M236.606 150.022C236.587 150.324 236.484 150.614 236.309 150.855C236.135 151.096 235.897 151.279 235.626 151.38C235.354 151.481 235.06 151.497 234.78 151.425C234.5 151.353 234.246 151.197 234.049 150.975C233.853 150.754 233.722 150.477 233.673 150.178C233.625 149.88 233.661 149.573 233.776 149.295C233.891 149.017 234.081 148.781 234.323 148.616C234.564 148.45 234.847 148.363 235.135 148.363C235.539 148.379 235.921 148.562 236.197 148.873C236.473 149.184 236.62 149.597 236.606 150.022Z" fill="white"/>
<path opacity="0.2" d="M241.18 150.045C241.195 150.258 241.167 150.471 241.099 150.672C241.031 150.873 240.925 151.057 240.787 151.212C240.648 151.368 240.481 151.493 240.295 151.577C240.109 151.662 239.908 151.706 239.705 151.706C239.502 151.706 239.302 151.662 239.116 151.577C238.93 151.493 238.762 151.368 238.624 151.212C238.486 151.057 238.379 150.873 238.311 150.672C238.244 150.471 238.216 150.258 238.23 150.045C238.216 149.832 238.244 149.619 238.311 149.418C238.379 149.217 238.486 149.033 238.624 148.878C238.762 148.722 238.93 148.598 239.116 148.513C239.302 148.428 239.502 148.384 239.705 148.384C239.908 148.384 240.109 148.428 240.295 148.513C240.481 148.598 240.648 148.722 240.787 148.878C240.925 149.033 241.031 149.217 241.099 149.418C241.167 149.619 241.195 149.832 241.18 150.045Z" fill="white"/>
<path opacity="0.2" d="M245.752 150.068C245.732 150.37 245.629 150.66 245.455 150.901C245.281 151.142 245.043 151.325 244.771 151.426C244.499 151.527 244.205 151.543 243.925 151.471C243.645 151.399 243.391 151.243 243.195 151.021C242.998 150.8 242.868 150.522 242.819 150.224C242.77 149.925 242.806 149.618 242.921 149.341C243.037 149.063 243.227 148.827 243.468 148.662C243.71 148.496 243.992 148.408 244.28 148.409C244.685 148.425 245.067 148.608 245.342 148.919C245.618 149.23 245.765 149.643 245.752 150.068Z" fill="white"/>
<path opacity="0.2" d="M250.324 150.09C250.304 150.394 250.2 150.684 250.024 150.926C249.848 151.168 249.608 151.351 249.335 151.451C249.061 151.551 248.765 151.564 248.484 151.489C248.203 151.414 247.95 151.254 247.755 151.028C247.56 150.803 247.432 150.523 247.388 150.222C247.343 149.921 247.384 149.613 247.505 149.336C247.625 149.06 247.821 148.826 248.067 148.665C248.313 148.505 248.599 148.423 248.888 148.431C249.286 148.457 249.659 148.644 249.927 148.954C250.196 149.264 250.338 149.671 250.324 150.09Z" fill="white"/>
</g>
<path d="M243.829 41.252C244.328 41.0213 244.751 40.6418 245.046 40.1605C245.341 39.6793 245.494 39.1176 245.488 38.5453C245.506 38.1734 245.452 37.8013 245.33 37.4518C245.207 37.1023 245.018 36.7828 244.774 36.5125C244.53 36.2423 244.236 36.0272 243.91 35.8801C243.584 35.7331 243.233 35.6572 242.878 35.6572C242.524 35.6572 242.173 35.7331 241.847 35.8801C241.521 36.0272 241.227 36.2423 240.983 36.5125C240.739 36.7828 240.55 37.1023 240.427 37.4518C240.304 37.8013 240.25 38.1734 240.269 38.5453C240.258 39.1233 240.41 39.6917 240.707 40.1788C241.003 40.6659 241.43 41.0498 241.934 41.2821C237.915 41.9154 238.094 46.4994 238.094 46.4994L247.598 46.5446C247.598 46.5446 247.821 41.8777 243.829 41.252Z" fill="#FFA620"/>
<path d="M259.273 49.5013L225.399 49.3398L225.381 53.592L259.255 53.7534L259.273 49.5013Z" fill="#FFA620"/>
<path d="M133.755 327.404V320.131L119.284 320.037L119.161 331.036L120.058 331.096C124.051 331.326 140.373 331.666 143.054 330.917C146.037 330.084 133.755 327.404 133.755 327.404Z" fill="#F7931A"/>
<path d="M143.393 330.237C143.393 330.356 137.975 330.458 131.301 330.458C124.627 330.458 119.208 330.356 119.208 330.237C119.208 330.118 124.627 330.016 131.301 330.016C137.975 330.016 143.393 330.118 143.393 330.237Z" fill="#263238"/>
<path d="M134.01 328.893C133.887 328.833 134.01 328.45 134.303 328.042C134.595 327.634 134.992 327.464 135.086 327.549C135.181 327.634 134.982 327.957 134.699 328.306C134.416 328.655 134.133 328.952 134.01 328.893Z" fill="#263238"/>
<path d="M134.936 329.369C134.803 329.369 134.869 328.893 135.153 328.442C135.436 327.991 135.813 327.719 135.917 327.787C136.021 327.855 135.851 328.238 135.587 328.637C135.323 329.037 135.058 329.412 134.936 329.369Z" fill="#263238"/>
<path d="M123.57 330.202C123.513 330.202 123.296 330.049 122.985 329.726C122.604 329.31 122.181 328.928 121.72 328.586C121.266 328.259 120.726 328.045 120.153 327.965C119.709 327.914 119.426 327.965 119.398 327.914C119.369 327.863 119.643 327.684 120.162 327.65C120.847 327.637 121.516 327.842 122.05 328.228C122.551 328.596 122.973 329.043 123.296 329.547C123.513 329.921 123.627 330.168 123.57 330.202Z" fill="#263238"/>
<path d="M134.058 327.523C134.124 327.625 133.879 327.88 133.463 328.017C133.048 328.153 132.68 328.102 132.661 328.017C132.642 327.931 132.935 327.753 133.293 327.634C133.652 327.515 133.983 327.421 134.058 327.523Z" fill="#263238"/>
<path d="M133.831 326.817C133.831 326.944 133.453 327.046 132.962 327.055C132.472 327.063 132.084 326.961 132.094 326.842C132.103 326.723 132.49 326.613 132.962 326.604C133.434 326.596 133.812 326.698 133.831 326.817Z" fill="#263238"/>
<path d="M169.391 327.404V320.131L154.92 320.037L154.797 330.926L155.694 330.985C159.687 331.215 176.018 331.666 178.69 330.917C181.673 330.084 169.391 327.404 169.391 327.404Z" fill="#F7931A"/>
<path d="M179.03 330.253C179.03 330.373 173.621 330.475 166.938 330.475C160.254 330.475 154.854 330.373 154.854 330.253C154.854 330.134 160.264 330.032 166.938 330.032C173.612 330.032 179.03 330.134 179.03 330.253Z" fill="#263238"/>
<path d="M169.646 328.893C169.533 328.833 169.646 328.45 169.938 328.042C170.231 327.634 170.628 327.464 170.722 327.549C170.816 327.634 170.618 327.957 170.335 328.306C170.052 328.655 169.769 328.952 169.646 328.893Z" fill="#263238"/>
<path d="M170.572 329.369C170.449 329.369 170.506 328.893 170.798 328.442C171.091 327.991 171.459 327.719 171.563 327.787C171.667 327.855 171.487 328.238 171.223 328.637C170.959 329.037 170.704 329.412 170.572 329.369Z" fill="#263238"/>
<path d="M159.206 330.202C159.149 330.202 158.941 330.049 158.62 329.726C158.24 329.31 157.817 328.928 157.355 328.586C156.902 328.259 156.362 328.045 155.788 327.965C155.354 327.914 155.062 327.965 155.033 327.914C155.005 327.863 155.279 327.684 155.798 327.65C156.483 327.637 157.152 327.842 157.686 328.228C158.189 328.594 158.612 329.041 158.932 329.547C159.149 329.921 159.262 330.168 159.206 330.202Z" fill="#263238"/>
<path d="M169.694 327.523C169.76 327.625 169.515 327.88 169.099 328.017C168.684 328.153 168.316 328.102 168.297 328.017C168.278 327.931 168.571 327.753 168.929 327.634C169.288 327.515 169.618 327.421 169.694 327.523Z" fill="#263238"/>
<path d="M169.486 326.817C169.486 326.944 169.108 327.046 168.617 327.055C168.126 327.063 167.749 326.961 167.758 326.842C167.767 326.723 168.145 326.613 168.617 326.604C169.089 326.596 169.486 326.698 169.486 326.817Z" fill="#263238"/>
<path d="M222.708 111.415C222.331 111.066 221.396 111.236 221.396 111.236C221.49 110.746 221.49 110.245 221.396 109.756C221.226 109.279 220.037 109.373 220.037 109.373C219.982 108.972 219.982 108.566 220.037 108.165C220.046 108.076 220.025 107.987 219.976 107.909C219.927 107.831 219.853 107.769 219.763 107.731C219.2 107.524 218.596 107.426 217.988 107.442C217.262 106.974 220.207 103.256 221.302 102.065C222.397 100.875 222.199 99.9473 221.226 99.9473C220.556 99.9473 217.12 103.52 216.063 104.72C215.005 105.919 212.202 109.254 212.107 106.591C212.013 103.928 210.823 101.921 210.078 101.581C209.332 101.24 208.539 102.04 208.945 102.78C209.302 103.621 209.524 104.503 209.606 105.4C209.708 106.115 209.673 106.84 209.502 107.544C209.189 108.854 208.763 110.139 208.227 111.389H208.152C208.152 111.389 187.554 129.194 186.062 130.461C184.731 131.601 157.96 129.109 152.588 128.598C150.763 128.358 148.92 128.244 147.075 128.258C144.743 128.352 144.328 128.649 142.006 128.675C136.141 128.734 130.29 129.197 124.504 130.062C121.884 130.463 119.437 131.505 117.429 133.074C115.422 134.643 113.931 136.679 113.119 138.96C107.71 154.187 95.4573 190.231 93.2955 210.477C91.662 213.147 90.1872 215.893 88.8776 218.703C87.3577 222.429 87.7259 222.557 88.2357 222.642C89.6139 222.872 91.1809 216.185 91.7662 217.802C92.3515 219.418 88.7926 225.772 90.2369 225.96C92.1249 226.198 93.6259 219.154 93.8053 218.593C93.9846 218.031 94.9192 218.21 94.7493 218.737C94.4755 219.486 91.8229 227.423 93.6731 227.678C94.6926 227.814 94.8059 226.138 94.8059 226.138C94.8059 226.138 96.6939 218.542 97.5529 218.695C98.412 218.848 97.4963 223.331 97.0621 224.828C96.6278 226.325 97.232 227.083 98.1193 226.717C98.7235 226.462 100.168 221.91 100.564 220.43C100.961 218.95 101.952 214.85 103.283 217.223C104.614 219.597 106.634 220.975 107.465 221.009C107.652 220.989 107.829 220.92 107.972 220.809C108.115 220.699 108.218 220.552 108.267 220.388C108.317 220.224 108.311 220.051 108.251 219.89C108.19 219.729 108.078 219.589 107.927 219.486C107.213 218.857 106.6 218.141 106.106 217.359C105.665 216.75 105.346 216.076 105.162 215.369C104.781 213.957 104.56 212.515 104.501 211.064L104.35 210.213C106.464 200.779 112.553 173.089 121.342 155.404L124.948 162.09L126.515 167.041L116.905 188.419L157.893 187.934L151.776 166.718L159.206 144.6C167.239 144.761 187.865 145.034 191.302 143.63C195.625 141.929 217.988 116.476 217.988 116.476C219.446 115.455 220.842 114.365 222.17 113.209C222.17 113.209 223.53 112.18 222.708 111.415Z" fill="#FFBE9D"/>
<path d="M115.102 172.621C116.291 168.963 122.399 150.877 122.399 150.877C122.399 150.877 125.401 165.619 124.608 167.397C123.878 168.919 123.017 170.387 122.031 171.787C115.102 181.289 116.008 186.045 116.008 186.045L157.874 184.896C157.969 179.622 154.504 167.355 153.787 165.398C153.069 163.442 155.458 157.036 155.458 157.036C155.458 157.036 160.178 152.706 160.008 150.477C159.918 148.475 159.643 146.483 159.187 144.522L184.675 145.373L183.872 129.806L147.264 126.505C145.989 129.746 134.463 128.155 134.463 128.155C122.021 128.53 121.247 130.588 116.074 134.212C110.901 137.836 102.339 168.937 102.339 168.937L115.102 172.621Z" fill="url(#paint0_linear_435_400)" fill-opacity="0.95"/>
<path d="M139.853 168.938C139.128 169.054 138.389 169.089 137.654 169.04C136.285 169.04 134.406 168.955 132.339 168.767C130.272 168.58 128.403 168.317 127.072 168.078C126.338 167.993 125.618 167.827 124.929 167.585C125.667 167.585 126.403 167.648 127.128 167.772C128.469 167.925 130.328 168.138 132.386 168.325C134.444 168.512 136.313 168.64 137.663 168.725C138.399 168.733 139.132 168.804 139.853 168.938Z" fill="#263238"/>
<path d="M142.723 165.73C141.998 166.051 141.23 166.288 140.439 166.437C136.673 167.328 132.787 167.744 128.894 167.67C128.088 167.694 127.283 167.625 126.496 167.466C127.291 167.375 128.093 167.338 128.894 167.355C130.376 167.313 132.415 167.219 134.662 166.981C136.908 166.743 138.91 166.403 140.326 166.13C141.112 165.941 141.914 165.807 142.723 165.73Z" fill="#263238"/>
<path d="M156.807 151.422C156.788 152.07 156.69 152.715 156.515 153.344C156.269 154.527 155.892 156.143 155.41 157.913C154.929 159.682 154.466 161.315 154.051 162.421C153.884 163.054 153.637 163.668 153.314 164.25C153.367 163.604 153.5 162.964 153.711 162.345C154.07 161.018 154.476 159.486 154.929 157.811C155.382 156.135 155.816 154.603 156.175 153.276C156.303 152.638 156.515 152.015 156.807 151.422Z" fill="#263238"/>
<path d="M115.545 170.452C113.361 170.148 111.206 169.695 109.097 169.099C106.943 168.645 104.829 168.048 102.772 167.312C104.955 167.621 107.11 168.073 109.22 168.665C111.375 169.117 113.489 169.715 115.545 170.452Z" fill="#263238"/>
<path d="M159.64 144.336C159.284 144.391 158.92 144.391 158.564 144.336C157.578 144.245 156.609 144.036 155.684 143.715C154.14 143.192 152.734 142.384 151.557 141.342C150.38 140.3 149.458 139.048 148.85 137.666C148.178 136.146 147.891 134.51 148.01 132.877C148.052 131.53 148.499 130.219 149.303 129.083C149.869 128.318 150.714 127.755 151.691 127.492C151.953 127.427 152.223 127.396 152.494 127.399C152.682 127.399 152.777 127.399 152.777 127.399C152.777 127.399 152.38 127.399 151.748 127.628C150.851 127.927 150.09 128.487 149.586 129.219C148.302 131.04 147.944 134.366 149.312 137.471C149.949 138.935 150.947 140.249 152.229 141.316C153.28 142.188 154.491 142.891 155.807 143.392C157.043 143.832 158.328 144.148 159.64 144.336Z" fill="#263238"/>
<path d="M181.644 145.068C181.408 142.459 181.332 139.841 181.418 137.224C181.344 134.61 181.432 131.995 181.682 129.39C181.918 131.995 181.994 134.611 181.909 137.224C181.988 139.841 181.9 142.46 181.644 145.068Z" fill="#263238"/>
<path d="M147.019 127.458C147.123 125.561 147.34 123.417 147.34 123.417C147.34 123.417 152.551 122.898 152.863 118.049C153.174 113.2 152.863 102.014 152.863 102.014L143.423 97.6582L132.944 105.085L134.559 129.329L144.169 129.882C144.903 129.901 145.616 129.656 146.15 129.201C146.685 128.747 146.997 128.12 147.019 127.458Z" fill="#FFBE9D"/>
<path d="M147.953 114.213C147.953 114.213 147.953 114.307 147.868 114.418C147.797 114.498 147.707 114.561 147.603 114.603C147.499 114.644 147.386 114.663 147.273 114.656C146.669 114.656 146.083 114.026 145.876 113.295C145.777 112.94 145.777 112.569 145.876 112.214C145.895 112.06 145.957 111.912 146.056 111.784C146.155 111.656 146.288 111.553 146.442 111.483C146.569 111.435 146.712 111.435 146.839 111.483C146.933 111.525 147.009 111.594 147.056 111.678C147.122 111.823 147.056 111.917 147.056 111.908C147.056 111.9 147.056 111.823 146.961 111.738C146.912 111.677 146.839 111.635 146.758 111.619C146.676 111.603 146.59 111.615 146.518 111.653C146.402 111.716 146.306 111.804 146.238 111.91C146.17 112.016 146.133 112.135 146.131 112.257C146.051 112.573 146.051 112.902 146.131 113.218C146.319 113.882 146.829 114.418 147.282 114.469C147.371 114.479 147.461 114.474 147.547 114.452C147.633 114.43 147.713 114.392 147.783 114.341C147.896 114.273 147.934 114.205 147.953 114.213Z" fill="#EB996E"/>
<path d="M156.1 99.394C155.373 97.1652 152.739 96.0593 150.342 95.4468C146.688 94.5111 142.742 94.1027 139.174 95.2852C135.606 96.4677 131.32 98.5433 131.32 102.091C129.215 101.938 128.006 103.596 127.176 105.655C126.645 106.909 126.326 108.229 126.232 109.568C125.967 114.213 124.523 120.627 121.181 124.03C119.293 125.927 116.678 127.237 115.602 129.602C114.658 131.652 115.149 134.085 114.271 136.161C113.488 137.99 111.76 139.291 110.495 140.882C109.207 142.687 108.448 144.757 108.291 146.898C108.134 149.04 108.584 151.182 109.598 153.123C110.62 155.015 112.058 156.7 113.826 158.075C115.593 159.449 117.653 160.486 119.879 161.12C124.288 162.329 128.99 162.37 133.425 161.239C136.753 160.522 139.858 159.135 142.506 157.181C145.216 155.187 147.077 152.41 147.774 149.321C148.444 145.85 147.368 142.32 146.566 138.866C144.055 127.952 144.772 127.382 147.944 117.25C148.019 117.071 148.057 116.884 148.114 116.706C148.17 116.527 148.199 116.442 148.236 116.306C148.327 115.905 148.374 115.498 148.378 115.089C147.915 115.244 147.412 115.277 146.929 115.184C146.445 115.09 146.002 114.875 145.65 114.562C145.297 114.228 145.051 113.815 144.938 113.366C144.825 112.916 144.849 112.448 145.008 112.01C145.231 111.531 145.563 111.099 145.982 110.743C146.402 110.387 146.9 110.114 147.443 109.943C148.491 109.551 149.615 109.347 150.644 108.913C152.824 107.977 154.335 106.038 155.364 104.005C156.21 102.596 156.471 100.961 156.1 99.394Z" fill="#263238"/>
<path d="M148.332 114.442C148.531 114.708 148.696 114.993 148.822 115.293C149.106 115.829 149.483 116.586 149.899 117.462L149.974 117.624H149.776L148.832 117.7C148.181 117.7 147.633 117.811 146.991 117.803C146.935 117.791 146.883 117.767 146.841 117.733C146.798 117.699 146.765 117.656 146.746 117.607C146.718 117.53 146.718 117.446 146.746 117.369C146.768 117.254 146.796 117.14 146.831 117.028L147.001 116.424C147.086 116.022 147.219 115.628 147.397 115.251C147.379 115.661 147.313 116.069 147.199 116.467L147.067 117.071C147.019 117.275 146.934 117.59 147.067 117.564C147.539 117.564 148.209 117.471 148.832 117.437L149.776 117.36L149.653 117.547C149.247 116.697 148.907 115.897 148.709 115.344C148.535 115.062 148.408 114.758 148.332 114.442Z" fill="#F7931A"/>
<path d="M116.008 186.045L157.874 184.896L176.094 248.987L172.742 322.504H150.606L153.315 250.553L137.125 205.934L139.617 325.353L117.245 325.651L114.894 213.403C114.79 210.281 113.657 203.246 114.082 200.149L116.008 186.045Z" fill="#263238"/>
<path d="M142.695 206.845C142.01 206.883 141.322 206.846 140.647 206.734C139.382 206.598 137.654 206.36 135.757 206.019C133.859 205.679 132.16 205.288 130.933 204.973C130.277 204.843 129.642 204.637 129.045 204.361C129.045 204.233 132.122 204.897 135.898 205.586C139.674 206.275 142.714 206.717 142.695 206.845Z" fill="#455A64"/>
<path d="M172.516 318.471C172.516 318.59 167.504 318.692 161.321 318.692C155.137 318.692 150.115 318.59 150.115 318.471C150.115 318.352 155.128 318.25 161.321 318.25C167.513 318.25 172.516 318.344 172.516 318.471Z" fill="#455A64"/>
<path d="M139.419 322.249C139.419 322.376 134.548 322.47 128.544 322.47C122.54 322.47 117.679 322.376 117.679 322.249C117.679 322.121 122.55 322.027 128.544 322.027C134.539 322.027 139.419 322.129 139.419 322.249Z" fill="#455A64"/>
<path d="M136.531 321.942C136.399 321.942 135.813 295.852 135.219 263.67C134.624 231.488 134.275 205.381 134.398 205.381C134.52 205.381 135.124 231.463 135.71 263.661C136.295 295.86 136.673 321.942 136.531 321.942Z" fill="#455A64"/>
<path d="M169.543 318.471C169.532 318.355 169.532 318.239 169.543 318.123V317.102C169.543 316.183 169.618 314.865 169.675 313.189C169.807 309.786 169.996 304.843 170.232 298.787C170.742 286.605 171.459 269.812 172.243 251.276C172.243 251.097 172.243 250.927 172.243 250.774V250.833C167.287 232.969 162.803 216.755 159.546 205.024L155.77 191.149C155.336 189.524 155.005 188.257 154.769 187.372C154.656 186.955 154.58 186.632 154.514 186.385C154.478 186.274 154.455 186.16 154.448 186.045C154.497 186.152 154.535 186.263 154.562 186.377C154.637 186.615 154.731 186.938 154.864 187.346C155.118 188.197 155.487 189.49 155.959 191.106C156.903 194.39 158.234 199.12 159.895 204.947C163.18 216.67 167.711 232.841 172.734 250.731V250.791C172.734 250.944 172.734 251.122 172.734 251.293C171.893 269.829 171.129 286.613 170.572 298.795C170.279 304.86 170.034 309.769 169.864 313.189C169.769 314.89 169.694 316.183 169.647 317.102C169.647 317.536 169.59 317.876 169.581 318.123C169.582 318.24 169.569 318.357 169.543 318.471Z" fill="#455A64"/>
<path d="M162.32 249.276C160.73 249.747 159.092 250.075 157.43 250.255C155.391 250.569 153.654 250.791 152.871 250.825V250.654C153.126 250.723 153.258 250.765 153.258 250.799C153.258 250.833 153.097 250.799 152.833 250.799H152.267L152.833 250.646C153.569 250.45 155.306 250.127 157.345 249.795C158.981 249.476 160.647 249.302 162.32 249.276Z" fill="#455A64"/>
<path d="M161.935 251.718C160.462 251.779 158.987 251.719 157.526 251.54C156.052 251.513 154.583 251.367 153.137 251.106C156.087 250.889 159.057 251.096 161.935 251.718Z" fill="#455A64"/>
<path opacity="0.2" d="M115.829 187.397C116.325 187.971 116.949 188.444 117.662 188.786C118.374 189.127 119.159 189.33 119.964 189.38C121.65 189.56 123.356 189.531 125.033 189.294C135.842 188.214 147.293 187.219 157.875 184.896C144.177 185.586 129.706 185.356 116.008 186.045L115.867 187.1" fill="black"/>
<g opacity="0.2">
<path opacity="0.2" d="M129.942 204.794L137.664 231.795L137.126 205.934L129.942 204.794Z" fill="black"/>
</g>
<path d="M329.691 114.489L320.327 111.086C320.327 111.086 307.97 131.392 304.43 132.421C299.615 133.816 289.647 137.695 283.737 138.376C282.935 139.227 281.623 141.872 281.745 142.834C289.684 145.224 307.13 142.051 310.868 139.55C319.373 133.876 329.691 114.489 329.691 114.489Z" fill="#E58A7B"/>
<path d="M332.571 109.87C334.317 115.68 324.859 127.368 324.859 127.368L312.464 121.107C312.464 121.107 314.786 116.301 317.618 111.409C322.159 103.507 330.579 103.243 332.571 109.87Z" fill="#323037"/>
<path opacity="0.2" d="M332.571 109.87C334.317 115.68 324.859 127.368 324.859 127.368L312.464 121.107C312.464 121.107 314.786 116.301 317.618 111.409C322.159 103.507 330.579 103.243 332.571 109.87Z" fill="black"/>
<path opacity="0.2" d="M317.382 123.609L322.262 126.076L323.121 112.575C320.28 114.54 318.279 120.461 317.382 123.609Z" fill="black"/>
<path d="M324.414 105.497C324.414 105.497 314.766 124.842 320.393 160.86H358.408C359.012 155.603 357.01 129.946 364.251 105.174C360.081 104.44 355.861 103.954 351.62 103.719C346.241 103.439 340.848 103.439 335.468 103.719C331.739 104.061 328.044 104.655 324.414 105.497Z" fill="#323037"/>
<path opacity="0.2" d="M324.414 105.497C324.414 105.497 314.766 124.842 320.393 160.86H358.408C359.012 155.603 357.01 129.946 364.251 105.174C360.081 104.44 355.861 103.954 351.62 103.719C346.241 103.439 340.848 103.439 335.468 103.719C331.739 104.061 328.044 104.655 324.414 105.497Z" fill="black"/>
<g style="mix-blend-mode:multiply">
<path d="M315.598 330.316C315.541 331.235 329.956 331.975 347.788 331.975C365.62 331.975 380.139 331.235 380.196 330.316C380.252 329.398 365.847 328.666 348.005 328.666C330.164 328.666 315.664 329.406 315.598 330.316Z" fill="#E8ECF1"/>
</g>
<path d="M340.973 306.176L334.23 308.528L340.038 322.049L346.781 319.697L340.973 306.176Z" fill="#E58A7B"/>
<path d="M371.039 323.775H363.931L361.325 308.947H368.434L371.039 323.775Z" fill="#E58A7B"/>
<path d="M363.44 323.035H371.426C371.564 323.036 371.698 323.08 371.804 323.161C371.909 323.242 371.979 323.354 372.002 323.478L373.031 329.169C373.052 329.311 373.04 329.457 372.993 329.595C372.947 329.733 372.869 329.86 372.763 329.968C372.657 330.076 372.527 330.163 372.381 330.221C372.235 330.28 372.077 330.31 371.917 330.309C369.132 330.266 367.791 330.113 364.28 330.113C362.118 330.113 357.672 330.317 354.67 330.317C351.668 330.317 351.47 327.663 352.706 327.416C358.257 326.336 360.409 324.864 362.26 323.435C362.586 323.177 363.005 323.035 363.44 323.035Z" fill="#263238"/>
<path d="M339.839 320.84L347.391 318.85C347.526 318.816 347.67 318.824 347.799 318.873C347.927 318.923 348.034 319.011 348.099 319.122L350.931 324.226C350.997 324.356 351.031 324.497 351.03 324.639C351.029 324.781 350.994 324.922 350.926 325.051C350.859 325.18 350.761 325.294 350.64 325.385C350.518 325.476 350.376 325.542 350.223 325.579C347.476 326.259 345.636 326.676 342.199 327.578C339.83 328.199 337.413 329.211 335.072 329.883C333.449 330.351 329.635 330.368 327.662 330.368C324.745 330.368 324.093 327.595 325.349 327.467C328.511 327.153 328.936 327.297 330.683 326.506C333.54 325.38 336.13 323.769 338.31 321.759C338.721 321.337 339.249 321.02 339.839 320.84Z" fill="#263238"/>
<path d="M284.928 138.343L277.112 135.391L273.893 143.2C277.096 143.64 280.355 143.64 283.559 143.2L284.928 138.343Z" fill="#E58A7B"/>
<path d="M271.296 135.187L271.088 140.376L273.892 143.183L277.111 135.374L271.296 135.187Z" fill="#E58A7B"/>
<path d="M341.897 307.325L335.134 309.678L338.129 316.669L344.893 314.316L341.897 307.325Z" fill="#CF6F64"/>
<path d="M368.434 308.947H361.325L362.675 316.595H369.783L368.434 308.947Z" fill="#CF6F64"/>
<path opacity="0.2" d="M319.185 151.119C319.326 152.659 319.487 154.233 319.694 155.849L347.958 147.581C352.371 146.402 356.207 143.902 358.833 140.494C358.946 138.223 359.087 135.833 359.305 133.34C359.399 132.132 359.512 130.89 359.635 129.631C359.758 128.372 359.928 126.977 360.107 125.633L319.185 151.119Z" fill="black"/>
<path d="M328.417 123.217L327.473 123.114C328.03 118.861 331.551 115.509 335.261 115.594V116.445C332.013 116.385 328.917 119.405 328.417 123.217Z" fill="white"/>
<path d="M333.449 131.068H333.288V130.218C336.535 130.328 339.585 127.274 340.085 123.472L341.029 123.574C340.529 127.734 337.121 131.068 333.449 131.068Z" fill="white"/>
<path d="M351.092 87.3262C349.761 92.0135 348.194 100.597 351.621 103.719C351.621 103.719 349.223 108.474 339.566 108.474C330.739 108.474 335.469 103.719 335.469 103.719C341.34 102.477 341.444 98.6148 340.67 94.9568L351.092 87.3262Z" fill="#E58A7B"/>
<path d="M346.844 90.4395L340.68 94.9566C340.871 95.7972 340.981 96.651 341.01 97.5086C342.813 99.1249 346.429 95.0332 346.797 92.9405C346.984 92.1166 347 91.2686 346.844 90.4395Z" fill="#CF6F64"/>
<path d="M330.078 87.2667C330.507 87.9366 331.085 88.5197 331.775 88.9793C332.466 89.4389 333.254 89.7652 334.09 89.9379C336.356 90.3887 337.489 88.5087 336.866 86.6202C336.309 84.9188 334.449 82.6304 332.146 83.0218C331.652 83.1134 331.19 83.3101 330.799 83.5957C330.407 83.8812 330.097 84.2471 329.895 84.6628C329.692 85.0785 329.603 85.5318 329.635 85.9849C329.667 86.4379 329.819 86.8774 330.078 87.2667Z" fill="#CF6F64"/>
<path d="M333.826 72.2694C330.295 73.7241 329.049 86.3653 333.486 88.2368C337.923 90.1084 340.509 69.5047 333.826 72.2694Z" fill="#263238"/>
<path d="M352.168 80.274C351.319 86.6201 351.224 90.3547 347.448 93.6043C346.278 94.6827 344.8 95.4487 343.178 95.8178C341.555 96.1868 339.85 96.1446 338.253 95.6957C336.655 95.2469 335.226 94.4089 334.123 93.2742C333.021 92.1395 332.287 90.7523 332.005 89.2658C330.862 83.5662 332.439 74.1491 339.5 71.6225C340.984 71.0328 342.615 70.8114 344.226 70.9814C345.836 71.1513 347.367 71.7062 348.659 72.5888C349.952 73.4714 350.959 74.6494 351.576 76.0007C352.193 77.352 352.397 78.8274 352.168 80.274Z" fill="#E58A7B"/>
<path d="M340.567 75.553C345.797 74.3535 349.639 73.5368 348.261 77.4585C346.439 82.6987 344.249 87.7688 347.184 87.9985C348.978 88.1431 356.908 85.1147 355.898 82.0437C355.02 79.3725 358.729 78.6409 359.39 77.2883C361.835 72.3884 354.84 73.0349 356.086 70.0575C357.332 67.0801 350.422 62.2822 346.646 64.6727C340.501 68.5348 329.956 68.4752 335.498 62.1206C339.472 57.5864 332.382 58.5137 332.382 58.5137C332.382 58.5137 336.668 60.802 329.456 64.3409C321.829 68.1179 328.824 78.2666 340.567 75.553Z" fill="#263238"/>
<path d="M354.944 87.2667C353.911 88.6129 352.36 89.5651 350.592 89.9379C348.26 90.3887 347.363 88.5087 348.241 86.6202C349.025 84.9188 351.177 82.6304 353.405 83.0218C355.633 83.4131 356.143 85.5993 354.944 87.2667Z" fill="#E58A7B"/>
<path d="M320.393 160.86C320.393 160.86 314.012 212.327 313.512 231.859C313.002 252.173 335.139 315.558 335.139 315.558L346.467 311.304C346.467 311.304 333.251 253.39 335.139 233.441C337.14 211.689 345.409 160.894 345.409 160.894L320.393 160.86Z" fill="url(#paint1_linear_435_400)" fill-opacity="0.95"/>
<path opacity="0.2" d="M336.252 174.99C331.164 184.5 334.591 203.309 337.347 214.453C338.395 206.584 339.641 198.043 340.821 190.14C340.708 177.992 339.66 168.609 336.252 174.99Z" fill="black"/>
<path d="M345.966 307.936C346.023 307.936 347.307 311.185 347.307 311.185L334.242 316.136L332.184 312.682L345.966 307.936Z" fill="#323037"/>
<path d="M333.883 160.86C333.883 160.86 338.763 209.809 341.992 228.141C345.541 248.226 359.456 315.116 359.456 315.116H372.474C372.474 315.116 364.676 249.851 363.203 229.962C361.599 208.388 358.408 160.86 358.408 160.86H333.883Z" fill="url(#paint2_linear_435_400)" fill-opacity="0.95"/>
<path d="M372.673 312.061C372.729 312.061 373.107 315.336 373.107 315.336H358.796L357.776 311.576L372.673 312.061Z" fill="#323037"/>
<path opacity="0.2" d="M367.687 308.182C367.658 308.182 367.629 308.173 367.606 308.156C367.584 308.139 367.569 308.115 367.564 308.088C367.489 307.493 360.456 248.54 359.134 230.676C357.7 211.297 354.811 168.312 354.783 167.878C354.781 167.864 354.783 167.85 354.788 167.836C354.793 167.823 354.802 167.811 354.812 167.8C354.823 167.79 354.836 167.782 354.85 167.776C354.865 167.77 354.88 167.768 354.896 167.768C354.927 167.767 354.957 167.778 354.98 167.797C355.002 167.816 355.016 167.842 355.019 167.87C355.019 168.304 357.936 211.255 359.37 230.667C360.692 248.532 367.725 307.442 367.791 308.08C367.794 308.094 367.793 308.108 367.789 308.122C367.785 308.136 367.778 308.149 367.768 308.16C367.759 308.172 367.746 308.181 367.732 308.187C367.718 308.194 367.703 308.198 367.687 308.199V308.182Z" fill="black"/>
<path d="M341.369 82.0441C341.369 82.5631 341.01 82.9799 340.633 82.9799C340.255 82.9799 339.981 82.5631 340.019 82.0441C340.057 81.5252 340.378 81.1084 340.755 81.1084C341.133 81.1084 341.407 81.5337 341.369 82.0441Z" fill="#263238"/>
<path d="M334.893 82.0441C334.893 82.5631 334.524 82.9799 334.156 82.9799C333.788 82.9799 333.505 82.5631 333.533 82.0441C333.562 81.5252 333.901 81.1084 334.279 81.1084C334.657 81.1084 334.93 81.5337 334.893 82.0441Z" fill="#263238"/>
<path d="M336.932 82.3076C336.144 83.8922 335.128 85.3766 333.911 86.7227C334.855 87.5734 336.62 87.1821 336.62 87.1821L336.932 82.3076Z" fill="#DF5753"/>
<path d="M337.102 89.3507C337.08 89.3507 337.059 89.3467 337.039 89.3389C337.018 89.3311 337 89.3197 336.985 89.3054C336.97 89.291 336.959 89.2741 336.951 89.2555C336.944 89.237 336.94 89.2173 336.942 89.1976C336.944 89.1562 336.964 89.1172 336.997 89.0887C337.031 89.0602 337.075 89.0444 337.121 89.0445C337.843 89.049 338.557 88.9076 339.21 88.6309C339.864 88.3541 340.44 87.949 340.897 87.4452C340.93 87.4194 340.972 87.4053 341.015 87.4053C341.058 87.4053 341.1 87.4194 341.133 87.4452C341.164 87.4737 341.181 87.5118 341.181 87.5515C341.181 87.5912 341.164 87.6293 341.133 87.6578C340.644 88.1933 340.028 88.6232 339.331 88.9162C338.633 89.2091 337.872 89.3576 337.102 89.3507Z" fill="#263238"/>
<path d="M342.52 80.4782C342.475 80.4991 342.425 80.51 342.374 80.51C342.323 80.51 342.273 80.4991 342.228 80.4782C341.875 80.2725 341.473 80.1445 341.055 80.1046C340.636 80.0647 340.214 80.114 339.821 80.2485C339.782 80.2658 339.74 80.276 339.698 80.2785C339.655 80.2809 339.612 80.2757 339.572 80.263C339.531 80.2503 339.494 80.2305 339.462 80.2046C339.43 80.1787 339.404 80.1474 339.386 80.1124C339.351 80.0367 339.35 79.9517 339.384 79.8754C339.417 79.7991 339.483 79.7377 339.566 79.7041C340.059 79.5224 340.594 79.4508 341.125 79.4952C341.656 79.5396 342.167 79.6988 342.615 79.9593C342.651 79.9815 342.682 80.0099 342.706 80.0429C342.73 80.0759 342.746 80.1129 342.754 80.1517C342.762 80.1905 342.761 80.2303 342.752 80.2688C342.743 80.3073 342.725 80.3438 342.7 80.3761C342.652 80.4249 342.59 80.4603 342.52 80.4782Z" fill="#263238"/>
<path d="M332.391 78.7765C332.341 78.7655 332.295 78.7419 332.259 78.7084C332.228 78.6807 332.203 78.6476 332.186 78.6111C332.169 78.5746 332.16 78.5354 332.16 78.4958C332.16 78.4561 332.169 78.4169 332.186 78.3804C332.203 78.3439 332.228 78.3108 332.259 78.2831C332.621 77.9174 333.072 77.6319 333.576 77.449C334.08 77.266 334.625 77.1904 335.167 77.2282C335.21 77.2343 335.252 77.2483 335.289 77.2694C335.326 77.2905 335.358 77.3183 335.383 77.351C335.408 77.3837 335.425 77.4206 335.433 77.4595C335.441 77.4984 335.441 77.5384 335.431 77.577C335.411 77.6558 335.359 77.7252 335.286 77.7722C335.213 77.8192 335.124 77.8405 335.035 77.8322C334.606 77.8079 334.176 77.8718 333.779 78.0192C333.381 78.1666 333.026 78.3935 332.741 78.6829C332.698 78.726 332.642 78.7575 332.581 78.774C332.519 78.7905 332.454 78.7914 332.391 78.7765Z" fill="#263238"/>
<path d="M367.905 113.545L358.087 111.188C358.087 111.188 348.459 132.549 345.051 133.936C340.425 135.841 328.71 142.443 323.726 145.565C323.452 146.628 323.669 149.444 324.292 150.218C332.788 148.823 349.053 143.183 352.452 140.316C360.202 133.774 367.905 113.545 367.905 113.545Z" fill="#E58A7B"/>
<path d="M361.052 324.158C360.573 324.192 360.095 324.075 359.702 323.826C359.58 323.727 359.489 323.601 359.438 323.461C359.387 323.321 359.377 323.171 359.409 323.026C359.415 322.936 359.448 322.849 359.505 322.774C359.561 322.699 359.639 322.639 359.73 322.601C360.523 322.235 362.742 323.503 362.996 323.647C363.025 323.663 363.046 323.686 363.058 323.714C363.07 323.742 363.072 323.772 363.063 323.801C363.055 323.83 363.038 323.858 363.015 323.88C362.992 323.902 362.963 323.919 362.93 323.928C362.315 324.064 361.685 324.141 361.052 324.158ZM360.108 322.831C360.036 322.816 359.962 322.816 359.891 322.831C359.855 322.847 359.825 322.873 359.804 322.905C359.784 322.937 359.775 322.973 359.777 323.009C359.752 323.108 359.756 323.212 359.79 323.309C359.823 323.406 359.884 323.493 359.966 323.562C360.334 323.86 361.26 323.894 362.477 323.681C361.752 323.251 360.936 322.961 360.08 322.831H360.108Z" fill="#323037"/>
<path d="M362.882 323.928C362.858 323.935 362.831 323.935 362.807 323.928C362.099 323.571 360.768 322.167 360.966 321.453C360.996 321.34 361.067 321.238 361.168 321.166C361.269 321.093 361.394 321.054 361.523 321.053C361.65 321.038 361.779 321.047 361.901 321.081C362.023 321.115 362.136 321.172 362.231 321.249C363.015 321.853 363.062 323.707 363.062 323.801C363.066 323.829 363.06 323.857 363.045 323.882C363.03 323.906 363.006 323.926 362.977 323.937C362.945 323.943 362.912 323.94 362.882 323.928ZM361.618 321.334H361.551C361.334 321.334 361.306 321.444 361.297 321.487C361.183 321.904 362.023 322.967 362.722 323.469C362.719 322.75 362.472 322.05 362.014 321.461C361.904 321.375 361.763 321.33 361.618 321.334Z" fill="#323037"/>
<path d="M335.988 323.095C335.41 323.276 334.781 323.276 334.203 323.095C334.072 323.031 333.961 322.938 333.88 322.825C333.799 322.712 333.751 322.582 333.741 322.448C333.729 322.364 333.741 322.279 333.775 322.2C333.81 322.121 333.866 322.051 333.939 321.997C334.694 321.385 337.781 321.998 338.13 322.117C338.164 322.124 338.193 322.142 338.214 322.167C338.234 322.191 338.245 322.222 338.244 322.253C338.245 322.285 338.236 322.316 338.218 322.343C338.199 322.371 338.172 322.392 338.14 322.406C337.445 322.689 336.725 322.919 335.988 323.095ZM334.449 322.083C334.341 322.102 334.24 322.146 334.156 322.21C334.126 322.23 334.103 322.258 334.09 322.29C334.076 322.321 334.073 322.356 334.081 322.389C334.087 322.478 334.118 322.565 334.17 322.64C334.223 322.716 334.296 322.779 334.383 322.823C334.883 323.061 336.044 322.874 337.545 322.304C336.534 322.074 335.487 321.999 334.449 322.083Z" fill="#323037"/>
<path d="M338.112 322.405H338.036C337.092 322.252 335.204 321.274 335.147 320.542C335.147 320.372 335.232 320.134 335.686 319.998C335.839 319.949 336.001 319.928 336.163 319.937C336.326 319.945 336.484 319.983 336.63 320.049C337.649 320.5 338.187 322.133 338.216 322.209C338.222 322.235 338.221 322.262 338.213 322.287C338.205 322.313 338.189 322.336 338.168 322.354C338.154 322.375 338.135 322.392 338.112 322.405ZM335.874 320.253H335.78C335.487 320.346 335.487 320.457 335.487 320.491C335.487 320.933 336.856 321.742 337.81 322.014C337.59 321.331 337.125 320.732 336.488 320.312C336.298 320.226 336.08 320.204 335.874 320.253Z" fill="#323037"/>
<path d="M324.528 145.062L314.682 149.146L313.54 151.698L317.174 153.901C317.174 153.901 323.971 153.238 325.906 149.299L324.528 145.062Z" fill="#E58A7B"/>
<path d="M324.944 150.362C324.724 148.657 324.099 147.015 323.112 145.547L324.67 144.492C325.842 146.184 326.589 148.085 326.86 150.064L324.944 150.362Z" fill="#263238"/>
<path d="M326.624 146.271C326.832 146.566 326.934 146.911 326.917 147.261C326.899 147.61 326.763 147.946 326.526 148.223C326.289 148.5 325.963 148.704 325.593 148.808C325.222 148.912 324.825 148.911 324.456 148.804C324.086 148.698 323.762 148.491 323.527 148.213C323.293 147.935 323.159 147.598 323.144 147.249C323.129 146.899 323.234 146.554 323.445 146.261C323.655 145.967 323.961 145.739 324.32 145.607C324.724 145.422 325.192 145.388 325.624 145.512C326.055 145.636 326.414 145.909 326.624 146.271Z" fill="#263238"/>
<path d="M308.027 152.446L309.34 153.637L318.175 150.234L314.683 149.146L308.027 152.446Z" fill="#E58A7B"/>
<path opacity="0.2" d="M345.966 307.936C346.023 307.936 347.307 311.185 347.307 311.185L334.242 316.136L332.184 312.682L345.966 307.936Z" fill="black"/>
<path opacity="0.2" d="M372.673 312.061C372.729 312.061 373.107 315.336 373.107 315.336H358.796L357.776 311.576L372.673 312.061Z" fill="black"/>
<path d="M370.462 111.095C373.058 118.64 362.91 128.959 362.91 128.959L348.892 123.804C350.553 119.443 352.469 115.163 354.631 110.984C358.936 102.622 367.838 103.481 370.462 111.095Z" fill="#323037"/>
<path opacity="0.2" d="M370.462 111.095C373.058 118.64 362.91 128.959 362.91 128.959L348.892 123.804C350.553 119.443 352.469 115.163 354.631 110.984C358.936 102.622 367.838 103.481 370.462 111.095Z" fill="black"/>
</g>
<defs>
<linearGradient id="paint0_linear_435_400" x1="143.507" y1="126.505" x2="143.507" y2="186.045" gradientUnits="userSpaceOnUse">
<stop stop-color="#FFA620"/>
<stop offset="1" stop-color="#F7711A"/>
</linearGradient>
<linearGradient id="paint1_linear_435_400" x1="329.985" y1="160.86" x2="329.985" y2="315.558" gradientUnits="userSpaceOnUse">
<stop stop-color="#FFA620"/>
<stop offset="1" stop-color="#F7711A"/>
</linearGradient>
<linearGradient id="paint2_linear_435_400" x1="353.178" y1="160.86" x2="353.178" y2="315.116" gradientUnits="userSpaceOnUse">
<stop stop-color="#FFA620"/>
<stop offset="1" stop-color="#F7711A"/>
</linearGradient>
<clipPath id="clip0_435_400">
<rect width="472" height="349" fill="white"/>
</clipPath>
</defs>
</svg>
